%TF.GenerationSoftware,KiCad,Pcbnew,9.0.4*%
%TF.CreationDate,2025-09-26T12:58:40-07:00*%
%TF.ProjectId,SD-PGMR,53442d50-474d-4522-9e6b-696361645f70,v1.0*%
%TF.SameCoordinates,Original*%
%TF.FileFunction,Copper,L1,Top*%
%TF.FilePolarity,Positive*%
%FSLAX46Y46*%
G04 Gerber Fmt 4.6, Leading zero omitted, Abs format (unit mm)*
G04 Created by KiCad (PCBNEW 9.0.4) date 2025-09-26 12:58:40*
%MOMM*%
%LPD*%
G01*
G04 APERTURE LIST*
G04 Aperture macros list*
%AMRoundRect*
0 Rectangle with rounded corners*
0 $1 Rounding radius*
0 $2 $3 $4 $5 $6 $7 $8 $9 X,Y pos of 4 corners*
0 Add a 4 corners polygon primitive as box body*
4,1,4,$2,$3,$4,$5,$6,$7,$8,$9,$2,$3,0*
0 Add four circle primitives for the rounded corners*
1,1,$1+$1,$2,$3*
1,1,$1+$1,$4,$5*
1,1,$1+$1,$6,$7*
1,1,$1+$1,$8,$9*
0 Add four rect primitives between the rounded corners*
20,1,$1+$1,$2,$3,$4,$5,0*
20,1,$1+$1,$4,$5,$6,$7,0*
20,1,$1+$1,$6,$7,$8,$9,0*
20,1,$1+$1,$8,$9,$2,$3,0*%
G04 Aperture macros list end*
%TA.AperFunction,SMDPad,CuDef*%
%ADD10RoundRect,0.237500X-0.300000X-0.237500X0.300000X-0.237500X0.300000X0.237500X-0.300000X0.237500X0*%
%TD*%
%TA.AperFunction,ComponentPad*%
%ADD11R,1.700000X1.700000*%
%TD*%
%TA.AperFunction,ComponentPad*%
%ADD12C,1.700000*%
%TD*%
%TA.AperFunction,SMDPad,CuDef*%
%ADD13R,1.600000X1.000000*%
%TD*%
%TA.AperFunction,ComponentPad*%
%ADD14R,2.000000X1.440000*%
%TD*%
%TA.AperFunction,ComponentPad*%
%ADD15O,2.000000X1.440000*%
%TD*%
%TA.AperFunction,SMDPad,CuDef*%
%ADD16RoundRect,0.150000X0.825000X0.150000X-0.825000X0.150000X-0.825000X-0.150000X0.825000X-0.150000X0*%
%TD*%
%TA.AperFunction,SMDPad,CuDef*%
%ADD17RoundRect,0.150000X0.150000X-0.825000X0.150000X0.825000X-0.150000X0.825000X-0.150000X-0.825000X0*%
%TD*%
%TA.AperFunction,ComponentPad*%
%ADD18O,1.700000X1.700000*%
%TD*%
%TA.AperFunction,SMDPad,CuDef*%
%ADD19R,3.500000X1.700000*%
%TD*%
%TA.AperFunction,SMDPad,CuDef*%
%ADD20R,1.700000X3.500000*%
%TD*%
%TA.AperFunction,SMDPad,CuDef*%
%ADD21RoundRect,0.150000X-0.150000X0.875000X-0.150000X-0.875000X0.150000X-0.875000X0.150000X0.875000X0*%
%TD*%
%TA.AperFunction,SMDPad,CuDef*%
%ADD22R,0.620000X1.400000*%
%TD*%
%TA.AperFunction,SMDPad,CuDef*%
%ADD23R,1.100000X2.400000*%
%TD*%
%TA.AperFunction,ComponentPad*%
%ADD24R,2.000000X2.000000*%
%TD*%
%TA.AperFunction,ComponentPad*%
%ADD25C,2.000000*%
%TD*%
%TA.AperFunction,ComponentPad*%
%ADD26R,2.000000X3.200000*%
%TD*%
%TA.AperFunction,SMDPad,CuDef*%
%ADD27RoundRect,0.250000X-0.350000X-0.450000X0.350000X-0.450000X0.350000X0.450000X-0.350000X0.450000X0*%
%TD*%
%TA.AperFunction,SMDPad,CuDef*%
%ADD28RoundRect,0.250000X0.350000X0.450000X-0.350000X0.450000X-0.350000X-0.450000X0.350000X-0.450000X0*%
%TD*%
%TA.AperFunction,SMDPad,CuDef*%
%ADD29RoundRect,0.250000X0.450000X-0.350000X0.450000X0.350000X-0.450000X0.350000X-0.450000X-0.350000X0*%
%TD*%
%TA.AperFunction,SMDPad,CuDef*%
%ADD30RoundRect,0.250000X-0.450000X0.350000X-0.450000X-0.350000X0.450000X-0.350000X0.450000X0.350000X0*%
%TD*%
%TA.AperFunction,SMDPad,CuDef*%
%ADD31RoundRect,0.150000X0.150000X-0.587500X0.150000X0.587500X-0.150000X0.587500X-0.150000X-0.587500X0*%
%TD*%
%TA.AperFunction,SMDPad,CuDef*%
%ADD32RoundRect,0.150000X-0.150000X0.587500X-0.150000X-0.587500X0.150000X-0.587500X0.150000X0.587500X0*%
%TD*%
%TA.AperFunction,ComponentPad*%
%ADD33R,1.800000X1.800000*%
%TD*%
%TA.AperFunction,ComponentPad*%
%ADD34C,1.800000*%
%TD*%
%TA.AperFunction,SMDPad,CuDef*%
%ADD35RoundRect,0.237500X-0.237500X0.300000X-0.237500X-0.300000X0.237500X-0.300000X0.237500X0.300000X0*%
%TD*%
%TA.AperFunction,SMDPad,CuDef*%
%ADD36RoundRect,0.237500X0.300000X0.237500X-0.300000X0.237500X-0.300000X-0.237500X0.300000X-0.237500X0*%
%TD*%
%TA.AperFunction,ViaPad*%
%ADD37C,0.762000*%
%TD*%
%TA.AperFunction,ViaPad*%
%ADD38C,0.635000*%
%TD*%
%TA.AperFunction,Conductor*%
%ADD39C,0.508000*%
%TD*%
%TA.AperFunction,Conductor*%
%ADD40C,0.203200*%
%TD*%
G04 APERTURE END LIST*
D10*
%TO.P,C10,1*%
%TO.N,GND*%
X173381500Y-88900000D03*
%TO.P,C10,2*%
%TO.N,+5VP*%
X175106500Y-88900000D03*
%TD*%
D11*
%TO.P,J4,1,Pin_1*%
%TO.N,GND*%
X94234000Y-128778000D03*
D12*
%TO.P,J4,2,Pin_2*%
%TO.N,/PD3*%
X94234000Y-126238000D03*
%TO.P,J4,3,Pin_3*%
%TO.N,/PD2*%
X94234000Y-123698000D03*
%TD*%
D13*
%TO.P,SW2,1,1*%
%TO.N,Net-(U3-GPIO22)*%
X83100000Y-125650000D03*
X88350000Y-125650000D03*
%TO.P,SW2,2,2*%
%TO.N,GND*%
X83100000Y-128850000D03*
X88350000Y-128850000D03*
%TD*%
%TO.P,SW1,1,1*%
%TO.N,/RESET-*%
X126915000Y-80696000D03*
X132165000Y-80696000D03*
%TO.P,SW1,2,2*%
%TO.N,GND*%
X126915000Y-83896000D03*
X132165000Y-83896000D03*
%TD*%
D14*
%TO.P,U10,1,A18*%
%TO.N,/BA18*%
X181610000Y-88900000D03*
D15*
%TO.P,U10,2,A16*%
%TO.N,/BA16*%
X181610000Y-91440000D03*
%TO.P,U10,3,A15*%
%TO.N,/BA15*%
X181610000Y-93980000D03*
%TO.P,U10,4,A12*%
%TO.N,/BA12*%
X181610000Y-96520000D03*
%TO.P,U10,5,A7*%
%TO.N,/BA7*%
X181610000Y-99060000D03*
%TO.P,U10,6,A6*%
%TO.N,/BA6*%
X181610000Y-101600000D03*
%TO.P,U10,7,A5*%
%TO.N,/BA5*%
X181610000Y-104140000D03*
%TO.P,U10,8,A4*%
%TO.N,/BA4*%
X181610000Y-106680000D03*
%TO.P,U10,9,A3*%
%TO.N,/BA3*%
X181610000Y-109220000D03*
%TO.P,U10,10,A2*%
%TO.N,/BA2*%
X181610000Y-111760000D03*
%TO.P,U10,11,A1*%
%TO.N,/BA1*%
X181610000Y-114300000D03*
%TO.P,U10,12,A0*%
%TO.N,/BA0*%
X181610000Y-116840000D03*
%TO.P,U10,13,D0*%
%TO.N,/BD0*%
X181610000Y-119380000D03*
%TO.P,U10,14,D1*%
%TO.N,/BD1*%
X181610000Y-121920000D03*
%TO.P,U10,15,D2*%
%TO.N,/BD2*%
X181610000Y-124460000D03*
%TO.P,U10,16,GND*%
%TO.N,GND*%
X181610000Y-127000000D03*
%TO.P,U10,17,D3*%
%TO.N,/BD3*%
X196850000Y-127000000D03*
%TO.P,U10,18,D4*%
%TO.N,/BD4*%
X196850000Y-124460000D03*
%TO.P,U10,19,D5*%
%TO.N,/BD5*%
X196850000Y-121920000D03*
%TO.P,U10,20,D6*%
%TO.N,/BD6*%
X196850000Y-119380000D03*
%TO.P,U10,21,D7*%
%TO.N,/BD7*%
X196850000Y-116840000D03*
%TO.P,U10,22,CE*%
%TO.N,/F_SEL-*%
X196850000Y-114300000D03*
%TO.P,U10,23,A10*%
%TO.N,/BA10*%
X196850000Y-111760000D03*
%TO.P,U10,24,OE*%
%TO.N,/PRD-*%
X196850000Y-109220000D03*
%TO.P,U10,25,A11*%
%TO.N,/BA11*%
X196850000Y-106680000D03*
%TO.P,U10,26,A9*%
%TO.N,/BA9*%
X196850000Y-104140000D03*
%TO.P,U10,27,A8*%
%TO.N,/BA8*%
X196850000Y-101600000D03*
%TO.P,U10,28,A13*%
%TO.N,/BA13*%
X196850000Y-99060000D03*
%TO.P,U10,29,A14*%
%TO.N,/BA14*%
X196850000Y-96520000D03*
%TO.P,U10,30,A17*%
%TO.N,/BA17*%
X196850000Y-93980000D03*
%TO.P,U10,31,PGM*%
%TO.N,/FWR-*%
X196850000Y-91440000D03*
%TO.P,U10,32,VCC*%
%TO.N,+5VP*%
X196850000Y-88900000D03*
%TD*%
D16*
%TO.P,U9,1,P1*%
%TO.N,/PD1*%
X163672500Y-89408000D03*
%TO.P,U9,2,Q1*%
%TO.N,/BA17*%
X163672500Y-88138000D03*
%TO.P,U9,3,Q0*%
%TO.N,/BA16*%
X163672500Y-86868000D03*
%TO.P,U9,4,~{CEN}*%
%TO.N,Net-(U8-~{RC})*%
X163672500Y-85598000D03*
%TO.P,U9,5,D/~{U}*%
%TO.N,GND*%
X163672500Y-84328000D03*
%TO.P,U9,6,Q2*%
%TO.N,/BA18*%
X163672500Y-83058000D03*
%TO.P,U9,7,Q3*%
%TO.N,unconnected-(U9-Q3-Pad7)*%
X163672500Y-81788000D03*
%TO.P,U9,8,GND*%
%TO.N,GND*%
X163672500Y-80518000D03*
%TO.P,U9,9,P3*%
%TO.N,/PD3*%
X158722500Y-80518000D03*
%TO.P,U9,10,P2*%
%TO.N,/PD2*%
X158722500Y-81788000D03*
%TO.P,U9,11,~{LD}*%
%TO.N,/ADH_LD-*%
X158722500Y-83058000D03*
%TO.P,U9,12,TC*%
%TO.N,unconnected-(U9-TC-Pad12)*%
X158722500Y-84328000D03*
%TO.P,U9,13,~{RC}*%
%TO.N,unconnected-(U9-~{RC}-Pad13)*%
X158722500Y-85598000D03*
%TO.P,U9,14,CLK*%
%TO.N,/ACLK*%
X158722500Y-86868000D03*
%TO.P,U9,15,P0*%
%TO.N,/PD0*%
X158722500Y-88138000D03*
%TO.P,U9,16,VCC*%
%TO.N,+5V*%
X158722500Y-89408000D03*
%TD*%
%TO.P,U8,1,P1*%
%TO.N,/PD5*%
X163672500Y-100330000D03*
%TO.P,U8,2,Q1*%
%TO.N,/BA13*%
X163672500Y-99060000D03*
%TO.P,U8,3,Q0*%
%TO.N,/BA12*%
X163672500Y-97790000D03*
%TO.P,U8,4,~{CEN}*%
%TO.N,Net-(U7-~{RC})*%
X163672500Y-96520000D03*
%TO.P,U8,5,D/~{U}*%
%TO.N,GND*%
X163672500Y-95250000D03*
%TO.P,U8,6,Q2*%
%TO.N,/BA14*%
X163672500Y-93980000D03*
%TO.P,U8,7,Q3*%
%TO.N,/BA15*%
X163672500Y-92710000D03*
%TO.P,U8,8,GND*%
%TO.N,GND*%
X163672500Y-91440000D03*
%TO.P,U8,9,P3*%
%TO.N,/PD7*%
X158722500Y-91440000D03*
%TO.P,U8,10,P2*%
%TO.N,/PD6*%
X158722500Y-92710000D03*
%TO.P,U8,11,~{LD}*%
%TO.N,/ADM_LD-*%
X158722500Y-93980000D03*
%TO.P,U8,12,TC*%
%TO.N,unconnected-(U8-TC-Pad12)*%
X158722500Y-95250000D03*
%TO.P,U8,13,~{RC}*%
%TO.N,Net-(U8-~{RC})*%
X158722500Y-96520000D03*
%TO.P,U8,14,CLK*%
%TO.N,/ACLK*%
X158722500Y-97790000D03*
%TO.P,U8,15,P0*%
%TO.N,/PD4*%
X158722500Y-99060000D03*
%TO.P,U8,16,VCC*%
%TO.N,+5V*%
X158722500Y-100330000D03*
%TD*%
%TO.P,U7,1,P1*%
%TO.N,/PD1*%
X163672500Y-111506000D03*
%TO.P,U7,2,Q1*%
%TO.N,/BA9*%
X163672500Y-110236000D03*
%TO.P,U7,3,Q0*%
%TO.N,/BA8*%
X163672500Y-108966000D03*
%TO.P,U7,4,~{CEN}*%
%TO.N,Net-(U6-~{RC})*%
X163672500Y-107696000D03*
%TO.P,U7,5,D/~{U}*%
%TO.N,GND*%
X163672500Y-106426000D03*
%TO.P,U7,6,Q2*%
%TO.N,/BA10*%
X163672500Y-105156000D03*
%TO.P,U7,7,Q3*%
%TO.N,/BA11*%
X163672500Y-103886000D03*
%TO.P,U7,8,GND*%
%TO.N,GND*%
X163672500Y-102616000D03*
%TO.P,U7,9,P3*%
%TO.N,/PD3*%
X158722500Y-102616000D03*
%TO.P,U7,10,P2*%
%TO.N,/PD2*%
X158722500Y-103886000D03*
%TO.P,U7,11,~{LD}*%
%TO.N,/ADM_LD-*%
X158722500Y-105156000D03*
%TO.P,U7,12,TC*%
%TO.N,unconnected-(U7-TC-Pad12)*%
X158722500Y-106426000D03*
%TO.P,U7,13,~{RC}*%
%TO.N,Net-(U7-~{RC})*%
X158722500Y-107696000D03*
%TO.P,U7,14,CLK*%
%TO.N,/ACLK*%
X158722500Y-108966000D03*
%TO.P,U7,15,P0*%
%TO.N,/PD0*%
X158722500Y-110236000D03*
%TO.P,U7,16,VCC*%
%TO.N,+5V*%
X158722500Y-111506000D03*
%TD*%
%TO.P,U6,1,P1*%
%TO.N,/PD5*%
X163672500Y-122428000D03*
%TO.P,U6,2,Q1*%
%TO.N,/BA5*%
X163672500Y-121158000D03*
%TO.P,U6,3,Q0*%
%TO.N,/BA4*%
X163672500Y-119888000D03*
%TO.P,U6,4,~{CEN}*%
%TO.N,Net-(U5-~{RC})*%
X163672500Y-118618000D03*
%TO.P,U6,5,D/~{U}*%
%TO.N,GND*%
X163672500Y-117348000D03*
%TO.P,U6,6,Q2*%
%TO.N,/BA6*%
X163672500Y-116078000D03*
%TO.P,U6,7,Q3*%
%TO.N,/BA7*%
X163672500Y-114808000D03*
%TO.P,U6,8,GND*%
%TO.N,GND*%
X163672500Y-113538000D03*
%TO.P,U6,9,P3*%
%TO.N,/PD7*%
X158722500Y-113538000D03*
%TO.P,U6,10,P2*%
%TO.N,/PD6*%
X158722500Y-114808000D03*
%TO.P,U6,11,~{LD}*%
%TO.N,/ADL_LD-*%
X158722500Y-116078000D03*
%TO.P,U6,12,TC*%
%TO.N,unconnected-(U6-TC-Pad12)*%
X158722500Y-117348000D03*
%TO.P,U6,13,~{RC}*%
%TO.N,Net-(U6-~{RC})*%
X158722500Y-118618000D03*
%TO.P,U6,14,CLK*%
%TO.N,/ACLK*%
X158722500Y-119888000D03*
%TO.P,U6,15,P0*%
%TO.N,/PD4*%
X158722500Y-121158000D03*
%TO.P,U6,16,VCC*%
%TO.N,+5V*%
X158722500Y-122428000D03*
%TD*%
%TO.P,U5,1,P1*%
%TO.N,/PD1*%
X163672500Y-133477000D03*
%TO.P,U5,2,Q1*%
%TO.N,/BA1*%
X163672500Y-132207000D03*
%TO.P,U5,3,Q0*%
%TO.N,/BA0*%
X163672500Y-130937000D03*
%TO.P,U5,4,~{CEN}*%
%TO.N,GND*%
X163672500Y-129667000D03*
%TO.P,U5,5,D/~{U}*%
X163672500Y-128397000D03*
%TO.P,U5,6,Q2*%
%TO.N,/BA2*%
X163672500Y-127127000D03*
%TO.P,U5,7,Q3*%
%TO.N,/BA3*%
X163672500Y-125857000D03*
%TO.P,U5,8,GND*%
%TO.N,GND*%
X163672500Y-124587000D03*
%TO.P,U5,9,P3*%
%TO.N,/PD3*%
X158722500Y-124587000D03*
%TO.P,U5,10,P2*%
%TO.N,/PD2*%
X158722500Y-125857000D03*
%TO.P,U5,11,~{LD}*%
%TO.N,/ADL_LD-*%
X158722500Y-127127000D03*
%TO.P,U5,12,TC*%
%TO.N,unconnected-(U5-TC-Pad12)*%
X158722500Y-128397000D03*
%TO.P,U5,13,~{RC}*%
%TO.N,Net-(U5-~{RC})*%
X158722500Y-129667000D03*
%TO.P,U5,14,CLK*%
%TO.N,/ACLK*%
X158722500Y-130937000D03*
%TO.P,U5,15,P0*%
%TO.N,/PD0*%
X158722500Y-132207000D03*
%TO.P,U5,16,VCC*%
%TO.N,+5V*%
X158722500Y-133477000D03*
%TD*%
D17*
%TO.P,U4,1,A0*%
%TO.N,/A2*%
X133892500Y-104140000D03*
%TO.P,U4,2,A1*%
%TO.N,/A1*%
X135162500Y-104140000D03*
%TO.P,U4,3,A2*%
%TO.N,/A0*%
X136432500Y-104140000D03*
%TO.P,U4,4,E1*%
%TO.N,GND*%
X137702500Y-104140000D03*
%TO.P,U4,5,E2*%
X138972500Y-104140000D03*
%TO.P,U4,6,E3*%
%TO.N,+5V*%
X140242500Y-104140000D03*
%TO.P,U4,7,O7*%
%TO.N,/ACLK*%
X141512500Y-104140000D03*
%TO.P,U4,8,GND*%
%TO.N,GND*%
X142782500Y-104140000D03*
%TO.P,U4,9,O6*%
%TO.N,/DISP_CD*%
X142782500Y-99190000D03*
%TO.P,U4,10,O5*%
%TO.N,/DISPRST-*%
X141512500Y-99190000D03*
%TO.P,U4,11,O4*%
%TO.N,/F_SEL-*%
X140242500Y-99190000D03*
%TO.P,U4,12,O3*%
%TO.N,/ADH_LD-*%
X138972500Y-99190000D03*
%TO.P,U4,13,O2*%
%TO.N,/ADM_LD-*%
X137702500Y-99190000D03*
%TO.P,U4,14,O1*%
%TO.N,/ADL_LD-*%
X136432500Y-99190000D03*
%TO.P,U4,15,O0*%
%TO.N,unconnected-(U4-O0-Pad15)*%
X135162500Y-99190000D03*
%TO.P,U4,16,VCC*%
%TO.N,+5V*%
X133892500Y-99190000D03*
%TD*%
D18*
%TO.P,U3,1,GPIO0*%
%TO.N,/RE_A*%
X101600000Y-79502000D03*
D19*
X100700000Y-79502000D03*
D18*
%TO.P,U3,2,GPIO1*%
%TO.N,/RE_B*%
X101600000Y-82042000D03*
D19*
X100700000Y-82042000D03*
D11*
%TO.P,U3,3,GND*%
%TO.N,GND*%
X101600000Y-84582000D03*
D19*
X100700000Y-84582000D03*
D18*
%TO.P,U3,4,GPIO2*%
%TO.N,/SPICK*%
X101600000Y-87122000D03*
D19*
X100700000Y-87122000D03*
D18*
%TO.P,U3,5,GPIO3*%
%TO.N,/SPIMO*%
X101600000Y-89662000D03*
D19*
X100700000Y-89662000D03*
D18*
%TO.P,U3,6,GPIO4*%
%TO.N,/SPIMI*%
X101600000Y-92202000D03*
D19*
X100700000Y-92202000D03*
D18*
%TO.P,U3,7,GPIO5*%
%TO.N,/CARD_CS-*%
X101600000Y-94742000D03*
D19*
X100700000Y-94742000D03*
D11*
%TO.P,U3,8,GND*%
%TO.N,GND*%
X101600000Y-97282000D03*
D19*
X100700000Y-97282000D03*
D18*
%TO.P,U3,9,GPIO6*%
%TO.N,/DISP_CS-*%
X101600000Y-99822000D03*
D19*
X100700000Y-99822000D03*
D18*
%TO.P,U3,10,GPIO7*%
%TO.N,/SD_DET-*%
X101600000Y-102362000D03*
D19*
X100700000Y-102362000D03*
D18*
%TO.P,U3,11,GPIO8*%
%TO.N,/RE_SW-*%
X101600000Y-104902000D03*
D19*
X100700000Y-104902000D03*
D18*
%TO.P,U3,12,GPIO9*%
%TO.N,/FPWR_ON*%
X101600000Y-107442000D03*
D19*
X100700000Y-107442000D03*
D11*
%TO.P,U3,13,GND*%
%TO.N,GND*%
X101600000Y-109982000D03*
D19*
X100700000Y-109982000D03*
D18*
%TO.P,U3,14,GPIO10*%
%TO.N,/PD0*%
X101600000Y-112522000D03*
D19*
X100700000Y-112522000D03*
D18*
%TO.P,U3,15,GPIO11*%
%TO.N,/PD1*%
X101600000Y-115062000D03*
D19*
X100700000Y-115062000D03*
D18*
%TO.P,U3,16,GPIO12*%
%TO.N,/PD2*%
X101600000Y-117602000D03*
D19*
X100700000Y-117602000D03*
D18*
%TO.P,U3,17,GPIO13*%
%TO.N,/PD3*%
X101600000Y-120142000D03*
D19*
X100700000Y-120142000D03*
D11*
%TO.P,U3,18,GND*%
%TO.N,GND*%
X101600000Y-122682000D03*
D19*
X100700000Y-122682000D03*
D18*
%TO.P,U3,19,GPIO14*%
%TO.N,/PD4*%
X101600000Y-125222000D03*
D19*
X100700000Y-125222000D03*
D18*
%TO.P,U3,20,GPIO15*%
%TO.N,/PD5*%
X101600000Y-127762000D03*
D19*
X100700000Y-127762000D03*
D18*
%TO.P,U3,21,GPIO16*%
%TO.N,/PD6*%
X119380000Y-127762000D03*
D19*
X120280000Y-127762000D03*
D18*
%TO.P,U3,22,GPIO17*%
%TO.N,/PD7*%
X119380000Y-125222000D03*
D19*
X120280000Y-125222000D03*
D11*
%TO.P,U3,23,GND*%
%TO.N,GND*%
X119380000Y-122682000D03*
D19*
X120280000Y-122682000D03*
D18*
%TO.P,U3,24,GPIO18*%
%TO.N,/PRD-*%
X119380000Y-120142000D03*
D19*
X120280000Y-120142000D03*
D18*
%TO.P,U3,25,GPIO19*%
%TO.N,/PWR-*%
X119380000Y-117602000D03*
D19*
X120280000Y-117602000D03*
D18*
%TO.P,U3,26,GPIO20*%
%TO.N,/DATA_LCH*%
X119380000Y-115062000D03*
D19*
X120280000Y-115062000D03*
D18*
%TO.P,U3,27,GPIO21*%
%TO.N,/FWR-*%
X119380000Y-112522000D03*
D19*
X120280000Y-112522000D03*
D11*
%TO.P,U3,28,GND*%
%TO.N,GND*%
X119380000Y-109982000D03*
D19*
X120280000Y-109982000D03*
D18*
%TO.P,U3,29,GPIO22*%
%TO.N,Net-(U3-GPIO22)*%
X119380000Y-107442000D03*
D19*
X120280000Y-107442000D03*
D18*
%TO.P,U3,30,RUN*%
%TO.N,/RESET-*%
X119380000Y-104902000D03*
D19*
X120280000Y-104902000D03*
D18*
%TO.P,U3,31,GPIO26_ADC0*%
%TO.N,/A0*%
X119380000Y-102362000D03*
D19*
X120280000Y-102362000D03*
D18*
%TO.P,U3,32,GPIO27_ADC1*%
%TO.N,/A1*%
X119380000Y-99822000D03*
D19*
X120280000Y-99822000D03*
D11*
%TO.P,U3,33,AGND*%
%TO.N,GND*%
X119380000Y-97282000D03*
D19*
X120280000Y-97282000D03*
D18*
%TO.P,U3,34,GPIO28_ADC2*%
%TO.N,/A2*%
X119380000Y-94742000D03*
D19*
X120280000Y-94742000D03*
D18*
%TO.P,U3,35,ADC_VREF*%
%TO.N,unconnected-(U3-ADC_VREF-Pad35)_1*%
X119380000Y-92202000D03*
D19*
%TO.N,unconnected-(U3-ADC_VREF-Pad35)*%
X120280000Y-92202000D03*
D18*
%TO.P,U3,36,3V3*%
%TO.N,+3.3V*%
X119380000Y-89662000D03*
D19*
X120280000Y-89662000D03*
D18*
%TO.P,U3,37,3V3_EN*%
%TO.N,unconnected-(U3-3V3_EN-Pad37)_1*%
X119380000Y-87122000D03*
D19*
%TO.N,unconnected-(U3-3V3_EN-Pad37)*%
X120280000Y-87122000D03*
D11*
%TO.P,U3,38,GND*%
%TO.N,GND*%
X119380000Y-84582000D03*
D19*
X120280000Y-84582000D03*
D18*
%TO.P,U3,39,VSYS*%
%TO.N,+5V*%
X119380000Y-82042000D03*
D19*
X120280000Y-82042000D03*
D18*
%TO.P,U3,40,VBUS*%
X119380000Y-79502000D03*
D19*
X120280000Y-79502000D03*
D18*
%TO.P,U3,D1,SWCLK*%
%TO.N,unconnected-(U3-SWCLK-PadD1)_1*%
X107954000Y-127802000D03*
D20*
%TO.N,unconnected-(U3-SWCLK-PadD1)*%
X107954000Y-128702000D03*
D11*
%TO.P,U3,D2,GND*%
%TO.N,unconnected-(U3-GND-PadD2)_1*%
X110494000Y-127802000D03*
D20*
%TO.N,unconnected-(U3-GND-PadD2)*%
X110494000Y-128702000D03*
D18*
%TO.P,U3,D3,SWDIO*%
%TO.N,unconnected-(U3-SWDIO-PadD3)*%
X113034000Y-127802000D03*
D20*
%TO.N,unconnected-(U3-SWDIO-PadD3)_1*%
X113034000Y-128702000D03*
%TD*%
D21*
%TO.P,U2,1,OE*%
%TO.N,/PRD-*%
X137448500Y-122604000D03*
%TO.P,U2,2,D0*%
%TO.N,/BD0*%
X136178500Y-122604000D03*
%TO.P,U2,3,D1*%
%TO.N,/BD1*%
X134908500Y-122604000D03*
%TO.P,U2,4,D2*%
%TO.N,/BD2*%
X133638500Y-122604000D03*
%TO.P,U2,5,D3*%
%TO.N,/BD3*%
X132368500Y-122604000D03*
%TO.P,U2,6,D4*%
%TO.N,/BD4*%
X131098500Y-122604000D03*
%TO.P,U2,7,D5*%
%TO.N,/BD5*%
X129828500Y-122604000D03*
%TO.P,U2,8,D6*%
%TO.N,/BD6*%
X128558500Y-122604000D03*
%TO.P,U2,9,D7*%
%TO.N,/BD7*%
X127288500Y-122604000D03*
%TO.P,U2,10,GND*%
%TO.N,GND*%
X126018500Y-122604000D03*
%TO.P,U2,11,Cp*%
%TO.N,/DATA_LCH*%
X126018500Y-131904000D03*
%TO.P,U2,12,Q7*%
%TO.N,/PD7*%
X127288500Y-131904000D03*
%TO.P,U2,13,Q6*%
%TO.N,/PD6*%
X128558500Y-131904000D03*
%TO.P,U2,14,Q5*%
%TO.N,/PD5*%
X129828500Y-131904000D03*
%TO.P,U2,15,Q4*%
%TO.N,/PD4*%
X131098500Y-131904000D03*
%TO.P,U2,16,Q3*%
%TO.N,/PD3*%
X132368500Y-131904000D03*
%TO.P,U2,17,Q2*%
%TO.N,/PD2*%
X133638500Y-131904000D03*
%TO.P,U2,18,Q1*%
%TO.N,/PD1*%
X134908500Y-131904000D03*
%TO.P,U2,19,Q0*%
%TO.N,/PD0*%
X136178500Y-131904000D03*
%TO.P,U2,20,VCC*%
%TO.N,+3.3V*%
X137448500Y-131904000D03*
%TD*%
%TO.P,U1,1,OE*%
%TO.N,/PWR-*%
X137448500Y-108810000D03*
%TO.P,U1,2,D0*%
%TO.N,/PD0*%
X136178500Y-108810000D03*
%TO.P,U1,3,D1*%
%TO.N,/PD1*%
X134908500Y-108810000D03*
%TO.P,U1,4,D2*%
%TO.N,/PD2*%
X133638500Y-108810000D03*
%TO.P,U1,5,D3*%
%TO.N,/PD3*%
X132368500Y-108810000D03*
%TO.P,U1,6,D4*%
%TO.N,/PD4*%
X131098500Y-108810000D03*
%TO.P,U1,7,D5*%
%TO.N,/PD5*%
X129828500Y-108810000D03*
%TO.P,U1,8,D6*%
%TO.N,/PD6*%
X128558500Y-108810000D03*
%TO.P,U1,9,D7*%
%TO.N,/PD7*%
X127288500Y-108810000D03*
%TO.P,U1,10,GND*%
%TO.N,GND*%
X126018500Y-108810000D03*
%TO.P,U1,11,Cp*%
%TO.N,/DATA_LCH*%
X126018500Y-118110000D03*
%TO.P,U1,12,Q7*%
%TO.N,/BD7*%
X127288500Y-118110000D03*
%TO.P,U1,13,Q6*%
%TO.N,/BD6*%
X128558500Y-118110000D03*
%TO.P,U1,14,Q5*%
%TO.N,/BD5*%
X129828500Y-118110000D03*
%TO.P,U1,15,Q4*%
%TO.N,/BD4*%
X131098500Y-118110000D03*
%TO.P,U1,16,Q3*%
%TO.N,/BD3*%
X132368500Y-118110000D03*
%TO.P,U1,17,Q2*%
%TO.N,/BD2*%
X133638500Y-118110000D03*
%TO.P,U1,18,Q1*%
%TO.N,/BD1*%
X134908500Y-118110000D03*
%TO.P,U1,19,Q0*%
%TO.N,/BD0*%
X136178500Y-118110000D03*
%TO.P,U1,20,VCC*%
%TO.N,+5V*%
X137448500Y-118110000D03*
%TD*%
D22*
%TO.P,SD1,1,DAT2*%
%TO.N,unconnected-(SD1-DAT2-Pad1)*%
X84121000Y-93600000D03*
%TO.P,SD1,2,DAT3/CD*%
%TO.N,/CARD_CS-*%
X85221000Y-93600000D03*
%TO.P,SD1,3,CMD*%
%TO.N,/SPIMO*%
X86321000Y-93600000D03*
%TO.P,SD1,4,VDD*%
%TO.N,+3.3V*%
X87421000Y-93600000D03*
%TO.P,SD1,5,CLK*%
%TO.N,/SPICK*%
X88521000Y-93600000D03*
%TO.P,SD1,6,VSS*%
%TO.N,GND*%
X89621000Y-93600000D03*
%TO.P,SD1,7,DAT0*%
%TO.N,/SPIMI*%
X90721000Y-93600000D03*
%TO.P,SD1,8,DAT1*%
%TO.N,unconnected-(SD1-DAT1-Pad8)*%
X91821000Y-93600000D03*
%TO.P,SD1,9,DET*%
%TO.N,/SD_DET-*%
X92921000Y-93600000D03*
D23*
%TO.P,SD1,10,SHIELD*%
%TO.N,GND*%
X94301000Y-91600000D03*
X94301000Y-82600000D03*
X78151000Y-91600000D03*
X78151000Y-82600000D03*
%TD*%
D24*
%TO.P,RE1,A,A*%
%TO.N,/RE_A*%
X88225000Y-103875000D03*
D25*
%TO.P,RE1,B,B*%
%TO.N,/RE_B*%
X83225000Y-103875000D03*
%TO.P,RE1,C,C*%
%TO.N,GND*%
X85725000Y-103875000D03*
D26*
%TO.P,RE1,MP*%
%TO.N,N/C*%
X91325000Y-111375000D03*
X80125000Y-111375000D03*
D25*
%TO.P,RE1,S1,S1*%
%TO.N,GND*%
X83225000Y-118375000D03*
%TO.P,RE1,S2,S2*%
%TO.N,/RE_SW-*%
X88225000Y-118375000D03*
%TD*%
D27*
%TO.P,R7,1*%
%TO.N,+5VP*%
X169577000Y-104394000D03*
%TO.P,R7,2*%
%TO.N,Net-(LED3-A)*%
X171577000Y-104394000D03*
%TD*%
D28*
%TO.P,R6,1*%
%TO.N,+3.3V*%
X140734500Y-88900000D03*
%TO.P,R6,2*%
%TO.N,Net-(LED2-A)*%
X138734500Y-88900000D03*
%TD*%
%TO.P,R5,1*%
%TO.N,+3.3V*%
X129304500Y-88900000D03*
%TO.P,R5,2*%
%TO.N,/RESET-*%
X127304500Y-88900000D03*
%TD*%
D29*
%TO.P,R4,1*%
%TO.N,Net-(Q2-C)*%
X151545500Y-115824000D03*
%TO.P,R4,2*%
%TO.N,+5V*%
X151545500Y-113824000D03*
%TD*%
D30*
%TO.P,R3,1*%
%TO.N,/FPWR_ON*%
X151545500Y-119158000D03*
%TO.P,R3,2*%
%TO.N,Net-(Q2-B)*%
X151545500Y-121158000D03*
%TD*%
D27*
%TO.P,R2,1*%
%TO.N,Net-(Q1-E)*%
X169577000Y-91694000D03*
%TO.P,R2,2*%
%TO.N,Net-(LED1-A)*%
X171577000Y-91694000D03*
%TD*%
D29*
%TO.P,R1,1*%
%TO.N,/FPWR_ON*%
X151545500Y-110592000D03*
%TO.P,R1,2*%
%TO.N,Net-(Q1-B)*%
X151545500Y-108592000D03*
%TD*%
D31*
%TO.P,Q3,1,G*%
%TO.N,Net-(Q2-C)*%
X146023500Y-115609500D03*
%TO.P,Q3,2,S*%
%TO.N,+5VP*%
X147923500Y-115609500D03*
%TO.P,Q3,3,D*%
%TO.N,+5V*%
X146973500Y-113734500D03*
%TD*%
%TO.P,Q2,1,B*%
%TO.N,Net-(Q2-B)*%
X145007500Y-121197500D03*
%TO.P,Q2,2,E*%
%TO.N,GND*%
X146907500Y-121197500D03*
%TO.P,Q2,3,C*%
%TO.N,Net-(Q2-C)*%
X145957500Y-119322500D03*
%TD*%
D32*
%TO.P,Q1,1,B*%
%TO.N,Net-(Q1-B)*%
X147923500Y-108654500D03*
%TO.P,Q1,2,E*%
%TO.N,Net-(Q1-E)*%
X146023500Y-108654500D03*
%TO.P,Q1,3,C*%
%TO.N,+5V*%
X146973500Y-110529500D03*
%TD*%
D33*
%TO.P,LED3,1,K*%
%TO.N,GND*%
X170815000Y-107950000D03*
D34*
%TO.P,LED3,2,A*%
%TO.N,Net-(LED3-A)*%
X170815000Y-110490000D03*
%TD*%
D33*
%TO.P,LED2,1,K*%
%TO.N,GND*%
X139700000Y-81026000D03*
D34*
%TO.P,LED2,2,A*%
%TO.N,Net-(LED2-A)*%
X139700000Y-83566000D03*
%TD*%
D33*
%TO.P,LED1,1,K*%
%TO.N,GND*%
X170815000Y-95250000D03*
D34*
%TO.P,LED1,2,A*%
%TO.N,Net-(LED1-A)*%
X170815000Y-97790000D03*
%TD*%
D11*
%TO.P,J3,1,Pin_1*%
%TO.N,GND*%
X149992000Y-81915000D03*
D12*
%TO.P,J3,2,Pin_2*%
%TO.N,+3.3V*%
X147452000Y-81915000D03*
%TD*%
D11*
%TO.P,J2,1,Pin_1*%
%TO.N,GND*%
X88519000Y-98171000D03*
D12*
%TO.P,J2,2,Pin_2*%
%TO.N,/RE_B*%
X91059000Y-98171000D03*
%TO.P,J2,3,Pin_3*%
%TO.N,/RE_A*%
X93599000Y-98171000D03*
%TD*%
D11*
%TO.P,J1,1,Pin_1*%
%TO.N,GND*%
X138083500Y-94488000D03*
D12*
%TO.P,J1,2,Pin_2*%
%TO.N,+3.3V*%
X140623500Y-94488000D03*
%TO.P,J1,3,Pin_3*%
%TO.N,/SPICK*%
X143163500Y-94488000D03*
%TO.P,J1,4,Pin_4*%
%TO.N,/SPIMO*%
X145703500Y-94488000D03*
%TO.P,J1,5,Pin_5*%
%TO.N,/DISPRST-*%
X148243500Y-94488000D03*
%TO.P,J1,6,Pin_6*%
%TO.N,/DISP_CD*%
X150783500Y-94488000D03*
%TO.P,J1,7,Pin_7*%
%TO.N,/DISP_CS-*%
X153323500Y-94488000D03*
%TD*%
D35*
%TO.P,C9,1*%
%TO.N,GND*%
X154847500Y-87683000D03*
%TO.P,C9,2*%
%TO.N,+5V*%
X154847500Y-89408000D03*
%TD*%
%TO.P,C8,1*%
%TO.N,GND*%
X154847500Y-98451500D03*
%TO.P,C8,2*%
%TO.N,+5V*%
X154847500Y-100176500D03*
%TD*%
%TO.P,C7,1*%
%TO.N,GND*%
X154847500Y-109627500D03*
%TO.P,C7,2*%
%TO.N,+5V*%
X154847500Y-111352500D03*
%TD*%
%TO.P,C6,1*%
%TO.N,GND*%
X154847500Y-120549500D03*
%TO.P,C6,2*%
%TO.N,+5V*%
X154847500Y-122274500D03*
%TD*%
%TO.P,C5,1*%
%TO.N,GND*%
X154847500Y-131371000D03*
%TO.P,C5,2*%
%TO.N,+5V*%
X154847500Y-133096000D03*
%TD*%
%TO.P,C4,1*%
%TO.N,/RESET-*%
X134366000Y-81333000D03*
%TO.P,C4,2*%
%TO.N,GND*%
X134366000Y-83058000D03*
%TD*%
%TO.P,C3,1*%
%TO.N,GND*%
X139607500Y-124867500D03*
%TO.P,C3,2*%
%TO.N,+3.3V*%
X139607500Y-126592500D03*
%TD*%
%TO.P,C2,1*%
%TO.N,GND*%
X139607500Y-111051000D03*
%TO.P,C2,2*%
%TO.N,+5V*%
X139607500Y-112776000D03*
%TD*%
D36*
%TO.P,C1,1*%
%TO.N,/RE_SW-*%
X86587500Y-120900000D03*
%TO.P,C1,2*%
%TO.N,GND*%
X84862500Y-120900000D03*
%TD*%
D37*
%TO.N,GND*%
X165354000Y-106426000D03*
%TO.N,+3.3V*%
X138938000Y-132588000D03*
%TO.N,+5V*%
X153416000Y-100330000D03*
%TO.N,+3.3V*%
X138430000Y-126746000D03*
X87884000Y-95250000D03*
%TO.N,GND*%
X153162000Y-87630000D03*
%TO.N,+5V*%
X153162000Y-89408000D03*
X152146000Y-131826000D03*
X155955000Y-121412000D03*
X155702000Y-112268000D03*
X151638000Y-112522000D03*
X139192000Y-118618000D03*
X132080000Y-98806000D03*
D38*
%TO.N,/FPWR_ON*%
X148717000Y-111379000D03*
D37*
%TO.N,+5V*%
X140970000Y-112014000D03*
%TO.N,+5VP*%
X175260000Y-87376000D03*
%TO.N,GND*%
X173228000Y-87376000D03*
%TO.N,+5VP*%
X169164000Y-105918000D03*
X149352000Y-112776000D03*
%TO.N,GND*%
X126492000Y-124460000D03*
X139700000Y-123190000D03*
X148336000Y-121691400D03*
X153670000Y-120650000D03*
X153670000Y-131371000D03*
X165862000Y-129032000D03*
X165862000Y-124460000D03*
X165354000Y-112776000D03*
X165354000Y-117348000D03*
X165354000Y-101092000D03*
X165608000Y-90678000D03*
X166370000Y-84238100D03*
X166370000Y-80518000D03*
X153416000Y-98552000D03*
X153670000Y-109474000D03*
X144272000Y-104140000D03*
X138430000Y-101854000D03*
X139446000Y-108712000D03*
X124206000Y-108458000D03*
X96520000Y-81026000D03*
D38*
%TO.N,/PD5*%
X103835200Y-106172000D03*
%TO.N,/PD4*%
X129184400Y-128574800D03*
X129743200Y-127000000D03*
%TO.N,/PD7*%
X108356400Y-109880400D03*
X127457200Y-110439200D03*
X153771600Y-112369600D03*
%TO.N,/PD2*%
X136245600Y-129032000D03*
X136245600Y-126949200D03*
%TO.N,/PD3*%
X131759552Y-129489200D03*
X131775200Y-125984000D03*
%TO.N,/PWR-*%
X138582400Y-115722400D03*
%TO.N,/PD0*%
X142697200Y-130289300D03*
X142697200Y-127203200D03*
%TO.N,/PD3*%
X132384800Y-102616000D03*
%TO.N,/PD0*%
X136194800Y-111201200D03*
X127863600Y-111201200D03*
%TO.N,/PD1*%
X135514300Y-112928400D03*
X126703433Y-112936633D03*
%TO.N,/PD2*%
X132994400Y-116179600D03*
X124764800Y-116179600D03*
%TO.N,/PD3*%
X124409200Y-129641600D03*
X129743200Y-129641600D03*
%TO.N,/PRD-*%
X137414000Y-120294400D03*
%TO.N,/PD7*%
X127304800Y-128384300D03*
%TO.N,/PD4*%
X129193500Y-130561539D03*
X118173500Y-130492500D03*
%TO.N,/PD6*%
X124460000Y-127762000D03*
X128270000Y-127762000D03*
%TO.N,/FPWR_ON*%
X108813600Y-108102400D03*
%TO.N,/BD2*%
X134366000Y-129667000D03*
%TO.N,/SPIMO*%
X145669000Y-90551000D03*
%TO.N,/SPICK*%
X143129000Y-88265000D03*
%TO.N,/A0*%
X131114800Y-102489000D03*
X136436100Y-101650800D03*
%TO.N,/A1*%
X135178800Y-100990400D03*
X132740400Y-101104700D03*
%TO.N,/RESET-*%
X126238000Y-91173300D03*
%TO.N,/ADL_LD-*%
X140868400Y-116078000D03*
X153797000Y-116078000D03*
%TO.N,/PD6*%
X128524000Y-114554000D03*
X153797000Y-114808000D03*
%TO.N,/PD4*%
X131098500Y-106807000D03*
X147462621Y-106819700D03*
X160197706Y-105969176D03*
%TO.N,/DISP_CS-*%
X131064000Y-91948000D03*
%TO.N,/DISPRST-*%
X148209000Y-97028000D03*
X141478000Y-97028000D03*
%TO.N,/DISP_CD*%
X150749000Y-97663000D03*
X142748000Y-97663000D03*
%TO.N,/PD2*%
X152273000Y-129032000D03*
%TO.N,/PD1*%
X134874000Y-130556000D03*
X134874000Y-124333000D03*
%TO.N,/ADM_LD-*%
X137731500Y-96456500D03*
X153797000Y-96393000D03*
%TO.N,/ADL_LD-*%
X157088585Y-127139700D03*
X157099000Y-116078000D03*
%TO.N,/PD0*%
X161718600Y-110236000D03*
X161036000Y-132207000D03*
%TO.N,/PD3*%
X156337000Y-124587000D03*
X156959300Y-102616000D03*
%TO.N,/PD4*%
X160909000Y-121158000D03*
X160147000Y-99060000D03*
%TO.N,/ADM_LD-*%
X160401000Y-105156000D03*
X161036000Y-95885000D03*
%TO.N,/PD6*%
X161718600Y-114808000D03*
X161417000Y-105918000D03*
X161683700Y-101219000D03*
X161671000Y-92718900D03*
%TO.N,/PD7*%
X156718000Y-113538000D03*
X156718000Y-91440000D03*
%TO.N,/PD5*%
X129828500Y-106172000D03*
X146685000Y-103313793D03*
X161276300Y-103124000D03*
%TO.N,/PD0*%
X155956000Y-110236000D03*
X155194000Y-91440000D03*
%TO.N,/PD1*%
X167132000Y-122428000D03*
X167132000Y-124333000D03*
X167132000Y-132334000D03*
%TO.N,/PD5*%
X165862000Y-122428000D03*
X166370000Y-103124000D03*
%TO.N,/PD1*%
X167132000Y-111506000D03*
X167132000Y-99682300D03*
X167132000Y-102743000D03*
X167132000Y-89408000D03*
%TO.N,/PD2*%
X154559000Y-125857000D03*
X154559000Y-103881126D03*
X150749000Y-90932000D03*
%TO.N,/PD3*%
X147208621Y-102635526D03*
X146812000Y-100215700D03*
%TO.N,/BD0*%
X136178500Y-121031000D03*
X153670000Y-121793000D03*
X172974000Y-119380000D03*
%TO.N,/BD1*%
X171958000Y-121920000D03*
X134892000Y-121031000D03*
X153670000Y-124968000D03*
%TO.N,/BD2*%
X133604000Y-124333000D03*
X162179000Y-132834300D03*
%TO.N,/F_SEL-*%
X140242500Y-100990400D03*
X146685000Y-101981000D03*
X183388000Y-100330000D03*
X161276300Y-102010144D03*
%TO.N,/BD7*%
X127288500Y-121031000D03*
X133004152Y-127762000D03*
X154559000Y-127762000D03*
X139954000Y-127762000D03*
X162341994Y-127721644D03*
%TO.N,/BD5*%
X129794000Y-124460000D03*
%TO.N,/BD4*%
X131098500Y-124460000D03*
%TO.N,/PRD-*%
X137414000Y-126111000D03*
X175271700Y-115563464D03*
%TO.N,/ACLK*%
X143002000Y-107569000D03*
X146939000Y-107569000D03*
X160147000Y-130937000D03*
X160147000Y-119888000D03*
X160147000Y-108966000D03*
X160147000Y-97790000D03*
X160147000Y-86868000D03*
%TO.N,Net-(U8-~{RC})*%
X162306000Y-85598000D03*
X162306000Y-93345000D03*
%TO.N,/BA11*%
X193040000Y-102870000D03*
%TO.N,/BA15*%
X168275000Y-92718900D03*
%TO.N,/BA14*%
X168529000Y-93980000D03*
%TO.N,/BA11*%
X168407079Y-103876917D03*
%TO.N,/BA10*%
X168402000Y-105156000D03*
%TO.N,/BA8*%
X169037000Y-108966000D03*
%TO.N,/BA9*%
X169037000Y-110109000D03*
%TO.N,/BA4*%
X178562000Y-106680000D03*
%TO.N,/BA0*%
X176530000Y-116967000D03*
%TO.N,/BD3*%
X132358400Y-124460000D03*
X182499000Y-128778000D03*
%TO.N,Net-(U3-GPIO22)*%
X85598000Y-125650000D03*
%TO.N,/CARD_CS-*%
X85217000Y-96139000D03*
%TO.N,/SPIMI*%
X90721000Y-92202000D03*
%TO.N,/SPIMO*%
X86360000Y-89662000D03*
%TO.N,/SPICK*%
X88519000Y-87122000D03*
%TD*%
D39*
%TO.N,GND*%
X163672500Y-106426000D02*
X165354000Y-106426000D01*
%TO.N,+3.3V*%
X138254000Y-131904000D02*
X138938000Y-132588000D01*
X137448500Y-131904000D02*
X138254000Y-131904000D01*
%TO.N,+5V*%
X153569500Y-100176500D02*
X153416000Y-100330000D01*
X154847500Y-100176500D02*
X153569500Y-100176500D01*
X158722500Y-100330000D02*
X155001000Y-100330000D01*
%TO.N,+3.3V*%
X138583500Y-126592500D02*
X138430000Y-126746000D01*
X139607500Y-126592500D02*
X138583500Y-126592500D01*
X123695800Y-91999800D02*
X121358000Y-89662000D01*
X126795719Y-91999800D02*
X123695800Y-91999800D01*
X129304500Y-88900000D02*
X129304500Y-89491019D01*
X129304500Y-89491019D02*
X126795719Y-91999800D01*
D40*
%TO.N,/DISP_CS-*%
X104267000Y-99822000D02*
X101600000Y-99822000D01*
X110502800Y-93586200D02*
X104267000Y-99822000D01*
X129425800Y-93586200D02*
X110502800Y-93586200D01*
X131064000Y-91948000D02*
X129425800Y-93586200D01*
%TO.N,/RESET-*%
X127177500Y-90754500D02*
X127177500Y-89027000D01*
X126238000Y-91173300D02*
X126758700Y-91173300D01*
X126758700Y-91173300D02*
X127177500Y-90754500D01*
D39*
%TO.N,+3.3V*%
X140734500Y-88900000D02*
X140734500Y-94377000D01*
X129304500Y-88900000D02*
X135035500Y-88900000D01*
X135035500Y-88900000D02*
X140623500Y-94488000D01*
%TO.N,GND*%
X88900000Y-128778000D02*
X94234000Y-128778000D01*
X83100000Y-128850000D02*
X88350000Y-128850000D01*
X84862500Y-120012500D02*
X83225000Y-118375000D01*
X84862500Y-120900000D02*
X84862500Y-120012500D01*
%TO.N,+3.3V*%
X87421000Y-94787000D02*
X87884000Y-95250000D01*
X87421000Y-93600000D02*
X87421000Y-94787000D01*
X140734500Y-88632500D02*
X147452000Y-81915000D01*
%TO.N,GND*%
X153215000Y-87683000D02*
X153162000Y-87630000D01*
X154847500Y-87683000D02*
X153215000Y-87683000D01*
%TO.N,+5V*%
X154847500Y-89408000D02*
X153162000Y-89408000D01*
X158722500Y-89408000D02*
X154847500Y-89408000D01*
D40*
%TO.N,/PD0*%
X159766000Y-88138000D02*
X158722500Y-88138000D01*
X160054100Y-88426100D02*
X159766000Y-88138000D01*
X160054100Y-89771998D02*
X160054100Y-88426100D01*
X156210000Y-90424000D02*
X159402098Y-90424000D01*
X159402098Y-90424000D02*
X160054100Y-89771998D01*
X155194000Y-91440000D02*
X156210000Y-90424000D01*
D39*
%TO.N,+5V*%
X153416000Y-133096000D02*
X152146000Y-131826000D01*
X154847500Y-133096000D02*
X153416000Y-133096000D01*
%TO.N,GND*%
X153670000Y-131371000D02*
X154847500Y-131371000D01*
%TO.N,+5V*%
X155228500Y-133477000D02*
X154847500Y-133096000D01*
X158722500Y-133477000D02*
X155228500Y-133477000D01*
X155092500Y-122274500D02*
X155955000Y-121412000D01*
X154847500Y-122274500D02*
X155092500Y-122274500D01*
X158722500Y-122428000D02*
X155001000Y-122428000D01*
X156464000Y-111506000D02*
X155702000Y-112268000D01*
X158722500Y-111506000D02*
X156464000Y-111506000D01*
X154847500Y-111413500D02*
X155702000Y-112268000D01*
X151545500Y-112614500D02*
X151638000Y-112522000D01*
X151545500Y-113824000D02*
X151545500Y-112614500D01*
X138684000Y-118110000D02*
X139192000Y-118618000D01*
X137448500Y-118110000D02*
X138684000Y-118110000D01*
X132464000Y-99190000D02*
X132080000Y-98806000D01*
X133892500Y-99190000D02*
X132464000Y-99190000D01*
X140591500Y-111635500D02*
X140970000Y-112014000D01*
X140242500Y-104140000D02*
X140591500Y-104489000D01*
X140591500Y-104489000D02*
X140591500Y-111635500D01*
D40*
%TO.N,/ADL_LD-*%
X140716000Y-116078000D02*
X140868400Y-116078000D01*
X138684000Y-114046000D02*
X140716000Y-116078000D01*
X138684000Y-105918000D02*
X138684000Y-114046000D01*
X137038300Y-105542300D02*
X137210800Y-105714800D01*
X137038300Y-101930080D02*
X137038300Y-105542300D01*
X137058400Y-101909980D02*
X137038300Y-101930080D01*
X137058400Y-101371400D02*
X137058400Y-101909980D01*
X137210800Y-105714800D02*
X138480800Y-105714800D01*
X136398000Y-100711000D02*
X137058400Y-101371400D01*
X136398000Y-99224500D02*
X136398000Y-100711000D01*
X138480800Y-105714800D02*
X138684000Y-105918000D01*
D39*
%TO.N,+5V*%
X140970000Y-112014000D02*
X140208000Y-112776000D01*
X140208000Y-112776000D02*
X139607500Y-112776000D01*
X140970000Y-112014000D02*
X146973500Y-112014000D01*
X146973500Y-112014000D02*
X146973500Y-113734500D01*
D40*
%TO.N,/PWR-*%
X137668000Y-114808000D02*
X138582400Y-115722400D01*
X137668000Y-109029500D02*
X137668000Y-114808000D01*
X137448500Y-108810000D02*
X137668000Y-109029500D01*
D39*
%TO.N,+5V*%
X146973500Y-110529500D02*
X146973500Y-112014000D01*
D40*
%TO.N,/FPWR_ON*%
X148717000Y-111379000D02*
X149504000Y-110592000D01*
X149504000Y-110592000D02*
X151545500Y-110592000D01*
%TO.N,/ACLK*%
X141478000Y-106045000D02*
X141478000Y-104174500D01*
X143002000Y-107569000D02*
X141478000Y-106045000D01*
D39*
%TO.N,+5VP*%
X175106500Y-87529500D02*
X175260000Y-87376000D01*
X175106500Y-88900000D02*
X175106500Y-87529500D01*
%TO.N,GND*%
X173381500Y-87529500D02*
X173228000Y-87376000D01*
X173381500Y-88900000D02*
X173381500Y-87529500D01*
D40*
%TO.N,/BA16*%
X165862000Y-86360000D02*
X176530000Y-86360000D01*
X165354000Y-86868000D02*
X165862000Y-86360000D01*
X176530000Y-86360000D02*
X181610000Y-91440000D01*
X163672500Y-86868000D02*
X165354000Y-86868000D01*
D39*
%TO.N,+5VP*%
X169577000Y-105505000D02*
X169577000Y-104394000D01*
X169164000Y-105918000D02*
X169577000Y-105505000D01*
X147923500Y-114204500D02*
X149352000Y-112776000D01*
X147923500Y-115609500D02*
X147923500Y-114204500D01*
%TO.N,GND*%
X120066000Y-83896000D02*
X119380000Y-84582000D01*
X126915000Y-83896000D02*
X120066000Y-83896000D01*
X136906000Y-81026000D02*
X139700000Y-81026000D01*
X134874000Y-83058000D02*
X136906000Y-81026000D01*
X134366000Y-83058000D02*
X134874000Y-83058000D01*
X133528000Y-83896000D02*
X134366000Y-83058000D01*
X132165000Y-83896000D02*
X133528000Y-83896000D01*
X126018500Y-123986500D02*
X126492000Y-124460000D01*
X126018500Y-122604000D02*
X126018500Y-123986500D01*
X139607500Y-123282500D02*
X139700000Y-123190000D01*
X139607500Y-124867500D02*
X139607500Y-123282500D01*
X147842100Y-121197500D02*
X148336000Y-121691400D01*
X146907500Y-121197500D02*
X147842100Y-121197500D01*
X153770500Y-120549500D02*
X153670000Y-120650000D01*
X154847500Y-120549500D02*
X153770500Y-120549500D01*
D40*
%TO.N,Net-(U5-~{RC})*%
X157480000Y-129667000D02*
X158722500Y-129667000D01*
X152908000Y-119634000D02*
X152908000Y-128016000D01*
X153543000Y-128651000D02*
X156464000Y-128651000D01*
X156464000Y-128651000D02*
X157480000Y-129667000D01*
X153259800Y-119282200D02*
X152908000Y-119634000D01*
X159740456Y-119282200D02*
X153259800Y-119282200D01*
X160404656Y-118618000D02*
X159740456Y-119282200D01*
X152908000Y-128016000D02*
X153543000Y-128651000D01*
X163672500Y-118618000D02*
X160404656Y-118618000D01*
D39*
%TO.N,GND*%
X165227000Y-129667000D02*
X165862000Y-129032000D01*
X163672500Y-129667000D02*
X165227000Y-129667000D01*
X165227000Y-128397000D02*
X165862000Y-129032000D01*
X163672500Y-128397000D02*
X165227000Y-128397000D01*
X165735000Y-124587000D02*
X165862000Y-124460000D01*
X163672500Y-124587000D02*
X165735000Y-124587000D01*
X164592000Y-113538000D02*
X165354000Y-112776000D01*
X163672500Y-113538000D02*
X164592000Y-113538000D01*
X163672500Y-117348000D02*
X165354000Y-117348000D01*
X163830000Y-102616000D02*
X165354000Y-101092000D01*
D40*
%TO.N,/PD5*%
X165862000Y-100330000D02*
X163672500Y-100330000D01*
X166370000Y-100838000D02*
X165862000Y-100330000D01*
X166370000Y-103124000D02*
X166370000Y-100838000D01*
D39*
%TO.N,GND*%
X164846000Y-91440000D02*
X165608000Y-90678000D01*
X163672500Y-91440000D02*
X164846000Y-91440000D01*
X166280100Y-84328000D02*
X166370000Y-84238100D01*
X163672500Y-84328000D02*
X166280100Y-84328000D01*
D40*
%TO.N,/BA18*%
X168656000Y-83058000D02*
X163672500Y-83058000D01*
X170434000Y-84836000D02*
X168656000Y-83058000D01*
X181483000Y-88900000D02*
X177419000Y-84836000D01*
X177419000Y-84836000D02*
X170434000Y-84836000D01*
D39*
%TO.N,GND*%
X163672500Y-80518000D02*
X166370000Y-80518000D01*
X163672500Y-95250000D02*
X170815000Y-95250000D01*
X153516500Y-98451500D02*
X153416000Y-98552000D01*
X154847500Y-98451500D02*
X153516500Y-98451500D01*
X153823500Y-109627500D02*
X153670000Y-109474000D01*
X154847500Y-109627500D02*
X153823500Y-109627500D01*
X142782500Y-104140000D02*
X144272000Y-104140000D01*
X137702500Y-102581500D02*
X138430000Y-101854000D01*
X137702500Y-104140000D02*
X137702500Y-102581500D01*
X138972500Y-102396500D02*
X138430000Y-101854000D01*
X138972500Y-104140000D02*
X138972500Y-102396500D01*
X139607500Y-108873500D02*
X139446000Y-108712000D01*
X139607500Y-111051000D02*
X139607500Y-108873500D01*
X124558000Y-108810000D02*
X124206000Y-108458000D01*
X126018500Y-108810000D02*
X124558000Y-108810000D01*
X94946000Y-82600000D02*
X96520000Y-81026000D01*
X94301000Y-82600000D02*
X94946000Y-82600000D01*
X89621000Y-93600000D02*
X89621000Y-92133152D01*
X89621000Y-92133152D02*
X90378652Y-91375500D01*
X90378652Y-91375500D02*
X94076500Y-91375500D01*
X78151000Y-91600000D02*
X78151000Y-82600000D01*
X94301000Y-91600000D02*
X94301000Y-82600000D01*
X93741000Y-83160000D02*
X78711000Y-83160000D01*
X78711000Y-83160000D02*
X78151000Y-82600000D01*
X94301000Y-82600000D02*
X93741000Y-83160000D01*
D40*
%TO.N,/PD6*%
X127914400Y-115163600D02*
X127914400Y-127406400D01*
X127914400Y-127406400D02*
X128270000Y-127762000D01*
X128524000Y-114554000D02*
X127914400Y-115163600D01*
%TO.N,/PD5*%
X129828500Y-106172000D02*
X103835200Y-106172000D01*
%TO.N,/PD4*%
X129119900Y-130487939D02*
X129193500Y-130561539D01*
X129184400Y-128574800D02*
X129119900Y-128639300D01*
X130475200Y-126268000D02*
X129743200Y-127000000D01*
X130475200Y-109433300D02*
X130475200Y-126268000D01*
X131098500Y-108810000D02*
X130475200Y-109433300D01*
X129119900Y-128639300D02*
X129119900Y-130487939D01*
%TO.N,/PD7*%
X109461400Y-108775400D02*
X108356400Y-109880400D01*
X124050400Y-110439200D02*
X122386600Y-108775400D01*
X122386600Y-108775400D02*
X109461400Y-108775400D01*
X127457200Y-110439200D02*
X124050400Y-110439200D01*
X127457200Y-110439200D02*
X127457200Y-108978700D01*
X156565600Y-113690400D02*
X155092400Y-113690400D01*
X156718000Y-113538000D02*
X156565600Y-113690400D01*
X155092400Y-113690400D02*
X153771600Y-112369600D01*
%TO.N,/PD2*%
X136245600Y-129032000D02*
X152273000Y-129032000D01*
X134244300Y-124947900D02*
X136245600Y-126949200D01*
X134244300Y-117042044D02*
X134244300Y-124947900D01*
X133381856Y-116179600D02*
X134244300Y-117042044D01*
X132994400Y-116179600D02*
X133381856Y-116179600D01*
X133731000Y-129032000D02*
X136245600Y-129032000D01*
X133638500Y-129124500D02*
X133731000Y-129032000D01*
X133638500Y-131904000D02*
X133638500Y-129124500D01*
%TO.N,/PD3*%
X131735100Y-125943900D02*
X131775200Y-125984000D01*
X131735100Y-109443400D02*
X131735100Y-125943900D01*
X132368500Y-108810000D02*
X131735100Y-109443400D01*
%TO.N,/PD0*%
X137109200Y-112115600D02*
X136194800Y-111201200D01*
X140258800Y-116535200D02*
X138176000Y-116535200D01*
X141122400Y-117398800D02*
X140258800Y-116535200D01*
X141376400Y-127203200D02*
X141122400Y-126949200D01*
X138176000Y-116535200D02*
X137109200Y-115468400D01*
X142697200Y-127203200D02*
X141376400Y-127203200D01*
X141122400Y-126949200D02*
X141122400Y-117398800D01*
X137109200Y-115468400D02*
X137109200Y-112115600D01*
%TO.N,/PD3*%
X132368500Y-102632300D02*
X132384800Y-102616000D01*
X132368500Y-108810000D02*
X132368500Y-102632300D01*
%TO.N,/A0*%
X136436100Y-101650800D02*
X136432500Y-101654400D01*
X136432500Y-101654400D02*
X136432500Y-104140000D01*
X131114800Y-102489000D02*
X127127000Y-102489000D01*
X127000000Y-102362000D02*
X119380000Y-102362000D01*
X127127000Y-102489000D02*
X127000000Y-102362000D01*
%TO.N,/ADH_LD-*%
X138972500Y-101142800D02*
X138972500Y-99190000D01*
X139443400Y-101613700D02*
X138972500Y-101142800D01*
X144131300Y-101613700D02*
X139443400Y-101613700D01*
X144907000Y-100838000D02*
X144131300Y-101613700D01*
X149479000Y-93083480D02*
X149479000Y-100457000D01*
X149479000Y-100457000D02*
X149098000Y-100838000D01*
X151372300Y-91190180D02*
X149479000Y-93083480D01*
X149098000Y-100838000D02*
X144907000Y-100838000D01*
X151372300Y-85609700D02*
X151372300Y-91190180D01*
X158722500Y-83058000D02*
X153924000Y-83058000D01*
X153924000Y-83058000D02*
X151372300Y-85609700D01*
%TO.N,/F_SEL-*%
X140242500Y-100990400D02*
X140242500Y-99190000D01*
%TO.N,/A1*%
X135162500Y-101380500D02*
X135162500Y-104140000D01*
X135178800Y-100990400D02*
X135178800Y-101364200D01*
X135178800Y-101364200D02*
X135162500Y-101380500D01*
X129598850Y-99822000D02*
X119380000Y-99822000D01*
X130868850Y-101092000D02*
X129598850Y-99822000D01*
X132727700Y-101092000D02*
X130868850Y-101092000D01*
X132740400Y-101104700D02*
X132727700Y-101092000D01*
%TO.N,/A2*%
X133528502Y-100521600D02*
X133592400Y-100521600D01*
X133489302Y-100482400D02*
X133528502Y-100521600D01*
X130835400Y-100482400D02*
X133489302Y-100482400D01*
X130175000Y-95377000D02*
X130175000Y-99822000D01*
X133892500Y-100821700D02*
X133892500Y-104140000D01*
X129540000Y-94742000D02*
X130175000Y-95377000D01*
X130175000Y-99822000D02*
X130835400Y-100482400D01*
X119380000Y-94742000D02*
X129540000Y-94742000D01*
X133592400Y-100521600D02*
X133892500Y-100821700D01*
%TO.N,/PD6*%
X128558500Y-114519500D02*
X128558500Y-108810000D01*
X128524000Y-114554000D02*
X128558500Y-114519500D01*
%TO.N,/PD1*%
X102755800Y-113906200D02*
X101600000Y-115062000D01*
X125733866Y-113906200D02*
X102755800Y-113906200D01*
X126703433Y-112936633D02*
X125733866Y-113906200D01*
%TO.N,/PD0*%
X136178500Y-110727700D02*
X136178500Y-108810000D01*
X136194800Y-110744000D02*
X136178500Y-110727700D01*
X136194800Y-111201200D02*
X136194800Y-110744000D01*
X102920800Y-111201200D02*
X127863600Y-111201200D01*
X101600000Y-112522000D02*
X102920800Y-111201200D01*
%TO.N,/PD1*%
X135514300Y-123692700D02*
X135514300Y-112928400D01*
%TO.N,/PD2*%
X133638500Y-115535500D02*
X133638500Y-108810000D01*
X132994400Y-116179600D02*
X133638500Y-115535500D01*
X124498200Y-116446200D02*
X124764800Y-116179600D01*
X102755800Y-116446200D02*
X124498200Y-116446200D01*
X101600000Y-117602000D02*
X102755800Y-116446200D01*
%TO.N,/PD3*%
X132368500Y-130031700D02*
X132368500Y-131904000D01*
X131826000Y-129489200D02*
X132368500Y-130031700D01*
X129743200Y-129641600D02*
X129895600Y-129489200D01*
X129895600Y-129489200D02*
X131826000Y-129489200D01*
X118262400Y-129641600D02*
X124409200Y-129641600D01*
X108762800Y-120142000D02*
X118262400Y-129641600D01*
X101600000Y-120142000D02*
X108762800Y-120142000D01*
%TO.N,/PD4*%
X118173500Y-130492500D02*
X112903000Y-125222000D01*
X112903000Y-125222000D02*
X101600000Y-125222000D01*
X130911600Y-130403600D02*
X131098500Y-130590500D01*
X129351439Y-130403600D02*
X130911600Y-130403600D01*
X129193500Y-130561539D02*
X129351439Y-130403600D01*
X131098500Y-130590500D02*
X131098500Y-131904000D01*
%TO.N,/PD7*%
X127288500Y-128939500D02*
X127288500Y-131904000D01*
X127304800Y-128384300D02*
X127304800Y-128923200D01*
X127304800Y-128923200D02*
X127288500Y-128939500D01*
%TO.N,/FPWR_ON*%
X108153200Y-107442000D02*
X101600000Y-107442000D01*
X108813600Y-108102400D02*
X108153200Y-107442000D01*
%TO.N,/PRD-*%
X137414000Y-120294400D02*
X137414000Y-122569500D01*
%TO.N,/BD7*%
X127288500Y-120107500D02*
X127288500Y-118110000D01*
X127254000Y-120142000D02*
X127288500Y-120107500D01*
X127254000Y-120996500D02*
X127254000Y-120142000D01*
X127288500Y-121031000D02*
X127288500Y-122604000D01*
X127288500Y-121031000D02*
X127254000Y-120996500D01*
%TO.N,/BD0*%
X136178500Y-121031000D02*
X136178500Y-118110000D01*
X136178500Y-121031000D02*
X136178500Y-122604000D01*
%TO.N,/BD1*%
X134874000Y-121013000D02*
X134874000Y-118144500D01*
X134892000Y-121031000D02*
X134874000Y-121013000D01*
X134892000Y-121031000D02*
X134908500Y-121047500D01*
X134908500Y-121047500D02*
X134908500Y-122604000D01*
%TO.N,/BD6*%
X128558500Y-126907500D02*
X128558500Y-122604000D01*
X130048000Y-128397000D02*
X128558500Y-126907500D01*
X152712849Y-128397000D02*
X130048000Y-128397000D01*
X153374250Y-129058400D02*
X152712849Y-128397000D01*
X156236400Y-129058400D02*
X153374250Y-129058400D01*
X157480000Y-130302000D02*
X156236400Y-129058400D01*
X161544000Y-130302000D02*
X157480000Y-130302000D01*
X168228980Y-130331200D02*
X161573200Y-130331200D01*
X175906700Y-122653480D02*
X168228980Y-130331200D01*
X161573200Y-130331200D02*
X161544000Y-130302000D01*
X190744200Y-113274200D02*
X179341320Y-113274200D01*
X175906700Y-116708820D02*
X175906700Y-122653480D01*
X196850000Y-119380000D02*
X190744200Y-113274200D01*
X179341320Y-113274200D02*
X175906700Y-116708820D01*
%TO.N,/PD6*%
X128270000Y-131615500D02*
X128558500Y-131904000D01*
X128270000Y-127762000D02*
X128270000Y-131615500D01*
X119380000Y-127762000D02*
X124460000Y-127762000D01*
%TO.N,/PD5*%
X129828500Y-133569500D02*
X129828500Y-131904000D01*
X129159000Y-134239000D02*
X129828500Y-133569500D01*
X108077000Y-134239000D02*
X129159000Y-134239000D01*
X101600000Y-127762000D02*
X108077000Y-134239000D01*
%TO.N,/BD2*%
X155805600Y-129667000D02*
X134366000Y-129667000D01*
X155817300Y-129655300D02*
X155805600Y-129667000D01*
X157722300Y-131560300D02*
X161532300Y-131560300D01*
X155817300Y-129655300D02*
X157722300Y-131560300D01*
X161532300Y-131560300D02*
X162179000Y-132207000D01*
X162179000Y-132207000D02*
X162179000Y-132834300D01*
%TO.N,/PD1*%
X134874000Y-130556000D02*
X134874000Y-131869500D01*
X135514300Y-109415800D02*
X134908500Y-108810000D01*
X135514300Y-112928400D02*
X135514300Y-109415800D01*
X134874000Y-124333000D02*
X135514300Y-123692700D01*
%TO.N,/BD7*%
X133004152Y-127762000D02*
X139954000Y-127762000D01*
%TO.N,/BD3*%
X132358400Y-124460000D02*
X132368500Y-124449900D01*
X132368500Y-124449900D02*
X132368500Y-122604000D01*
%TO.N,/BD4*%
X131098500Y-124460000D02*
X131098500Y-122604000D01*
%TO.N,/DATA_LCH*%
X125603000Y-115062000D02*
X119380000Y-115062000D01*
X126018500Y-118110000D02*
X126018500Y-115477500D01*
X126018500Y-115477500D02*
X125603000Y-115062000D01*
%TO.N,/SPIMO*%
X145703500Y-90585500D02*
X145703500Y-94488000D01*
X145669000Y-90551000D02*
X145703500Y-90585500D01*
%TO.N,/SPICK*%
X143163500Y-88299500D02*
X143163500Y-94488000D01*
X143129000Y-88265000D02*
X143163500Y-88299500D01*
%TO.N,/PD4*%
X160019530Y-105791000D02*
X160197706Y-105969176D01*
X148491321Y-105791000D02*
X160019530Y-105791000D01*
X147462621Y-106819700D02*
X148491321Y-105791000D01*
%TO.N,/ACLK*%
X157226000Y-108966000D02*
X158722500Y-108966000D01*
X147066000Y-107442000D02*
X155702000Y-107442000D01*
X146939000Y-107569000D02*
X147066000Y-107442000D01*
X155702000Y-107442000D02*
X157226000Y-108966000D01*
%TO.N,/PD5*%
X129828500Y-106172000D02*
X129828500Y-108810000D01*
%TO.N,/PD4*%
X131098500Y-106807000D02*
X131098500Y-108810000D01*
%TO.N,/ADL_LD-*%
X157099000Y-116078000D02*
X153797000Y-116078000D01*
%TO.N,/PD6*%
X158722500Y-114808000D02*
X153797000Y-114808000D01*
X161898600Y-105436400D02*
X161898600Y-101560900D01*
X161417000Y-105918000D02*
X161898600Y-105436400D01*
X161898600Y-101560900D02*
X161683700Y-101346000D01*
X161683700Y-101346000D02*
X161683700Y-101219000D01*
%TO.N,/DISPRST-*%
X148209000Y-97028000D02*
X148209000Y-94522500D01*
X141512500Y-97062500D02*
X141478000Y-97028000D01*
X141512500Y-99190000D02*
X141512500Y-97062500D01*
%TO.N,/DISP_CD*%
X150749000Y-97663000D02*
X150749000Y-94522500D01*
X142782500Y-97697500D02*
X142748000Y-97663000D01*
X142782500Y-99190000D02*
X142782500Y-97697500D01*
%TO.N,/ADM_LD-*%
X156210000Y-93980000D02*
X158722500Y-93980000D01*
X153797000Y-96393000D02*
X156210000Y-93980000D01*
X137702500Y-96485500D02*
X137702500Y-99190000D01*
X137731500Y-96456500D02*
X137702500Y-96485500D01*
%TO.N,/PD3*%
X154940000Y-80518000D02*
X158722500Y-80518000D01*
X146812000Y-88646000D02*
X154940000Y-80518000D01*
X146812000Y-93961951D02*
X146812000Y-88646000D01*
X146859300Y-94009251D02*
X146812000Y-93961951D01*
X146812000Y-100215700D02*
X146812000Y-96393000D01*
X146812000Y-96393000D02*
X146859300Y-96345700D01*
X146859300Y-96345700D02*
X146859300Y-94009251D01*
%TO.N,Net-(Q1-E)*%
X152019000Y-100330000D02*
X152019000Y-92456000D01*
X150991300Y-101357700D02*
X152019000Y-100330000D01*
X146419300Y-101357700D02*
X150991300Y-101357700D01*
X152019000Y-92456000D02*
X152378400Y-92096600D01*
X146023500Y-101753500D02*
X146419300Y-101357700D01*
X146023500Y-108654500D02*
X146023500Y-101753500D01*
X152378400Y-92096600D02*
X169174400Y-92096600D01*
%TO.N,/PD3*%
X149514147Y-102616000D02*
X158722500Y-102616000D01*
X149501447Y-102603300D02*
X149514147Y-102616000D01*
X147240847Y-102603300D02*
X149501447Y-102603300D01*
X147208621Y-102635526D02*
X147240847Y-102603300D01*
%TO.N,/PD5*%
X160901174Y-103258826D02*
X161036000Y-103124000D01*
X146739967Y-103258826D02*
X160901174Y-103258826D01*
X161036000Y-103124000D02*
X161276300Y-103124000D01*
X146685000Y-103313793D02*
X146739967Y-103258826D01*
%TO.N,/F_SEL-*%
X160909000Y-101981000D02*
X160938144Y-102010144D01*
X146685000Y-101981000D02*
X160909000Y-101981000D01*
X160938144Y-102010144D02*
X161276300Y-102010144D01*
%TO.N,/PD0*%
X136178500Y-130662200D02*
X136178500Y-131904000D01*
X155049466Y-130188700D02*
X136652000Y-130188700D01*
X157067766Y-132207000D02*
X155049466Y-130188700D01*
X136652000Y-130188700D02*
X136178500Y-130662200D01*
X158722500Y-132207000D02*
X157067766Y-132207000D01*
%TO.N,/PD1*%
X134908500Y-133696500D02*
X134908500Y-131904000D01*
X134874000Y-133731000D02*
X134908500Y-133696500D01*
X135382000Y-134239000D02*
X134874000Y-133731000D01*
X161544000Y-134239000D02*
X135382000Y-134239000D01*
X163672500Y-133477000D02*
X162306000Y-133477000D01*
X162306000Y-133477000D02*
X161544000Y-134239000D01*
%TO.N,/PD3*%
X156337000Y-124587000D02*
X158722500Y-124587000D01*
%TO.N,/BD1*%
X168634400Y-125243600D02*
X171958000Y-121920000D01*
X154817180Y-125233700D02*
X154827080Y-125243600D01*
X154827080Y-125243600D02*
X168634400Y-125243600D01*
X153935700Y-125233700D02*
X154817180Y-125233700D01*
X153670000Y-124968000D02*
X153935700Y-125233700D01*
%TO.N,/ADL_LD-*%
X157088585Y-127139700D02*
X158709800Y-127139700D01*
%TO.N,/BD7*%
X162323238Y-127740400D02*
X162341994Y-127721644D01*
X154559000Y-127762000D02*
X157436800Y-127762000D01*
X157458400Y-127740400D02*
X162323238Y-127740400D01*
X157436800Y-127762000D02*
X157458400Y-127740400D01*
%TO.N,/ADL_LD-*%
X158722500Y-116078000D02*
X157099000Y-116078000D01*
%TO.N,/PD0*%
X161718600Y-110236000D02*
X158722500Y-110236000D01*
X158722500Y-132207000D02*
X161036000Y-132207000D01*
%TO.N,/PD3*%
X158722500Y-102616000D02*
X156959300Y-102616000D01*
%TO.N,Net-(U7-~{RC})*%
X162433000Y-96520000D02*
X163672500Y-96520000D01*
X162306000Y-107442000D02*
X162306000Y-96647000D01*
X162052000Y-107696000D02*
X162306000Y-107442000D01*
X158722500Y-107696000D02*
X162052000Y-107696000D01*
X162306000Y-96647000D02*
X162433000Y-96520000D01*
%TO.N,/PD4*%
X160909000Y-121158000D02*
X158722500Y-121158000D01*
X158722500Y-99060000D02*
X160147000Y-99060000D01*
%TO.N,/ADM_LD-*%
X160401000Y-93980000D02*
X158722500Y-93980000D01*
X161036000Y-94615000D02*
X160401000Y-93980000D01*
X161036000Y-95885000D02*
X161036000Y-94615000D01*
X160401000Y-105156000D02*
X158722500Y-105156000D01*
%TO.N,/PD6*%
X161718600Y-114808000D02*
X158722500Y-114808000D01*
X161662100Y-92710000D02*
X161671000Y-92718900D01*
X158722500Y-92710000D02*
X161662100Y-92710000D01*
%TO.N,/ACLK*%
X160147000Y-130937000D02*
X158722500Y-130937000D01*
X160147000Y-119888000D02*
X158722500Y-119888000D01*
X160147000Y-108966000D02*
X158722500Y-108966000D01*
X160147000Y-86868000D02*
X158722500Y-86868000D01*
X160147000Y-97790000D02*
X158722500Y-97790000D01*
%TO.N,Net-(U8-~{RC})*%
X161671000Y-96520000D02*
X158722500Y-96520000D01*
X162306000Y-95885000D02*
X161671000Y-96520000D01*
X162306000Y-93345000D02*
X162306000Y-95885000D01*
X162306000Y-85598000D02*
X163672500Y-85598000D01*
%TO.N,/PD7*%
X156718000Y-91440000D02*
X158722500Y-91440000D01*
X156718000Y-113538000D02*
X158722500Y-113538000D01*
%TO.N,/PD0*%
X155956000Y-110236000D02*
X158722500Y-110236000D01*
%TO.N,/PD2*%
X154559000Y-125857000D02*
X158722500Y-125857000D01*
%TO.N,/BD0*%
X166508700Y-122686180D02*
X166508700Y-122169820D01*
X165877880Y-123317000D02*
X166508700Y-122686180D01*
X170549300Y-121804700D02*
X172974000Y-119380000D01*
X154178000Y-123317000D02*
X165877880Y-123317000D01*
X166873820Y-121804700D02*
X170549300Y-121804700D01*
X153670000Y-122809000D02*
X154178000Y-123317000D01*
X153670000Y-121793000D02*
X153670000Y-122809000D01*
X166508700Y-122169820D02*
X166873820Y-121804700D01*
%TO.N,/PD2*%
X154563874Y-103886000D02*
X158722500Y-103886000D01*
X154559000Y-103881126D02*
X154563874Y-103886000D01*
%TO.N,/PD1*%
X167132000Y-124333000D02*
X167132000Y-122428000D01*
X165989000Y-133477000D02*
X167132000Y-132334000D01*
X163672500Y-133477000D02*
X165989000Y-133477000D01*
%TO.N,/BA1*%
X164846000Y-132207000D02*
X163672500Y-132207000D01*
X165608000Y-131445000D02*
X164846000Y-132207000D01*
X168267480Y-131445000D02*
X165608000Y-131445000D01*
X177038000Y-117348000D02*
X177038000Y-122674480D01*
X180086000Y-114300000D02*
X177038000Y-117348000D01*
X177038000Y-122674480D02*
X168267480Y-131445000D01*
X181610000Y-114300000D02*
X180086000Y-114300000D01*
%TO.N,/BD3*%
X195072000Y-128778000D02*
X196850000Y-127000000D01*
X182499000Y-128778000D02*
X195072000Y-128778000D01*
%TO.N,/PD5*%
X165862000Y-122428000D02*
X163672500Y-122428000D01*
%TO.N,/PD1*%
X167132000Y-111506000D02*
X163672500Y-111506000D01*
X167132000Y-102743000D02*
X167132000Y-99682300D01*
X163672500Y-89408000D02*
X167132000Y-89408000D01*
%TO.N,/BA10*%
X163672500Y-105156000D02*
X168402000Y-105156000D01*
%TO.N,/BA9*%
X168910000Y-110236000D02*
X169037000Y-110109000D01*
X163672500Y-110236000D02*
X168910000Y-110236000D01*
%TO.N,/BA8*%
X163672500Y-108966000D02*
X169037000Y-108966000D01*
%TO.N,/BA11*%
X168397996Y-103886000D02*
X168407079Y-103876917D01*
X163672500Y-103886000D02*
X168397996Y-103886000D01*
%TO.N,/BA13*%
X195824200Y-98034200D02*
X196850000Y-99060000D01*
X180905100Y-98034200D02*
X195824200Y-98034200D01*
X169947050Y-99403200D02*
X179536100Y-99403200D01*
X169603850Y-99060000D02*
X169947050Y-99403200D01*
X179536100Y-99403200D02*
X180905100Y-98034200D01*
X163672500Y-99060000D02*
X169603850Y-99060000D01*
%TO.N,/PD2*%
X154305000Y-81788000D02*
X158722500Y-81788000D01*
X150749000Y-85344000D02*
X154305000Y-81788000D01*
X150749000Y-90932000D02*
X150749000Y-85344000D01*
%TO.N,/BD5*%
X129828500Y-122604000D02*
X129828500Y-118110000D01*
%TO.N,/BD3*%
X132368500Y-122604000D02*
X132368500Y-118110000D01*
%TO.N,/BD2*%
X133638500Y-122604000D02*
X133638500Y-118110000D01*
%TO.N,/BA5*%
X165401300Y-121158000D02*
X181610000Y-104949300D01*
X163672500Y-121158000D02*
X165401300Y-121158000D01*
X181610000Y-104949300D02*
X181610000Y-104140000D01*
%TO.N,/BA4*%
X165354000Y-119888000D02*
X163672500Y-119888000D01*
X178562000Y-106680000D02*
X165354000Y-119888000D01*
%TO.N,/BA6*%
X179578000Y-102743000D02*
X180721000Y-101600000D01*
X179578000Y-104521000D02*
X179578000Y-102743000D01*
X168021000Y-116078000D02*
X179578000Y-104521000D01*
X163672500Y-116078000D02*
X168021000Y-116078000D01*
%TO.N,/BA3*%
X174648400Y-115305284D02*
X180733684Y-109220000D01*
X174648400Y-122717450D02*
X174648400Y-115305284D01*
X171508850Y-125857000D02*
X174648400Y-122717450D01*
X163672500Y-125857000D02*
X171508850Y-125857000D01*
%TO.N,/BA2*%
X180279370Y-111760000D02*
X181610000Y-111760000D01*
X175499300Y-116540070D02*
X180279370Y-111760000D01*
X175499300Y-122442700D02*
X175499300Y-116540070D01*
X170815000Y-127127000D02*
X175499300Y-122442700D01*
X163672500Y-127127000D02*
X170815000Y-127127000D01*
%TO.N,/BA0*%
X168199330Y-130937000D02*
X163672500Y-130937000D01*
X176530000Y-122606330D02*
X168199330Y-130937000D01*
X176530000Y-116967000D02*
X176530000Y-122606330D01*
%TO.N,/BD2*%
X133604000Y-124333000D02*
X133604000Y-122638500D01*
%TO.N,/F_SEL-*%
X198374000Y-100330000D02*
X183388000Y-100330000D01*
X198882000Y-100838000D02*
X198374000Y-100330000D01*
X198882000Y-112268000D02*
X198882000Y-100838000D01*
X196850000Y-114300000D02*
X198882000Y-112268000D01*
%TO.N,/PRD-*%
X175271700Y-115563464D02*
X180100964Y-110734200D01*
X195335800Y-110734200D02*
X196850000Y-109220000D01*
X180100964Y-110734200D02*
X195335800Y-110734200D01*
%TO.N,/BD6*%
X128558500Y-122604000D02*
X128558500Y-118110000D01*
%TO.N,/BD5*%
X129794000Y-124460000D02*
X129794000Y-122638500D01*
%TO.N,/BD4*%
X131098500Y-122604000D02*
X131098500Y-118110000D01*
%TO.N,/PRD-*%
X137448500Y-126076500D02*
X137448500Y-122604000D01*
X137414000Y-126111000D02*
X137448500Y-126076500D01*
%TO.N,Net-(U6-~{RC})*%
X162697501Y-107696000D02*
X163672500Y-107696000D01*
X162340900Y-115353356D02*
X162340900Y-108052601D01*
X162340900Y-108052601D02*
X162697501Y-107696000D01*
X159076256Y-118618000D02*
X162340900Y-115353356D01*
%TO.N,/BA11*%
X193040000Y-102870000D02*
X196850000Y-106680000D01*
%TO.N,/BA17*%
X170815000Y-88138000D02*
X175631200Y-92954200D01*
X195824200Y-92954200D02*
X196850000Y-93980000D01*
X163672500Y-88138000D02*
X170815000Y-88138000D01*
X175631200Y-92954200D02*
X195824200Y-92954200D01*
%TO.N,/BA15*%
X168266100Y-92710000D02*
X168275000Y-92718900D01*
X163672500Y-92710000D02*
X168266100Y-92710000D01*
%TO.N,/BA14*%
X163672500Y-93980000D02*
X168529000Y-93980000D01*
%TO.N,/BA12*%
X179134200Y-98995800D02*
X181610000Y-96520000D01*
X170115800Y-98995800D02*
X179134200Y-98995800D01*
X168910000Y-97790000D02*
X170115800Y-98995800D01*
X163672500Y-97790000D02*
X168910000Y-97790000D01*
%TO.N,/BA7*%
X179170600Y-101499400D02*
X181610000Y-99060000D01*
X168402000Y-114808000D02*
X179170600Y-104039400D01*
X163672500Y-114808000D02*
X168402000Y-114808000D01*
X179170600Y-104039400D02*
X179170600Y-101499400D01*
%TO.N,/DATA_LCH*%
X125361900Y-118766600D02*
X126018500Y-118110000D01*
X125361900Y-131247400D02*
X125361900Y-118766600D01*
X126018500Y-131904000D02*
X125361900Y-131247400D01*
%TO.N,Net-(LED1-A)*%
X172466000Y-92583000D02*
X171577000Y-91694000D01*
X171831000Y-97790000D02*
X172466000Y-97155000D01*
X172466000Y-97155000D02*
X172466000Y-92583000D01*
X170815000Y-97790000D02*
X171831000Y-97790000D01*
%TO.N,Net-(LED3-A)*%
X172466000Y-105283000D02*
X171577000Y-104394000D01*
X171958000Y-110490000D02*
X172466000Y-109982000D01*
X170815000Y-110490000D02*
X171958000Y-110490000D01*
X172466000Y-109982000D02*
X172466000Y-105283000D01*
%TO.N,Net-(Q2-B)*%
X145007500Y-122401500D02*
X145007500Y-121197500D01*
X151545500Y-122393500D02*
X151130000Y-122809000D01*
X151130000Y-122809000D02*
X145415000Y-122809000D01*
X145415000Y-122809000D02*
X145007500Y-122401500D01*
X151545500Y-121158000D02*
X151545500Y-122393500D01*
%TO.N,/FPWR_ON*%
X153035000Y-118110000D02*
X151987000Y-119158000D01*
X153035000Y-111379000D02*
X153035000Y-118110000D01*
X152248000Y-110592000D02*
X153035000Y-111379000D01*
X151545500Y-110592000D02*
X152248000Y-110592000D01*
%TO.N,Net-(Q2-C)*%
X146023500Y-119060000D02*
X146023500Y-115609500D01*
X145957500Y-118202500D02*
X145957500Y-119322500D01*
X146939000Y-117221000D02*
X145957500Y-118202500D01*
X150148500Y-117221000D02*
X146939000Y-117221000D01*
X151545500Y-115824000D02*
X150148500Y-117221000D01*
%TO.N,Net-(Q1-B)*%
X151545500Y-108592000D02*
X147986000Y-108592000D01*
%TO.N,Net-(LED2-A)*%
X138734500Y-84531500D02*
X138734500Y-88900000D01*
X139700000Y-83566000D02*
X138734500Y-84531500D01*
%TO.N,/RESET-*%
X129032000Y-87172500D02*
X127304500Y-88900000D01*
X127051000Y-80696000D02*
X129032000Y-82677000D01*
X129032000Y-82677000D02*
X129032000Y-87172500D01*
X133729000Y-80696000D02*
X134366000Y-81333000D01*
X132165000Y-80696000D02*
X133729000Y-80696000D01*
X126915000Y-80696000D02*
X132165000Y-80696000D01*
%TO.N,Net-(U3-GPIO22)*%
X85598000Y-125650000D02*
X88350000Y-125650000D01*
X83100000Y-125650000D02*
X85598000Y-125650000D01*
%TO.N,/RE_SW-*%
X86587500Y-120012500D02*
X86587500Y-120900000D01*
X88225000Y-118375000D02*
X86587500Y-120012500D01*
%TO.N,/SD_DET-*%
X92921000Y-94912000D02*
X92921000Y-93600000D01*
X92583000Y-95250000D02*
X92921000Y-94912000D01*
X90297000Y-95250000D02*
X92583000Y-95250000D01*
X89789000Y-95758000D02*
X90297000Y-95250000D01*
X89789000Y-101346000D02*
X89789000Y-95758000D01*
X90805000Y-102362000D02*
X89789000Y-101346000D01*
X101600000Y-102362000D02*
X90805000Y-102362000D01*
%TO.N,/RE_B*%
X93345000Y-95885000D02*
X91059000Y-98171000D01*
X95631000Y-94869000D02*
X94742000Y-95758000D01*
X94742000Y-95885000D02*
X93345000Y-95885000D01*
X95631000Y-83439000D02*
X95631000Y-94869000D01*
X94742000Y-95758000D02*
X94742000Y-95885000D01*
X97028000Y-82042000D02*
X95631000Y-83439000D01*
X101600000Y-82042000D02*
X97028000Y-82042000D01*
%TO.N,/SPIMI*%
X90721000Y-92202000D02*
X90721000Y-93600000D01*
%TO.N,/SPIMO*%
X86360000Y-89662000D02*
X86360000Y-93561000D01*
%TO.N,/SPICK*%
X88519000Y-87122000D02*
X88519000Y-93598000D01*
%TO.N,/CARD_CS-*%
X85221000Y-96135000D02*
X85221000Y-93600000D01*
X85217000Y-96139000D02*
X85221000Y-96135000D01*
%TD*%
M02*
