%TF.GenerationSoftware,KiCad,Pcbnew,9.0.4*%
%TF.CreationDate,2025-09-26T12:58:40-07:00*%
%TF.ProjectId,SD-PGMR,53442d50-474d-4522-9e6b-696361645f70,v1.0*%
%TF.SameCoordinates,Original*%
%TF.FileFunction,Soldermask,Top*%
%TF.FilePolarity,Negative*%
%FSLAX46Y46*%
G04 Gerber Fmt 4.6, Leading zero omitted, Abs format (unit mm)*
G04 Created by KiCad (PCBNEW 9.0.4) date 2025-09-26 12:58:40*
%MOMM*%
%LPD*%
G01*
G04 APERTURE LIST*
G04 Aperture macros list*
%AMRoundRect*
0 Rectangle with rounded corners*
0 $1 Rounding radius*
0 $2 $3 $4 $5 $6 $7 $8 $9 X,Y pos of 4 corners*
0 Add a 4 corners polygon primitive as box body*
4,1,4,$2,$3,$4,$5,$6,$7,$8,$9,$2,$3,0*
0 Add four circle primitives for the rounded corners*
1,1,$1+$1,$2,$3*
1,1,$1+$1,$4,$5*
1,1,$1+$1,$6,$7*
1,1,$1+$1,$8,$9*
0 Add four rect primitives between the rounded corners*
20,1,$1+$1,$2,$3,$4,$5,0*
20,1,$1+$1,$4,$5,$6,$7,0*
20,1,$1+$1,$6,$7,$8,$9,0*
20,1,$1+$1,$8,$9,$2,$3,0*%
G04 Aperture macros list end*
%ADD10RoundRect,0.237500X-0.300000X-0.237500X0.300000X-0.237500X0.300000X0.237500X-0.300000X0.237500X0*%
%ADD11C,2.200000*%
%ADD12R,1.700000X1.700000*%
%ADD13C,1.700000*%
%ADD14R,1.600000X1.000000*%
%ADD15R,2.000000X1.440000*%
%ADD16O,2.000000X1.440000*%
%ADD17RoundRect,0.150000X0.825000X0.150000X-0.825000X0.150000X-0.825000X-0.150000X0.825000X-0.150000X0*%
%ADD18RoundRect,0.150000X0.150000X-0.825000X0.150000X0.825000X-0.150000X0.825000X-0.150000X-0.825000X0*%
%ADD19O,1.800000X1.800000*%
%ADD20O,1.500000X1.500000*%
%ADD21O,1.700000X1.700000*%
%ADD22R,3.500000X1.700000*%
%ADD23R,1.700000X3.500000*%
%ADD24RoundRect,0.150000X-0.150000X0.875000X-0.150000X-0.875000X0.150000X-0.875000X0.150000X0.875000X0*%
%ADD25C,0.950000*%
%ADD26R,0.620000X1.400000*%
%ADD27R,1.100000X2.400000*%
%ADD28O,1.600000X2.200000*%
%ADD29C,2.100000*%
%ADD30R,2.000000X2.000000*%
%ADD31C,2.000000*%
%ADD32R,2.000000X3.200000*%
%ADD33RoundRect,0.250000X-0.350000X-0.450000X0.350000X-0.450000X0.350000X0.450000X-0.350000X0.450000X0*%
%ADD34RoundRect,0.250000X0.350000X0.450000X-0.350000X0.450000X-0.350000X-0.450000X0.350000X-0.450000X0*%
%ADD35RoundRect,0.250000X0.450000X-0.350000X0.450000X0.350000X-0.450000X0.350000X-0.450000X-0.350000X0*%
%ADD36RoundRect,0.250000X-0.450000X0.350000X-0.450000X-0.350000X0.450000X-0.350000X0.450000X0.350000X0*%
%ADD37RoundRect,0.150000X0.150000X-0.587500X0.150000X0.587500X-0.150000X0.587500X-0.150000X-0.587500X0*%
%ADD38RoundRect,0.150000X-0.150000X0.587500X-0.150000X-0.587500X0.150000X-0.587500X0.150000X0.587500X0*%
%ADD39R,1.800000X1.800000*%
%ADD40C,1.800000*%
%ADD41RoundRect,0.237500X-0.237500X0.300000X-0.237500X-0.300000X0.237500X-0.300000X0.237500X0.300000X0*%
%ADD42RoundRect,0.237500X0.300000X0.237500X-0.300000X0.237500X-0.300000X-0.237500X0.300000X-0.237500X0*%
G04 APERTURE END LIST*
D10*
%TO.C,C10*%
X173381500Y-88900000D03*
X175106500Y-88900000D03*
%TD*%
D11*
%TO.C,H4*%
X171450000Y-81280000D03*
%TD*%
%TO.C,H3*%
X171450000Y-132080000D03*
%TD*%
%TO.C,H2*%
X80010000Y-132080000D03*
%TD*%
%TO.C,H1*%
X80010000Y-97790000D03*
%TD*%
D12*
%TO.C,J4*%
X94234000Y-128778000D03*
D13*
X94234000Y-126238000D03*
X94234000Y-123698000D03*
%TD*%
D14*
%TO.C,SW2*%
X83100000Y-125650000D03*
X88350000Y-125650000D03*
X83100000Y-128850000D03*
X88350000Y-128850000D03*
%TD*%
%TO.C,SW1*%
X126915000Y-80696000D03*
X132165000Y-80696000D03*
X126915000Y-83896000D03*
X132165000Y-83896000D03*
%TD*%
D15*
%TO.C,U10*%
X181610000Y-88900000D03*
D16*
X181610000Y-91440000D03*
X181610000Y-93980000D03*
X181610000Y-96520000D03*
X181610000Y-99060000D03*
X181610000Y-101600000D03*
X181610000Y-104140000D03*
X181610000Y-106680000D03*
X181610000Y-109220000D03*
X181610000Y-111760000D03*
X181610000Y-114300000D03*
X181610000Y-116840000D03*
X181610000Y-119380000D03*
X181610000Y-121920000D03*
X181610000Y-124460000D03*
X181610000Y-127000000D03*
X196850000Y-127000000D03*
X196850000Y-124460000D03*
X196850000Y-121920000D03*
X196850000Y-119380000D03*
X196850000Y-116840000D03*
X196850000Y-114300000D03*
X196850000Y-111760000D03*
X196850000Y-109220000D03*
X196850000Y-106680000D03*
X196850000Y-104140000D03*
X196850000Y-101600000D03*
X196850000Y-99060000D03*
X196850000Y-96520000D03*
X196850000Y-93980000D03*
X196850000Y-91440000D03*
X196850000Y-88900000D03*
%TD*%
D17*
%TO.C,U9*%
X163672500Y-89408000D03*
X163672500Y-88138000D03*
X163672500Y-86868000D03*
X163672500Y-85598000D03*
X163672500Y-84328000D03*
X163672500Y-83058000D03*
X163672500Y-81788000D03*
X163672500Y-80518000D03*
X158722500Y-80518000D03*
X158722500Y-81788000D03*
X158722500Y-83058000D03*
X158722500Y-84328000D03*
X158722500Y-85598000D03*
X158722500Y-86868000D03*
X158722500Y-88138000D03*
X158722500Y-89408000D03*
%TD*%
%TO.C,U8*%
X163672500Y-100330000D03*
X163672500Y-99060000D03*
X163672500Y-97790000D03*
X163672500Y-96520000D03*
X163672500Y-95250000D03*
X163672500Y-93980000D03*
X163672500Y-92710000D03*
X163672500Y-91440000D03*
X158722500Y-91440000D03*
X158722500Y-92710000D03*
X158722500Y-93980000D03*
X158722500Y-95250000D03*
X158722500Y-96520000D03*
X158722500Y-97790000D03*
X158722500Y-99060000D03*
X158722500Y-100330000D03*
%TD*%
%TO.C,U7*%
X163672500Y-111506000D03*
X163672500Y-110236000D03*
X163672500Y-108966000D03*
X163672500Y-107696000D03*
X163672500Y-106426000D03*
X163672500Y-105156000D03*
X163672500Y-103886000D03*
X163672500Y-102616000D03*
X158722500Y-102616000D03*
X158722500Y-103886000D03*
X158722500Y-105156000D03*
X158722500Y-106426000D03*
X158722500Y-107696000D03*
X158722500Y-108966000D03*
X158722500Y-110236000D03*
X158722500Y-111506000D03*
%TD*%
%TO.C,U6*%
X163672500Y-122428000D03*
X163672500Y-121158000D03*
X163672500Y-119888000D03*
X163672500Y-118618000D03*
X163672500Y-117348000D03*
X163672500Y-116078000D03*
X163672500Y-114808000D03*
X163672500Y-113538000D03*
X158722500Y-113538000D03*
X158722500Y-114808000D03*
X158722500Y-116078000D03*
X158722500Y-117348000D03*
X158722500Y-118618000D03*
X158722500Y-119888000D03*
X158722500Y-121158000D03*
X158722500Y-122428000D03*
%TD*%
%TO.C,U5*%
X163672500Y-133477000D03*
X163672500Y-132207000D03*
X163672500Y-130937000D03*
X163672500Y-129667000D03*
X163672500Y-128397000D03*
X163672500Y-127127000D03*
X163672500Y-125857000D03*
X163672500Y-124587000D03*
X158722500Y-124587000D03*
X158722500Y-125857000D03*
X158722500Y-127127000D03*
X158722500Y-128397000D03*
X158722500Y-129667000D03*
X158722500Y-130937000D03*
X158722500Y-132207000D03*
X158722500Y-133477000D03*
%TD*%
D18*
%TO.C,U4*%
X133892500Y-104140000D03*
X135162500Y-104140000D03*
X136432500Y-104140000D03*
X137702500Y-104140000D03*
X138972500Y-104140000D03*
X140242500Y-104140000D03*
X141512500Y-104140000D03*
X142782500Y-104140000D03*
X142782500Y-99190000D03*
X141512500Y-99190000D03*
X140242500Y-99190000D03*
X138972500Y-99190000D03*
X137702500Y-99190000D03*
X136432500Y-99190000D03*
X135162500Y-99190000D03*
X133892500Y-99190000D03*
%TD*%
D19*
%TO.C,U3*%
X107765000Y-79632000D03*
D20*
X108065000Y-82662000D03*
X112915000Y-82662000D03*
D19*
X113215000Y-79632000D03*
D21*
X101600000Y-79502000D03*
D22*
X100700000Y-79502000D03*
D21*
X101600000Y-82042000D03*
D22*
X100700000Y-82042000D03*
D12*
X101600000Y-84582000D03*
D22*
X100700000Y-84582000D03*
D21*
X101600000Y-87122000D03*
D22*
X100700000Y-87122000D03*
D21*
X101600000Y-89662000D03*
D22*
X100700000Y-89662000D03*
D21*
X101600000Y-92202000D03*
D22*
X100700000Y-92202000D03*
D21*
X101600000Y-94742000D03*
D22*
X100700000Y-94742000D03*
D12*
X101600000Y-97282000D03*
D22*
X100700000Y-97282000D03*
D21*
X101600000Y-99822000D03*
D22*
X100700000Y-99822000D03*
D21*
X101600000Y-102362000D03*
D22*
X100700000Y-102362000D03*
D21*
X101600000Y-104902000D03*
D22*
X100700000Y-104902000D03*
D21*
X101600000Y-107442000D03*
D22*
X100700000Y-107442000D03*
D12*
X101600000Y-109982000D03*
D22*
X100700000Y-109982000D03*
D21*
X101600000Y-112522000D03*
D22*
X100700000Y-112522000D03*
D21*
X101600000Y-115062000D03*
D22*
X100700000Y-115062000D03*
D21*
X101600000Y-117602000D03*
D22*
X100700000Y-117602000D03*
D21*
X101600000Y-120142000D03*
D22*
X100700000Y-120142000D03*
D12*
X101600000Y-122682000D03*
D22*
X100700000Y-122682000D03*
D21*
X101600000Y-125222000D03*
D22*
X100700000Y-125222000D03*
D21*
X101600000Y-127762000D03*
D22*
X100700000Y-127762000D03*
D21*
X119380000Y-127762000D03*
D22*
X120280000Y-127762000D03*
D21*
X119380000Y-125222000D03*
D22*
X120280000Y-125222000D03*
D12*
X119380000Y-122682000D03*
D22*
X120280000Y-122682000D03*
D21*
X119380000Y-120142000D03*
D22*
X120280000Y-120142000D03*
D21*
X119380000Y-117602000D03*
D22*
X120280000Y-117602000D03*
D21*
X119380000Y-115062000D03*
D22*
X120280000Y-115062000D03*
D21*
X119380000Y-112522000D03*
D22*
X120280000Y-112522000D03*
D12*
X119380000Y-109982000D03*
D22*
X120280000Y-109982000D03*
D21*
X119380000Y-107442000D03*
D22*
X120280000Y-107442000D03*
D21*
X119380000Y-104902000D03*
D22*
X120280000Y-104902000D03*
D21*
X119380000Y-102362000D03*
D22*
X120280000Y-102362000D03*
D21*
X119380000Y-99822000D03*
D22*
X120280000Y-99822000D03*
D12*
X119380000Y-97282000D03*
D22*
X120280000Y-97282000D03*
D21*
X119380000Y-94742000D03*
D22*
X120280000Y-94742000D03*
D21*
X119380000Y-92202000D03*
D22*
X120280000Y-92202000D03*
D21*
X119380000Y-89662000D03*
D22*
X120280000Y-89662000D03*
D21*
X119380000Y-87122000D03*
D22*
X120280000Y-87122000D03*
D12*
X119380000Y-84582000D03*
D22*
X120280000Y-84582000D03*
D21*
X119380000Y-82042000D03*
D22*
X120280000Y-82042000D03*
D21*
X119380000Y-79502000D03*
D22*
X120280000Y-79502000D03*
D21*
X107954000Y-127802000D03*
D23*
X107954000Y-128702000D03*
D12*
X110494000Y-127802000D03*
D23*
X110494000Y-128702000D03*
D21*
X113034000Y-127802000D03*
D23*
X113034000Y-128702000D03*
%TD*%
D24*
%TO.C,U2*%
X137448500Y-122604000D03*
X136178500Y-122604000D03*
X134908500Y-122604000D03*
X133638500Y-122604000D03*
X132368500Y-122604000D03*
X131098500Y-122604000D03*
X129828500Y-122604000D03*
X128558500Y-122604000D03*
X127288500Y-122604000D03*
X126018500Y-122604000D03*
X126018500Y-131904000D03*
X127288500Y-131904000D03*
X128558500Y-131904000D03*
X129828500Y-131904000D03*
X131098500Y-131904000D03*
X132368500Y-131904000D03*
X133638500Y-131904000D03*
X134908500Y-131904000D03*
X136178500Y-131904000D03*
X137448500Y-131904000D03*
%TD*%
%TO.C,U1*%
X137448500Y-108810000D03*
X136178500Y-108810000D03*
X134908500Y-108810000D03*
X133638500Y-108810000D03*
X132368500Y-108810000D03*
X131098500Y-108810000D03*
X129828500Y-108810000D03*
X128558500Y-108810000D03*
X127288500Y-108810000D03*
X126018500Y-108810000D03*
X126018500Y-118110000D03*
X127288500Y-118110000D03*
X128558500Y-118110000D03*
X129828500Y-118110000D03*
X131098500Y-118110000D03*
X132368500Y-118110000D03*
X133638500Y-118110000D03*
X134908500Y-118110000D03*
X136178500Y-118110000D03*
X137448500Y-118110000D03*
%TD*%
D25*
%TO.C,SD1*%
X90101000Y-82180000D03*
X83301000Y-82180000D03*
D26*
X84121000Y-93600000D03*
X85221000Y-93600000D03*
X86321000Y-93600000D03*
X87421000Y-93600000D03*
X88521000Y-93600000D03*
X89621000Y-93600000D03*
X90721000Y-93600000D03*
X91821000Y-93600000D03*
X92921000Y-93600000D03*
D27*
X94301000Y-91600000D03*
X94301000Y-82600000D03*
X78151000Y-91600000D03*
X78151000Y-82600000D03*
%TD*%
D28*
%TO.C,RE1*%
X85725000Y-106875000D03*
D29*
X85725000Y-111375000D03*
D30*
X88225000Y-103875000D03*
D31*
X83225000Y-103875000D03*
X85725000Y-103875000D03*
D32*
X91325000Y-111375000D03*
X80125000Y-111375000D03*
D31*
X83225000Y-118375000D03*
X88225000Y-118375000D03*
%TD*%
D33*
%TO.C,R7*%
X169577000Y-104394000D03*
X171577000Y-104394000D03*
%TD*%
D34*
%TO.C,R6*%
X140734500Y-88900000D03*
X138734500Y-88900000D03*
%TD*%
%TO.C,R5*%
X129304500Y-88900000D03*
X127304500Y-88900000D03*
%TD*%
D35*
%TO.C,R4*%
X151545500Y-115824000D03*
X151545500Y-113824000D03*
%TD*%
D36*
%TO.C,R3*%
X151545500Y-119158000D03*
X151545500Y-121158000D03*
%TD*%
D33*
%TO.C,R2*%
X169577000Y-91694000D03*
X171577000Y-91694000D03*
%TD*%
D35*
%TO.C,R1*%
X151545500Y-110592000D03*
X151545500Y-108592000D03*
%TD*%
D37*
%TO.C,Q3*%
X146023500Y-115609500D03*
X147923500Y-115609500D03*
X146973500Y-113734500D03*
%TD*%
%TO.C,Q2*%
X145007500Y-121197500D03*
X146907500Y-121197500D03*
X145957500Y-119322500D03*
%TD*%
D38*
%TO.C,Q1*%
X147923500Y-108654500D03*
X146023500Y-108654500D03*
X146973500Y-110529500D03*
%TD*%
D39*
%TO.C,LED3*%
X170815000Y-107950000D03*
D40*
X170815000Y-110490000D03*
%TD*%
D39*
%TO.C,LED2*%
X139700000Y-81026000D03*
D40*
X139700000Y-83566000D03*
%TD*%
D39*
%TO.C,LED1*%
X170815000Y-95250000D03*
D40*
X170815000Y-97790000D03*
%TD*%
D12*
%TO.C,J3*%
X149992000Y-81915000D03*
D13*
X147452000Y-81915000D03*
%TD*%
D12*
%TO.C,J2*%
X88519000Y-98171000D03*
D13*
X91059000Y-98171000D03*
X93599000Y-98171000D03*
%TD*%
D12*
%TO.C,J1*%
X138083500Y-94488000D03*
D13*
X140623500Y-94488000D03*
X143163500Y-94488000D03*
X145703500Y-94488000D03*
X148243500Y-94488000D03*
X150783500Y-94488000D03*
X153323500Y-94488000D03*
%TD*%
D41*
%TO.C,C9*%
X154847500Y-87683000D03*
X154847500Y-89408000D03*
%TD*%
%TO.C,C8*%
X154847500Y-98451500D03*
X154847500Y-100176500D03*
%TD*%
%TO.C,C7*%
X154847500Y-109627500D03*
X154847500Y-111352500D03*
%TD*%
%TO.C,C6*%
X154847500Y-120549500D03*
X154847500Y-122274500D03*
%TD*%
%TO.C,C5*%
X154847500Y-131371000D03*
X154847500Y-133096000D03*
%TD*%
%TO.C,C4*%
X134366000Y-81333000D03*
X134366000Y-83058000D03*
%TD*%
%TO.C,C3*%
X139607500Y-124867500D03*
X139607500Y-126592500D03*
%TD*%
%TO.C,C2*%
X139607500Y-111051000D03*
X139607500Y-112776000D03*
%TD*%
D42*
%TO.C,C1*%
X86587500Y-120900000D03*
X84862500Y-120900000D03*
%TD*%
M02*
