%TF.GenerationSoftware,KiCad,Pcbnew,9.0.4*%
%TF.CreationDate,2025-09-26T12:58:40-07:00*%
%TF.ProjectId,SD-PGMR,53442d50-474d-4522-9e6b-696361645f70,v1.0*%
%TF.SameCoordinates,Original*%
%TF.FileFunction,Copper,L4,Bot*%
%TF.FilePolarity,Positive*%
%FSLAX46Y46*%
G04 Gerber Fmt 4.6, Leading zero omitted, Abs format (unit mm)*
G04 Created by KiCad (PCBNEW 9.0.4) date 2025-09-26 12:58:40*
%MOMM*%
%LPD*%
G01*
G04 APERTURE LIST*
%ADD10C,0.127000*%
%TA.AperFunction,NonConductor*%
%ADD11C,0.127000*%
%TD*%
%TA.AperFunction,ComponentPad*%
%ADD12R,1.700000X1.700000*%
%TD*%
%TA.AperFunction,ComponentPad*%
%ADD13C,1.700000*%
%TD*%
%TA.AperFunction,ComponentPad*%
%ADD14R,2.000000X1.440000*%
%TD*%
%TA.AperFunction,ComponentPad*%
%ADD15O,2.000000X1.440000*%
%TD*%
%TA.AperFunction,ComponentPad*%
%ADD16O,1.700000X1.700000*%
%TD*%
%TA.AperFunction,ComponentPad*%
%ADD17R,2.000000X2.000000*%
%TD*%
%TA.AperFunction,ComponentPad*%
%ADD18C,2.000000*%
%TD*%
%TA.AperFunction,ComponentPad*%
%ADD19R,2.000000X3.200000*%
%TD*%
%TA.AperFunction,ComponentPad*%
%ADD20R,1.800000X1.800000*%
%TD*%
%TA.AperFunction,ComponentPad*%
%ADD21C,1.800000*%
%TD*%
%TA.AperFunction,ViaPad*%
%ADD22C,0.762000*%
%TD*%
%TA.AperFunction,ViaPad*%
%ADD23C,0.635000*%
%TD*%
%TA.AperFunction,Conductor*%
%ADD24C,0.203200*%
%TD*%
G04 APERTURE END LIST*
D10*
D11*
X112752924Y-132916676D02*
X112607781Y-132965056D01*
X112607781Y-132965056D02*
X112365876Y-132965056D01*
X112365876Y-132965056D02*
X112269114Y-132916676D01*
X112269114Y-132916676D02*
X112220733Y-132868295D01*
X112220733Y-132868295D02*
X112172352Y-132771533D01*
X112172352Y-132771533D02*
X112172352Y-132674771D01*
X112172352Y-132674771D02*
X112220733Y-132578009D01*
X112220733Y-132578009D02*
X112269114Y-132529628D01*
X112269114Y-132529628D02*
X112365876Y-132481247D01*
X112365876Y-132481247D02*
X112559400Y-132432866D01*
X112559400Y-132432866D02*
X112656162Y-132384485D01*
X112656162Y-132384485D02*
X112704543Y-132336104D01*
X112704543Y-132336104D02*
X112752924Y-132239342D01*
X112752924Y-132239342D02*
X112752924Y-132142580D01*
X112752924Y-132142580D02*
X112704543Y-132045818D01*
X112704543Y-132045818D02*
X112656162Y-131997437D01*
X112656162Y-131997437D02*
X112559400Y-131949056D01*
X112559400Y-131949056D02*
X112317495Y-131949056D01*
X112317495Y-131949056D02*
X112172352Y-131997437D01*
X111736924Y-132965056D02*
X111736924Y-131949056D01*
X111736924Y-131949056D02*
X111495019Y-131949056D01*
X111495019Y-131949056D02*
X111349876Y-131997437D01*
X111349876Y-131997437D02*
X111253114Y-132094199D01*
X111253114Y-132094199D02*
X111204733Y-132190961D01*
X111204733Y-132190961D02*
X111156352Y-132384485D01*
X111156352Y-132384485D02*
X111156352Y-132529628D01*
X111156352Y-132529628D02*
X111204733Y-132723152D01*
X111204733Y-132723152D02*
X111253114Y-132819914D01*
X111253114Y-132819914D02*
X111349876Y-132916676D01*
X111349876Y-132916676D02*
X111495019Y-132965056D01*
X111495019Y-132965056D02*
X111736924Y-132965056D01*
X110720924Y-132578009D02*
X109946829Y-132578009D01*
X109463019Y-132965056D02*
X109463019Y-131949056D01*
X109463019Y-131949056D02*
X109075971Y-131949056D01*
X109075971Y-131949056D02*
X108979209Y-131997437D01*
X108979209Y-131997437D02*
X108930828Y-132045818D01*
X108930828Y-132045818D02*
X108882447Y-132142580D01*
X108882447Y-132142580D02*
X108882447Y-132287723D01*
X108882447Y-132287723D02*
X108930828Y-132384485D01*
X108930828Y-132384485D02*
X108979209Y-132432866D01*
X108979209Y-132432866D02*
X109075971Y-132481247D01*
X109075971Y-132481247D02*
X109463019Y-132481247D01*
X107914828Y-131997437D02*
X108011590Y-131949056D01*
X108011590Y-131949056D02*
X108156733Y-131949056D01*
X108156733Y-131949056D02*
X108301876Y-131997437D01*
X108301876Y-131997437D02*
X108398638Y-132094199D01*
X108398638Y-132094199D02*
X108447019Y-132190961D01*
X108447019Y-132190961D02*
X108495400Y-132384485D01*
X108495400Y-132384485D02*
X108495400Y-132529628D01*
X108495400Y-132529628D02*
X108447019Y-132723152D01*
X108447019Y-132723152D02*
X108398638Y-132819914D01*
X108398638Y-132819914D02*
X108301876Y-132916676D01*
X108301876Y-132916676D02*
X108156733Y-132965056D01*
X108156733Y-132965056D02*
X108059971Y-132965056D01*
X108059971Y-132965056D02*
X107914828Y-132916676D01*
X107914828Y-132916676D02*
X107866447Y-132868295D01*
X107866447Y-132868295D02*
X107866447Y-132529628D01*
X107866447Y-132529628D02*
X108059971Y-132529628D01*
X107431019Y-132965056D02*
X107431019Y-131949056D01*
X107431019Y-131949056D02*
X107092352Y-132674771D01*
X107092352Y-132674771D02*
X106753685Y-131949056D01*
X106753685Y-131949056D02*
X106753685Y-132965056D01*
X105689304Y-132965056D02*
X106027971Y-132481247D01*
X106269876Y-132965056D02*
X106269876Y-131949056D01*
X106269876Y-131949056D02*
X105882828Y-131949056D01*
X105882828Y-131949056D02*
X105786066Y-131997437D01*
X105786066Y-131997437D02*
X105737685Y-132045818D01*
X105737685Y-132045818D02*
X105689304Y-132142580D01*
X105689304Y-132142580D02*
X105689304Y-132287723D01*
X105689304Y-132287723D02*
X105737685Y-132384485D01*
X105737685Y-132384485D02*
X105786066Y-132432866D01*
X105786066Y-132432866D02*
X105882828Y-132481247D01*
X105882828Y-132481247D02*
X106269876Y-132481247D01*
X104576543Y-132287723D02*
X104334638Y-132965056D01*
X104334638Y-132965056D02*
X104092733Y-132287723D01*
X103173495Y-132965056D02*
X103754067Y-132965056D01*
X103463781Y-132965056D02*
X103463781Y-131949056D01*
X103463781Y-131949056D02*
X103560543Y-132094199D01*
X103560543Y-132094199D02*
X103657305Y-132190961D01*
X103657305Y-132190961D02*
X103754067Y-132239342D01*
X102738067Y-132868295D02*
X102689686Y-132916676D01*
X102689686Y-132916676D02*
X102738067Y-132965056D01*
X102738067Y-132965056D02*
X102786448Y-132916676D01*
X102786448Y-132916676D02*
X102738067Y-132868295D01*
X102738067Y-132868295D02*
X102738067Y-132965056D01*
X102060733Y-131949056D02*
X101963971Y-131949056D01*
X101963971Y-131949056D02*
X101867209Y-131997437D01*
X101867209Y-131997437D02*
X101818828Y-132045818D01*
X101818828Y-132045818D02*
X101770447Y-132142580D01*
X101770447Y-132142580D02*
X101722066Y-132336104D01*
X101722066Y-132336104D02*
X101722066Y-132578009D01*
X101722066Y-132578009D02*
X101770447Y-132771533D01*
X101770447Y-132771533D02*
X101818828Y-132868295D01*
X101818828Y-132868295D02*
X101867209Y-132916676D01*
X101867209Y-132916676D02*
X101963971Y-132965056D01*
X101963971Y-132965056D02*
X102060733Y-132965056D01*
X102060733Y-132965056D02*
X102157495Y-132916676D01*
X102157495Y-132916676D02*
X102205876Y-132868295D01*
X102205876Y-132868295D02*
X102254257Y-132771533D01*
X102254257Y-132771533D02*
X102302638Y-132578009D01*
X102302638Y-132578009D02*
X102302638Y-132336104D01*
X102302638Y-132336104D02*
X102254257Y-132142580D01*
X102254257Y-132142580D02*
X102205876Y-132045818D01*
X102205876Y-132045818D02*
X102157495Y-131997437D01*
X102157495Y-131997437D02*
X102060733Y-131949056D01*
X99931971Y-132868295D02*
X99980352Y-132916676D01*
X99980352Y-132916676D02*
X100125495Y-132965056D01*
X100125495Y-132965056D02*
X100222257Y-132965056D01*
X100222257Y-132965056D02*
X100367400Y-132916676D01*
X100367400Y-132916676D02*
X100464162Y-132819914D01*
X100464162Y-132819914D02*
X100512543Y-132723152D01*
X100512543Y-132723152D02*
X100560924Y-132529628D01*
X100560924Y-132529628D02*
X100560924Y-132384485D01*
X100560924Y-132384485D02*
X100512543Y-132190961D01*
X100512543Y-132190961D02*
X100464162Y-132094199D01*
X100464162Y-132094199D02*
X100367400Y-131997437D01*
X100367400Y-131997437D02*
X100222257Y-131949056D01*
X100222257Y-131949056D02*
X100125495Y-131949056D01*
X100125495Y-131949056D02*
X99980352Y-131997437D01*
X99980352Y-131997437D02*
X99931971Y-132045818D01*
X99351400Y-132965056D02*
X99448162Y-132916676D01*
X99448162Y-132916676D02*
X99496543Y-132868295D01*
X99496543Y-132868295D02*
X99544924Y-132771533D01*
X99544924Y-132771533D02*
X99544924Y-132481247D01*
X99544924Y-132481247D02*
X99496543Y-132384485D01*
X99496543Y-132384485D02*
X99448162Y-132336104D01*
X99448162Y-132336104D02*
X99351400Y-132287723D01*
X99351400Y-132287723D02*
X99206257Y-132287723D01*
X99206257Y-132287723D02*
X99109495Y-132336104D01*
X99109495Y-132336104D02*
X99061114Y-132384485D01*
X99061114Y-132384485D02*
X99012733Y-132481247D01*
X99012733Y-132481247D02*
X99012733Y-132771533D01*
X99012733Y-132771533D02*
X99061114Y-132868295D01*
X99061114Y-132868295D02*
X99109495Y-132916676D01*
X99109495Y-132916676D02*
X99206257Y-132965056D01*
X99206257Y-132965056D02*
X99351400Y-132965056D01*
X98577305Y-132287723D02*
X98577305Y-133303723D01*
X98577305Y-132336104D02*
X98480543Y-132287723D01*
X98480543Y-132287723D02*
X98287019Y-132287723D01*
X98287019Y-132287723D02*
X98190257Y-132336104D01*
X98190257Y-132336104D02*
X98141876Y-132384485D01*
X98141876Y-132384485D02*
X98093495Y-132481247D01*
X98093495Y-132481247D02*
X98093495Y-132771533D01*
X98093495Y-132771533D02*
X98141876Y-132868295D01*
X98141876Y-132868295D02*
X98190257Y-132916676D01*
X98190257Y-132916676D02*
X98287019Y-132965056D01*
X98287019Y-132965056D02*
X98480543Y-132965056D01*
X98480543Y-132965056D02*
X98577305Y-132916676D01*
X97754829Y-132287723D02*
X97512924Y-132965056D01*
X97271019Y-132287723D02*
X97512924Y-132965056D01*
X97512924Y-132965056D02*
X97609686Y-133206961D01*
X97609686Y-133206961D02*
X97658067Y-133255342D01*
X97658067Y-133255342D02*
X97754829Y-133303723D01*
X96883972Y-132965056D02*
X96883972Y-132287723D01*
X96883972Y-132481247D02*
X96835591Y-132384485D01*
X96835591Y-132384485D02*
X96787210Y-132336104D01*
X96787210Y-132336104D02*
X96690448Y-132287723D01*
X96690448Y-132287723D02*
X96593686Y-132287723D01*
X96255020Y-132965056D02*
X96255020Y-132287723D01*
X96255020Y-131949056D02*
X96303401Y-131997437D01*
X96303401Y-131997437D02*
X96255020Y-132045818D01*
X96255020Y-132045818D02*
X96206639Y-131997437D01*
X96206639Y-131997437D02*
X96255020Y-131949056D01*
X96255020Y-131949056D02*
X96255020Y-132045818D01*
X95335781Y-132287723D02*
X95335781Y-133110199D01*
X95335781Y-133110199D02*
X95384162Y-133206961D01*
X95384162Y-133206961D02*
X95432543Y-133255342D01*
X95432543Y-133255342D02*
X95529305Y-133303723D01*
X95529305Y-133303723D02*
X95674448Y-133303723D01*
X95674448Y-133303723D02*
X95771210Y-133255342D01*
X95335781Y-132916676D02*
X95432543Y-132965056D01*
X95432543Y-132965056D02*
X95626067Y-132965056D01*
X95626067Y-132965056D02*
X95722829Y-132916676D01*
X95722829Y-132916676D02*
X95771210Y-132868295D01*
X95771210Y-132868295D02*
X95819591Y-132771533D01*
X95819591Y-132771533D02*
X95819591Y-132481247D01*
X95819591Y-132481247D02*
X95771210Y-132384485D01*
X95771210Y-132384485D02*
X95722829Y-132336104D01*
X95722829Y-132336104D02*
X95626067Y-132287723D01*
X95626067Y-132287723D02*
X95432543Y-132287723D01*
X95432543Y-132287723D02*
X95335781Y-132336104D01*
X94851972Y-132965056D02*
X94851972Y-131949056D01*
X94416543Y-132965056D02*
X94416543Y-132432866D01*
X94416543Y-132432866D02*
X94464924Y-132336104D01*
X94464924Y-132336104D02*
X94561686Y-132287723D01*
X94561686Y-132287723D02*
X94706829Y-132287723D01*
X94706829Y-132287723D02*
X94803591Y-132336104D01*
X94803591Y-132336104D02*
X94851972Y-132384485D01*
X94077877Y-132287723D02*
X93690829Y-132287723D01*
X93932734Y-131949056D02*
X93932734Y-132819914D01*
X93932734Y-132819914D02*
X93884353Y-132916676D01*
X93884353Y-132916676D02*
X93787591Y-132965056D01*
X93787591Y-132965056D02*
X93690829Y-132965056D01*
X92626449Y-132045818D02*
X92578068Y-131997437D01*
X92578068Y-131997437D02*
X92481306Y-131949056D01*
X92481306Y-131949056D02*
X92239401Y-131949056D01*
X92239401Y-131949056D02*
X92142639Y-131997437D01*
X92142639Y-131997437D02*
X92094258Y-132045818D01*
X92094258Y-132045818D02*
X92045877Y-132142580D01*
X92045877Y-132142580D02*
X92045877Y-132239342D01*
X92045877Y-132239342D02*
X92094258Y-132384485D01*
X92094258Y-132384485D02*
X92674830Y-132965056D01*
X92674830Y-132965056D02*
X92045877Y-132965056D01*
X91416925Y-131949056D02*
X91320163Y-131949056D01*
X91320163Y-131949056D02*
X91223401Y-131997437D01*
X91223401Y-131997437D02*
X91175020Y-132045818D01*
X91175020Y-132045818D02*
X91126639Y-132142580D01*
X91126639Y-132142580D02*
X91078258Y-132336104D01*
X91078258Y-132336104D02*
X91078258Y-132578009D01*
X91078258Y-132578009D02*
X91126639Y-132771533D01*
X91126639Y-132771533D02*
X91175020Y-132868295D01*
X91175020Y-132868295D02*
X91223401Y-132916676D01*
X91223401Y-132916676D02*
X91320163Y-132965056D01*
X91320163Y-132965056D02*
X91416925Y-132965056D01*
X91416925Y-132965056D02*
X91513687Y-132916676D01*
X91513687Y-132916676D02*
X91562068Y-132868295D01*
X91562068Y-132868295D02*
X91610449Y-132771533D01*
X91610449Y-132771533D02*
X91658830Y-132578009D01*
X91658830Y-132578009D02*
X91658830Y-132336104D01*
X91658830Y-132336104D02*
X91610449Y-132142580D01*
X91610449Y-132142580D02*
X91562068Y-132045818D01*
X91562068Y-132045818D02*
X91513687Y-131997437D01*
X91513687Y-131997437D02*
X91416925Y-131949056D01*
X90691211Y-132045818D02*
X90642830Y-131997437D01*
X90642830Y-131997437D02*
X90546068Y-131949056D01*
X90546068Y-131949056D02*
X90304163Y-131949056D01*
X90304163Y-131949056D02*
X90207401Y-131997437D01*
X90207401Y-131997437D02*
X90159020Y-132045818D01*
X90159020Y-132045818D02*
X90110639Y-132142580D01*
X90110639Y-132142580D02*
X90110639Y-132239342D01*
X90110639Y-132239342D02*
X90159020Y-132384485D01*
X90159020Y-132384485D02*
X90739592Y-132965056D01*
X90739592Y-132965056D02*
X90110639Y-132965056D01*
X89191401Y-131949056D02*
X89675211Y-131949056D01*
X89675211Y-131949056D02*
X89723592Y-132432866D01*
X89723592Y-132432866D02*
X89675211Y-132384485D01*
X89675211Y-132384485D02*
X89578449Y-132336104D01*
X89578449Y-132336104D02*
X89336544Y-132336104D01*
X89336544Y-132336104D02*
X89239782Y-132384485D01*
X89239782Y-132384485D02*
X89191401Y-132432866D01*
X89191401Y-132432866D02*
X89143020Y-132529628D01*
X89143020Y-132529628D02*
X89143020Y-132771533D01*
X89143020Y-132771533D02*
X89191401Y-132868295D01*
X89191401Y-132868295D02*
X89239782Y-132916676D01*
X89239782Y-132916676D02*
X89336544Y-132965056D01*
X89336544Y-132965056D02*
X89578449Y-132965056D01*
X89578449Y-132965056D02*
X89675211Y-132916676D01*
X89675211Y-132916676D02*
X89723592Y-132868295D01*
X87981878Y-132674771D02*
X87498068Y-132674771D01*
X88078640Y-132965056D02*
X87739973Y-131949056D01*
X87739973Y-131949056D02*
X87401306Y-132965056D01*
X87062640Y-132432866D02*
X86723973Y-132432866D01*
X86578830Y-132965056D02*
X87062640Y-132965056D01*
X87062640Y-132965056D02*
X87062640Y-131949056D01*
X87062640Y-131949056D02*
X86578830Y-131949056D01*
X86191783Y-132916676D02*
X86046640Y-132965056D01*
X86046640Y-132965056D02*
X85804735Y-132965056D01*
X85804735Y-132965056D02*
X85707973Y-132916676D01*
X85707973Y-132916676D02*
X85659592Y-132868295D01*
X85659592Y-132868295D02*
X85611211Y-132771533D01*
X85611211Y-132771533D02*
X85611211Y-132674771D01*
X85611211Y-132674771D02*
X85659592Y-132578009D01*
X85659592Y-132578009D02*
X85707973Y-132529628D01*
X85707973Y-132529628D02*
X85804735Y-132481247D01*
X85804735Y-132481247D02*
X85998259Y-132432866D01*
X85998259Y-132432866D02*
X86095021Y-132384485D01*
X86095021Y-132384485D02*
X86143402Y-132336104D01*
X86143402Y-132336104D02*
X86191783Y-132239342D01*
X86191783Y-132239342D02*
X86191783Y-132142580D01*
X86191783Y-132142580D02*
X86143402Y-132045818D01*
X86143402Y-132045818D02*
X86095021Y-131997437D01*
X86095021Y-131997437D02*
X85998259Y-131949056D01*
X85998259Y-131949056D02*
X85756354Y-131949056D01*
X85756354Y-131949056D02*
X85611211Y-131997437D01*
X85175783Y-132965056D02*
X85175783Y-132287723D01*
X85175783Y-131949056D02*
X85224164Y-131997437D01*
X85224164Y-131997437D02*
X85175783Y-132045818D01*
X85175783Y-132045818D02*
X85127402Y-131997437D01*
X85127402Y-131997437D02*
X85175783Y-131949056D01*
X85175783Y-131949056D02*
X85175783Y-132045818D01*
X84546830Y-132965056D02*
X84643592Y-132916676D01*
X84643592Y-132916676D02*
X84691973Y-132819914D01*
X84691973Y-132819914D02*
X84691973Y-131949056D01*
X84159783Y-132965056D02*
X84159783Y-131949056D01*
X84063021Y-132578009D02*
X83772735Y-132965056D01*
X83772735Y-132287723D02*
X84159783Y-132674771D01*
X83434069Y-132287723D02*
X83192164Y-132965056D01*
X82950259Y-132287723D02*
X83192164Y-132965056D01*
X83192164Y-132965056D02*
X83288926Y-133206961D01*
X83288926Y-133206961D02*
X83337307Y-133255342D01*
X83337307Y-133255342D02*
X83434069Y-133303723D01*
D12*
%TO.P,J4,1,Pin_1*%
%TO.N,GND*%
X94234000Y-128778000D03*
D13*
%TO.P,J4,2,Pin_2*%
%TO.N,/PD3*%
X94234000Y-126238000D03*
%TO.P,J4,3,Pin_3*%
%TO.N,/PD2*%
X94234000Y-123698000D03*
%TD*%
D14*
%TO.P,U10,1,A18*%
%TO.N,/BA18*%
X181610000Y-88900000D03*
D15*
%TO.P,U10,2,A16*%
%TO.N,/BA16*%
X181610000Y-91440000D03*
%TO.P,U10,3,A15*%
%TO.N,/BA15*%
X181610000Y-93980000D03*
%TO.P,U10,4,A12*%
%TO.N,/BA12*%
X181610000Y-96520000D03*
%TO.P,U10,5,A7*%
%TO.N,/BA7*%
X181610000Y-99060000D03*
%TO.P,U10,6,A6*%
%TO.N,/BA6*%
X181610000Y-101600000D03*
%TO.P,U10,7,A5*%
%TO.N,/BA5*%
X181610000Y-104140000D03*
%TO.P,U10,8,A4*%
%TO.N,/BA4*%
X181610000Y-106680000D03*
%TO.P,U10,9,A3*%
%TO.N,/BA3*%
X181610000Y-109220000D03*
%TO.P,U10,10,A2*%
%TO.N,/BA2*%
X181610000Y-111760000D03*
%TO.P,U10,11,A1*%
%TO.N,/BA1*%
X181610000Y-114300000D03*
%TO.P,U10,12,A0*%
%TO.N,/BA0*%
X181610000Y-116840000D03*
%TO.P,U10,13,D0*%
%TO.N,/BD0*%
X181610000Y-119380000D03*
%TO.P,U10,14,D1*%
%TO.N,/BD1*%
X181610000Y-121920000D03*
%TO.P,U10,15,D2*%
%TO.N,/BD2*%
X181610000Y-124460000D03*
%TO.P,U10,16,GND*%
%TO.N,GND*%
X181610000Y-127000000D03*
%TO.P,U10,17,D3*%
%TO.N,/BD3*%
X196850000Y-127000000D03*
%TO.P,U10,18,D4*%
%TO.N,/BD4*%
X196850000Y-124460000D03*
%TO.P,U10,19,D5*%
%TO.N,/BD5*%
X196850000Y-121920000D03*
%TO.P,U10,20,D6*%
%TO.N,/BD6*%
X196850000Y-119380000D03*
%TO.P,U10,21,D7*%
%TO.N,/BD7*%
X196850000Y-116840000D03*
%TO.P,U10,22,CE*%
%TO.N,/F_SEL-*%
X196850000Y-114300000D03*
%TO.P,U10,23,A10*%
%TO.N,/BA10*%
X196850000Y-111760000D03*
%TO.P,U10,24,OE*%
%TO.N,/PRD-*%
X196850000Y-109220000D03*
%TO.P,U10,25,A11*%
%TO.N,/BA11*%
X196850000Y-106680000D03*
%TO.P,U10,26,A9*%
%TO.N,/BA9*%
X196850000Y-104140000D03*
%TO.P,U10,27,A8*%
%TO.N,/BA8*%
X196850000Y-101600000D03*
%TO.P,U10,28,A13*%
%TO.N,/BA13*%
X196850000Y-99060000D03*
%TO.P,U10,29,A14*%
%TO.N,/BA14*%
X196850000Y-96520000D03*
%TO.P,U10,30,A17*%
%TO.N,/BA17*%
X196850000Y-93980000D03*
%TO.P,U10,31,PGM*%
%TO.N,/FWR-*%
X196850000Y-91440000D03*
%TO.P,U10,32,VCC*%
%TO.N,+5VP*%
X196850000Y-88900000D03*
%TD*%
D16*
%TO.P,U3,1,GPIO0*%
%TO.N,/RE_A*%
X101600000Y-79502000D03*
%TO.P,U3,2,GPIO1*%
%TO.N,/RE_B*%
X101600000Y-82042000D03*
D12*
%TO.P,U3,3,GND*%
%TO.N,GND*%
X101600000Y-84582000D03*
D16*
%TO.P,U3,4,GPIO2*%
%TO.N,/SPICK*%
X101600000Y-87122000D03*
%TO.P,U3,5,GPIO3*%
%TO.N,/SPIMO*%
X101600000Y-89662000D03*
%TO.P,U3,6,GPIO4*%
%TO.N,/SPIMI*%
X101600000Y-92202000D03*
%TO.P,U3,7,GPIO5*%
%TO.N,/CARD_CS-*%
X101600000Y-94742000D03*
D12*
%TO.P,U3,8,GND*%
%TO.N,GND*%
X101600000Y-97282000D03*
D16*
%TO.P,U3,9,GPIO6*%
%TO.N,/DISP_CS-*%
X101600000Y-99822000D03*
%TO.P,U3,10,GPIO7*%
%TO.N,/SD_DET-*%
X101600000Y-102362000D03*
%TO.P,U3,11,GPIO8*%
%TO.N,/RE_SW-*%
X101600000Y-104902000D03*
%TO.P,U3,12,GPIO9*%
%TO.N,/FPWR_ON*%
X101600000Y-107442000D03*
D12*
%TO.P,U3,13,GND*%
%TO.N,GND*%
X101600000Y-109982000D03*
D16*
%TO.P,U3,14,GPIO10*%
%TO.N,/PD0*%
X101600000Y-112522000D03*
%TO.P,U3,15,GPIO11*%
%TO.N,/PD1*%
X101600000Y-115062000D03*
%TO.P,U3,16,GPIO12*%
%TO.N,/PD2*%
X101600000Y-117602000D03*
%TO.P,U3,17,GPIO13*%
%TO.N,/PD3*%
X101600000Y-120142000D03*
D12*
%TO.P,U3,18,GND*%
%TO.N,GND*%
X101600000Y-122682000D03*
D16*
%TO.P,U3,19,GPIO14*%
%TO.N,/PD4*%
X101600000Y-125222000D03*
%TO.P,U3,20,GPIO15*%
%TO.N,/PD5*%
X101600000Y-127762000D03*
%TO.P,U3,21,GPIO16*%
%TO.N,/PD6*%
X119380000Y-127762000D03*
%TO.P,U3,22,GPIO17*%
%TO.N,/PD7*%
X119380000Y-125222000D03*
D12*
%TO.P,U3,23,GND*%
%TO.N,GND*%
X119380000Y-122682000D03*
D16*
%TO.P,U3,24,GPIO18*%
%TO.N,/PRD-*%
X119380000Y-120142000D03*
%TO.P,U3,25,GPIO19*%
%TO.N,/PWR-*%
X119380000Y-117602000D03*
%TO.P,U3,26,GPIO20*%
%TO.N,/DATA_LCH*%
X119380000Y-115062000D03*
%TO.P,U3,27,GPIO21*%
%TO.N,/FWR-*%
X119380000Y-112522000D03*
D12*
%TO.P,U3,28,GND*%
%TO.N,GND*%
X119380000Y-109982000D03*
D16*
%TO.P,U3,29,GPIO22*%
%TO.N,Net-(U3-GPIO22)*%
X119380000Y-107442000D03*
%TO.P,U3,30,RUN*%
%TO.N,/RESET-*%
X119380000Y-104902000D03*
%TO.P,U3,31,GPIO26_ADC0*%
%TO.N,/A0*%
X119380000Y-102362000D03*
%TO.P,U3,32,GPIO27_ADC1*%
%TO.N,/A1*%
X119380000Y-99822000D03*
D12*
%TO.P,U3,33,AGND*%
%TO.N,GND*%
X119380000Y-97282000D03*
D16*
%TO.P,U3,34,GPIO28_ADC2*%
%TO.N,/A2*%
X119380000Y-94742000D03*
%TO.P,U3,35,ADC_VREF*%
%TO.N,unconnected-(U3-ADC_VREF-Pad35)_1*%
X119380000Y-92202000D03*
%TO.P,U3,36,3V3*%
%TO.N,+3.3V*%
X119380000Y-89662000D03*
%TO.P,U3,37,3V3_EN*%
%TO.N,unconnected-(U3-3V3_EN-Pad37)_1*%
X119380000Y-87122000D03*
D12*
%TO.P,U3,38,GND*%
%TO.N,GND*%
X119380000Y-84582000D03*
D16*
%TO.P,U3,39,VSYS*%
%TO.N,+5V*%
X119380000Y-82042000D03*
%TO.P,U3,40,VBUS*%
X119380000Y-79502000D03*
%TO.P,U3,D1,SWCLK*%
%TO.N,unconnected-(U3-SWCLK-PadD1)_1*%
X107954000Y-127802000D03*
D12*
%TO.P,U3,D2,GND*%
%TO.N,unconnected-(U3-GND-PadD2)_1*%
X110494000Y-127802000D03*
D16*
%TO.P,U3,D3,SWDIO*%
%TO.N,unconnected-(U3-SWDIO-PadD3)*%
X113034000Y-127802000D03*
%TD*%
D17*
%TO.P,RE1,A,A*%
%TO.N,/RE_A*%
X88225000Y-103875000D03*
D18*
%TO.P,RE1,B,B*%
%TO.N,/RE_B*%
X83225000Y-103875000D03*
%TO.P,RE1,C,C*%
%TO.N,GND*%
X85725000Y-103875000D03*
D19*
%TO.P,RE1,MP*%
%TO.N,N/C*%
X91325000Y-111375000D03*
X80125000Y-111375000D03*
D18*
%TO.P,RE1,S1,S1*%
%TO.N,GND*%
X83225000Y-118375000D03*
%TO.P,RE1,S2,S2*%
%TO.N,/RE_SW-*%
X88225000Y-118375000D03*
%TD*%
D20*
%TO.P,LED3,1,K*%
%TO.N,GND*%
X170815000Y-107950000D03*
D21*
%TO.P,LED3,2,A*%
%TO.N,Net-(LED3-A)*%
X170815000Y-110490000D03*
%TD*%
D20*
%TO.P,LED2,1,K*%
%TO.N,GND*%
X139700000Y-81026000D03*
D21*
%TO.P,LED2,2,A*%
%TO.N,Net-(LED2-A)*%
X139700000Y-83566000D03*
%TD*%
D20*
%TO.P,LED1,1,K*%
%TO.N,GND*%
X170815000Y-95250000D03*
D21*
%TO.P,LED1,2,A*%
%TO.N,Net-(LED1-A)*%
X170815000Y-97790000D03*
%TD*%
D12*
%TO.P,J3,1,Pin_1*%
%TO.N,GND*%
X149992000Y-81915000D03*
D13*
%TO.P,J3,2,Pin_2*%
%TO.N,+3.3V*%
X147452000Y-81915000D03*
%TD*%
D12*
%TO.P,J2,1,Pin_1*%
%TO.N,GND*%
X88519000Y-98171000D03*
D13*
%TO.P,J2,2,Pin_2*%
%TO.N,/RE_B*%
X91059000Y-98171000D03*
%TO.P,J2,3,Pin_3*%
%TO.N,/RE_A*%
X93599000Y-98171000D03*
%TD*%
D12*
%TO.P,J1,1,Pin_1*%
%TO.N,GND*%
X138083500Y-94488000D03*
D13*
%TO.P,J1,2,Pin_2*%
%TO.N,+3.3V*%
X140623500Y-94488000D03*
%TO.P,J1,3,Pin_3*%
%TO.N,/SPICK*%
X143163500Y-94488000D03*
%TO.P,J1,4,Pin_4*%
%TO.N,/SPIMO*%
X145703500Y-94488000D03*
%TO.P,J1,5,Pin_5*%
%TO.N,/DISPRST-*%
X148243500Y-94488000D03*
%TO.P,J1,6,Pin_6*%
%TO.N,/DISP_CD*%
X150783500Y-94488000D03*
%TO.P,J1,7,Pin_7*%
%TO.N,/DISP_CS-*%
X153323500Y-94488000D03*
%TD*%
D22*
%TO.N,GND*%
X165354000Y-106426000D03*
%TO.N,+3.3V*%
X138938000Y-132588000D03*
%TO.N,+5V*%
X153416000Y-100330000D03*
%TO.N,+3.3V*%
X138430000Y-126746000D03*
X87884000Y-95250000D03*
%TO.N,GND*%
X153162000Y-87630000D03*
%TO.N,+5V*%
X153162000Y-89408000D03*
X152146000Y-131826000D03*
X155955000Y-121412000D03*
X155702000Y-112268000D03*
X151638000Y-112522000D03*
X139192000Y-118618000D03*
X132080000Y-98806000D03*
D23*
%TO.N,/FPWR_ON*%
X148717000Y-111379000D03*
D22*
%TO.N,+5V*%
X140970000Y-112014000D03*
%TO.N,+5VP*%
X175260000Y-87376000D03*
%TO.N,GND*%
X173228000Y-87376000D03*
%TO.N,+5VP*%
X169164000Y-105918000D03*
X149352000Y-112776000D03*
%TO.N,GND*%
X126492000Y-124460000D03*
X139700000Y-123190000D03*
X148336000Y-121691400D03*
X153670000Y-120650000D03*
X153670000Y-131371000D03*
X165862000Y-129032000D03*
X165862000Y-124460000D03*
X165354000Y-112776000D03*
X165354000Y-117348000D03*
X165354000Y-101092000D03*
X165608000Y-90678000D03*
X166370000Y-84238100D03*
X166370000Y-80518000D03*
X153416000Y-98552000D03*
X153670000Y-109474000D03*
X144272000Y-104140000D03*
X138430000Y-101854000D03*
X139446000Y-108712000D03*
X124206000Y-108458000D03*
X96520000Y-81026000D03*
D23*
%TO.N,/PD5*%
X103835200Y-106172000D03*
%TO.N,/PD4*%
X129184400Y-128574800D03*
X129743200Y-127000000D03*
%TO.N,/PD7*%
X108356400Y-109880400D03*
X127457200Y-110439200D03*
X153771600Y-112369600D03*
%TO.N,/PD2*%
X136245600Y-129032000D03*
X136245600Y-126949200D03*
%TO.N,/PD3*%
X131759552Y-129489200D03*
X131775200Y-125984000D03*
%TO.N,/PWR-*%
X138582400Y-115722400D03*
%TO.N,/PD0*%
X142697200Y-130289300D03*
X142697200Y-127203200D03*
%TO.N,/PD3*%
X132384800Y-102616000D03*
%TO.N,/PD0*%
X136194800Y-111201200D03*
X127863600Y-111201200D03*
%TO.N,/PD1*%
X135514300Y-112928400D03*
X126703433Y-112936633D03*
%TO.N,/PD2*%
X132994400Y-116179600D03*
X124764800Y-116179600D03*
%TO.N,/PD3*%
X124409200Y-129641600D03*
X129743200Y-129641600D03*
%TO.N,/PRD-*%
X137414000Y-120294400D03*
%TO.N,/PD7*%
X127304800Y-128384300D03*
%TO.N,/PD4*%
X129193500Y-130561539D03*
X118173500Y-130492500D03*
%TO.N,/PD6*%
X124460000Y-127762000D03*
X128270000Y-127762000D03*
%TO.N,/FPWR_ON*%
X108813600Y-108102400D03*
%TO.N,/BD2*%
X134366000Y-129667000D03*
%TO.N,/SPIMO*%
X145669000Y-90551000D03*
%TO.N,/SPICK*%
X143129000Y-88265000D03*
%TO.N,/A0*%
X131114800Y-102489000D03*
X136436100Y-101650800D03*
%TO.N,/A1*%
X135178800Y-100990400D03*
X132740400Y-101104700D03*
%TO.N,/RESET-*%
X126238000Y-91173300D03*
%TO.N,/ADL_LD-*%
X140868400Y-116078000D03*
X153797000Y-116078000D03*
%TO.N,/PD6*%
X128524000Y-114554000D03*
X153797000Y-114808000D03*
%TO.N,/PD4*%
X131098500Y-106807000D03*
X147462621Y-106819700D03*
X160197706Y-105969176D03*
%TO.N,/DISP_CS-*%
X131064000Y-91948000D03*
%TO.N,/DISPRST-*%
X148209000Y-97028000D03*
X141478000Y-97028000D03*
%TO.N,/DISP_CD*%
X150749000Y-97663000D03*
X142748000Y-97663000D03*
%TO.N,/PD2*%
X152273000Y-129032000D03*
%TO.N,/PD1*%
X134874000Y-130556000D03*
X134874000Y-124333000D03*
%TO.N,/ADM_LD-*%
X137731500Y-96456500D03*
X153797000Y-96393000D03*
%TO.N,/ADL_LD-*%
X157088585Y-127139700D03*
X157099000Y-116078000D03*
%TO.N,/PD0*%
X161718600Y-110236000D03*
X161036000Y-132207000D03*
%TO.N,/PD3*%
X156337000Y-124587000D03*
X156959300Y-102616000D03*
%TO.N,/PD4*%
X160909000Y-121158000D03*
X160147000Y-99060000D03*
%TO.N,/ADM_LD-*%
X160401000Y-105156000D03*
X161036000Y-95885000D03*
%TO.N,/PD6*%
X161718600Y-114808000D03*
X161417000Y-105918000D03*
X161683700Y-101219000D03*
X161671000Y-92718900D03*
%TO.N,/PD7*%
X156718000Y-113538000D03*
X156718000Y-91440000D03*
%TO.N,/PD5*%
X129828500Y-106172000D03*
X146685000Y-103313793D03*
X161276300Y-103124000D03*
%TO.N,/PD0*%
X155956000Y-110236000D03*
X155194000Y-91440000D03*
%TO.N,/PD1*%
X167132000Y-122428000D03*
X167132000Y-124333000D03*
X167132000Y-132334000D03*
%TO.N,/PD5*%
X165862000Y-122428000D03*
X166370000Y-103124000D03*
%TO.N,/PD1*%
X167132000Y-111506000D03*
X167132000Y-99682300D03*
X167132000Y-102743000D03*
X167132000Y-89408000D03*
%TO.N,/PD2*%
X154559000Y-125857000D03*
X154559000Y-103881126D03*
X150749000Y-90932000D03*
%TO.N,/PD3*%
X147208621Y-102635526D03*
X146812000Y-100215700D03*
%TO.N,/BD0*%
X136178500Y-121031000D03*
X153670000Y-121793000D03*
X172974000Y-119380000D03*
%TO.N,/BD1*%
X171958000Y-121920000D03*
X134892000Y-121031000D03*
X153670000Y-124968000D03*
%TO.N,/BD2*%
X133604000Y-124333000D03*
X162179000Y-132834300D03*
%TO.N,/F_SEL-*%
X140242500Y-100990400D03*
X146685000Y-101981000D03*
X183388000Y-100330000D03*
X161276300Y-102010144D03*
%TO.N,/BD7*%
X127288500Y-121031000D03*
X133004152Y-127762000D03*
X154559000Y-127762000D03*
X139954000Y-127762000D03*
X162341994Y-127721644D03*
%TO.N,/BD5*%
X129794000Y-124460000D03*
%TO.N,/BD4*%
X131098500Y-124460000D03*
%TO.N,/PRD-*%
X137414000Y-126111000D03*
X175271700Y-115563464D03*
%TO.N,/ACLK*%
X143002000Y-107569000D03*
X146939000Y-107569000D03*
X160147000Y-130937000D03*
X160147000Y-119888000D03*
X160147000Y-108966000D03*
X160147000Y-97790000D03*
X160147000Y-86868000D03*
%TO.N,Net-(U8-~{RC})*%
X162306000Y-85598000D03*
X162306000Y-93345000D03*
%TO.N,/BA11*%
X193040000Y-102870000D03*
%TO.N,/BA15*%
X168275000Y-92718900D03*
%TO.N,/BA14*%
X168529000Y-93980000D03*
%TO.N,/BA11*%
X168407079Y-103876917D03*
%TO.N,/BA10*%
X168402000Y-105156000D03*
%TO.N,/BA8*%
X169037000Y-108966000D03*
%TO.N,/BA9*%
X169037000Y-110109000D03*
%TO.N,/BA4*%
X178562000Y-106680000D03*
%TO.N,/BA0*%
X176530000Y-116967000D03*
%TO.N,/BD3*%
X132358400Y-124460000D03*
X182499000Y-128778000D03*
%TO.N,Net-(U3-GPIO22)*%
X85598000Y-125650000D03*
%TO.N,/CARD_CS-*%
X85217000Y-96139000D03*
%TO.N,/SPIMI*%
X90721000Y-92202000D03*
%TO.N,/SPIMO*%
X86360000Y-89662000D03*
%TO.N,/SPICK*%
X88519000Y-87122000D03*
%TD*%
D24*
%TO.N,/PRD-*%
X151356876Y-131572000D02*
X137414000Y-131572000D01*
X151840476Y-131088400D02*
X151356876Y-131572000D01*
X152451524Y-131088400D02*
X151840476Y-131088400D01*
X152883600Y-131520476D02*
X152451524Y-131088400D01*
X161718694Y-124539306D02*
X161718694Y-132405786D01*
X161718694Y-132405786D02*
X161294180Y-132830300D01*
X163206699Y-123051300D02*
X161718694Y-124539306D01*
X152883600Y-131627724D02*
X152883600Y-131520476D01*
X167783864Y-123051300D02*
X163206699Y-123051300D01*
X175271700Y-115563464D02*
X167783864Y-123051300D01*
X161294180Y-132830300D02*
X154086176Y-132830300D01*
X154086176Y-132830300D02*
X152883600Y-131627724D01*
X137414000Y-131572000D02*
X137414000Y-126111000D01*
%TO.N,/DISP_CS-*%
X153323500Y-93125500D02*
X153323500Y-94488000D01*
X152146000Y-91948000D02*
X153323500Y-93125500D01*
X131064000Y-91948000D02*
X152146000Y-91948000D01*
%TO.N,/RESET-*%
X125603000Y-104902000D02*
X119380000Y-104902000D01*
X126238000Y-91173300D02*
X126111000Y-91300300D01*
X126111000Y-91300300D02*
X126111000Y-104394000D01*
X126111000Y-104394000D02*
X125603000Y-104902000D01*
%TO.N,/CARD_CS-*%
X85344000Y-96266000D02*
X85217000Y-96139000D01*
X100076000Y-96266000D02*
X85344000Y-96266000D01*
X101600000Y-94742000D02*
X100076000Y-96266000D01*
%TO.N,/FWR-*%
X126238000Y-112522000D02*
X119380000Y-112522000D01*
X126619000Y-112141000D02*
X126238000Y-112522000D01*
X127508000Y-91313000D02*
X126619000Y-92202000D01*
X175465600Y-84974700D02*
X152261300Y-84974700D01*
X126619000Y-92202000D02*
X126619000Y-112141000D01*
X196078200Y-90414200D02*
X180905100Y-90414200D01*
X180905100Y-90414200D02*
X175465600Y-84974700D01*
X152261300Y-84974700D02*
X145923000Y-91313000D01*
X145923000Y-91313000D02*
X127508000Y-91313000D01*
X196850000Y-91186000D02*
X196078200Y-90414200D01*
%TO.N,/PD3*%
X157341300Y-103427800D02*
X156744400Y-102830900D01*
X157341300Y-113796180D02*
X157341300Y-103427800D01*
X156744400Y-102830900D02*
X156959300Y-102616000D01*
X156475700Y-114661780D02*
X157341300Y-113796180D01*
X156691600Y-116552080D02*
X156475700Y-116336180D01*
X156475700Y-116336180D02*
X156475700Y-114661780D01*
X156691600Y-124232400D02*
X156691600Y-116552080D01*
X156337000Y-124587000D02*
X156691600Y-124232400D01*
%TO.N,/FPWR_ON*%
X145923000Y-114173000D02*
X148717000Y-111379000D01*
X142240000Y-114173000D02*
X145923000Y-114173000D01*
X141909800Y-113842800D02*
X114554000Y-113842800D01*
X114554000Y-113842800D02*
X108813600Y-108102400D01*
X142240000Y-114173000D02*
X141909800Y-113842800D01*
%TO.N,/ACLK*%
X146939000Y-107569000D02*
X143002000Y-107569000D01*
%TO.N,/BD0*%
X153289000Y-121793000D02*
X153670000Y-121793000D01*
X152450800Y-120954800D02*
X153289000Y-121793000D01*
X136254700Y-120954800D02*
X152450800Y-120954800D01*
X136178500Y-121031000D02*
X136254700Y-120954800D01*
%TO.N,/PD5*%
X166370000Y-121920000D02*
X165862000Y-122428000D01*
X166370000Y-103124000D02*
X166370000Y-121920000D01*
X166370000Y-103124000D02*
X161276300Y-103124000D01*
X103835200Y-125526800D02*
X101600000Y-127762000D01*
X103835200Y-106172000D02*
X103835200Y-125526800D01*
%TO.N,/PD4*%
X129743200Y-128016000D02*
X129184400Y-128574800D01*
X129743200Y-127000000D02*
X129743200Y-128016000D01*
%TO.N,/PD7*%
X108356400Y-109880400D02*
X108356400Y-114198400D01*
X108356400Y-114198400D02*
X119380000Y-125222000D01*
X151841200Y-110439200D02*
X127457200Y-110439200D01*
X153771600Y-112369600D02*
X151841200Y-110439200D01*
%TO.N,/PD2*%
X136245600Y-126949200D02*
X136245600Y-129032000D01*
%TO.N,/PD3*%
X131775200Y-125984000D02*
X131775200Y-129473552D01*
X131775200Y-129473552D02*
X131759552Y-129489200D01*
%TO.N,/BD4*%
X191516000Y-129413000D02*
X196723000Y-124206000D01*
X183642000Y-129413000D02*
X191516000Y-129413000D01*
X179191000Y-133864000D02*
X183642000Y-129413000D01*
X131013200Y-124545300D02*
X131013200Y-133045200D01*
X131013200Y-133045200D02*
X131832000Y-133864000D01*
X131098500Y-124460000D02*
X131013200Y-124545300D01*
X131832000Y-133864000D02*
X179191000Y-133864000D01*
%TO.N,/BD3*%
X180721000Y-130556000D02*
X182499000Y-128778000D01*
X167660400Y-133456600D02*
X170561000Y-130556000D01*
X132381852Y-127053748D02*
X132381852Y-132635852D01*
X133202600Y-133456600D02*
X167660400Y-133456600D01*
X170561000Y-130556000D02*
X180721000Y-130556000D01*
X132573300Y-126862300D02*
X132381852Y-127053748D01*
X132573300Y-124674900D02*
X132573300Y-126862300D01*
X132381852Y-132635852D02*
X133202600Y-133456600D01*
X132358400Y-124460000D02*
X132573300Y-124674900D01*
%TO.N,/PWR-*%
X138582400Y-115722400D02*
X136702800Y-117602000D01*
X136702800Y-117602000D02*
X119380000Y-117602000D01*
%TO.N,/PD0*%
X142697200Y-130289300D02*
X142697200Y-127203200D01*
%TO.N,/BD7*%
X141325600Y-126390400D02*
X139954000Y-127762000D01*
X153187400Y-126390400D02*
X141325600Y-126390400D01*
X154559000Y-127762000D02*
X153187400Y-126390400D01*
%TO.N,/PD3*%
X132404326Y-102635526D02*
X147208621Y-102635526D01*
X132384800Y-102616000D02*
X132404326Y-102635526D01*
%TO.N,/A0*%
X132998580Y-101728000D02*
X131875800Y-101728000D01*
X133075780Y-101650800D02*
X132998580Y-101728000D01*
X131875800Y-101728000D02*
X131114800Y-102489000D01*
X136436100Y-101650800D02*
X133075780Y-101650800D01*
%TO.N,/F_SEL-*%
X145694400Y-100990400D02*
X140242500Y-100990400D01*
X146685000Y-101981000D02*
X145694400Y-100990400D01*
%TO.N,/A1*%
X132753100Y-101092000D02*
X132740400Y-101104700D01*
X135077200Y-101092000D02*
X132753100Y-101092000D01*
X135178800Y-100990400D02*
X135077200Y-101092000D01*
%TO.N,/ADL_LD-*%
X153797000Y-116078000D02*
X140868400Y-116078000D01*
%TO.N,/PD6*%
X153785300Y-114796300D02*
X153797000Y-114808000D01*
X141981820Y-114796300D02*
X153785300Y-114796300D01*
X141739520Y-114554000D02*
X141981820Y-114796300D01*
X128524000Y-114554000D02*
X141739520Y-114554000D01*
%TO.N,/PD1*%
X127965200Y-112928400D02*
X135514300Y-112928400D01*
X127956967Y-112936633D02*
X127965200Y-112928400D01*
X126703433Y-112936633D02*
X127956967Y-112936633D01*
%TO.N,/PD0*%
X127863600Y-111201200D02*
X136194800Y-111201200D01*
%TO.N,/PD2*%
X124764800Y-116179600D02*
X132994400Y-116179600D01*
%TO.N,/PD3*%
X124409200Y-129641600D02*
X129743200Y-129641600D01*
%TO.N,/PD4*%
X118237000Y-130556000D02*
X129187961Y-130556000D01*
X129187961Y-130556000D02*
X129193500Y-130561539D01*
X118173500Y-130492500D02*
X118237000Y-130556000D01*
%TO.N,/PD7*%
X122543300Y-128385300D02*
X119380000Y-125222000D01*
X124731880Y-128371600D02*
X124718180Y-128385300D01*
X127304800Y-128384300D02*
X127292100Y-128371600D01*
X127292100Y-128371600D02*
X124731880Y-128371600D01*
X124718180Y-128385300D02*
X122543300Y-128385300D01*
%TO.N,Net-(U3-GPIO22)*%
X85598000Y-129667000D02*
X85598000Y-125650000D01*
X104521000Y-130175000D02*
X103759000Y-130937000D01*
X104521000Y-108889800D02*
X104521000Y-130175000D01*
X105968800Y-107442000D02*
X104521000Y-108889800D01*
X103759000Y-130937000D02*
X86868000Y-130937000D01*
X86868000Y-130937000D02*
X85598000Y-129667000D01*
X119380000Y-107442000D02*
X105968800Y-107442000D01*
%TO.N,/PRD-*%
X137261600Y-120142000D02*
X137414000Y-120294400D01*
X119380000Y-120142000D02*
X137261600Y-120142000D01*
%TO.N,/BD7*%
X133004152Y-126124352D02*
X133004152Y-127762000D01*
X132980700Y-126100900D02*
X133004152Y-126124352D01*
X132980700Y-121423700D02*
X132980700Y-126100900D01*
X127288500Y-121031000D02*
X132588000Y-121031000D01*
X132588000Y-121031000D02*
X132980700Y-121423700D01*
%TO.N,/BD1*%
X138811000Y-124968000D02*
X153670000Y-124968000D01*
X134892000Y-121049000D02*
X138811000Y-124968000D01*
X134892000Y-121031000D02*
X134892000Y-121049000D01*
%TO.N,/BD5*%
X130429000Y-125095000D02*
X129794000Y-124460000D01*
X191309300Y-134271400D02*
X130969400Y-134271400D01*
X130969400Y-134271400D02*
X130429000Y-133731000D01*
X198155800Y-127424900D02*
X191309300Y-134271400D01*
X198155800Y-123225800D02*
X198155800Y-127424900D01*
X196850000Y-121920000D02*
X198155800Y-123225800D01*
X130429000Y-133731000D02*
X130429000Y-125095000D01*
%TO.N,/PD6*%
X128270000Y-127762000D02*
X124460000Y-127762000D01*
%TO.N,/BD2*%
X134366000Y-125095000D02*
X133604000Y-124333000D01*
X134366000Y-129667000D02*
X134366000Y-125095000D01*
%TO.N,/PD1*%
X135255000Y-124714000D02*
X135255000Y-130175000D01*
X134874000Y-124333000D02*
X135255000Y-124714000D01*
X135255000Y-130175000D02*
X134874000Y-130556000D01*
%TO.N,/SPIMO*%
X122936000Y-90551000D02*
X145669000Y-90551000D01*
X102806600Y-90868600D02*
X122618400Y-90868600D01*
X122618400Y-90868600D02*
X122936000Y-90551000D01*
X101600000Y-89662000D02*
X102806600Y-90868600D01*
%TO.N,/SPICK*%
X143116200Y-88277800D02*
X143129000Y-88265000D01*
X102755800Y-88277800D02*
X143116200Y-88277800D01*
X101600000Y-87122000D02*
X102755800Y-88277800D01*
%TO.N,/PD5*%
X131572580Y-106399600D02*
X146396548Y-106399600D01*
X131344980Y-106172000D02*
X131572580Y-106399600D01*
X129828500Y-106172000D02*
X131344980Y-106172000D01*
X146396548Y-106399600D02*
X146685000Y-106111148D01*
X146685000Y-106111148D02*
X146685000Y-103313793D01*
%TO.N,/PD4*%
X146227797Y-106807000D02*
X131098500Y-106807000D01*
X146240497Y-106819700D02*
X146227797Y-106807000D01*
X147462621Y-106819700D02*
X146240497Y-106819700D01*
X160083500Y-105854500D02*
X160909000Y-106680000D01*
X160083500Y-105854500D02*
X160197706Y-105968706D01*
X160197706Y-105968706D02*
X160197706Y-105969176D01*
X160909000Y-119768520D02*
X160909000Y-121158000D01*
X160554400Y-119413920D02*
X160909000Y-119768520D01*
X160909000Y-106680000D02*
X160909000Y-109085480D01*
X159512000Y-105283000D02*
X160083500Y-105854500D01*
X159512000Y-99695000D02*
X159512000Y-105283000D01*
X160909000Y-109085480D02*
X160554400Y-109440080D01*
X160554400Y-109440080D02*
X160554400Y-119413920D01*
X160147000Y-99060000D02*
X159512000Y-99695000D01*
%TO.N,/PD6*%
X161417000Y-109601000D02*
X161036000Y-109982000D01*
X161036000Y-109982000D02*
X161036000Y-114125400D01*
X161417000Y-105918000D02*
X161417000Y-109601000D01*
X161036000Y-114125400D02*
X161718600Y-114808000D01*
%TO.N,/DISPRST-*%
X141478000Y-97028000D02*
X148209000Y-97028000D01*
%TO.N,/DISP_CD*%
X142748000Y-97663000D02*
X150749000Y-97663000D01*
%TO.N,/PD2*%
X155194000Y-128778000D02*
X155194000Y-126492000D01*
X155194000Y-126492000D02*
X154559000Y-125857000D01*
X152273000Y-129032000D02*
X154940000Y-129032000D01*
X154940000Y-129032000D02*
X155194000Y-128778000D01*
%TO.N,/ADM_LD-*%
X153797000Y-96393000D02*
X137795000Y-96393000D01*
X137795000Y-96393000D02*
X137731500Y-96456500D01*
%TO.N,/PD3*%
X147320000Y-102524147D02*
X147208621Y-102635526D01*
X147320000Y-100723700D02*
X147320000Y-102524147D01*
X146812000Y-100215700D02*
X147320000Y-100723700D01*
%TO.N,/ADL_LD-*%
X157088585Y-127139700D02*
X157088585Y-126936863D01*
X157088585Y-126936863D02*
X157099000Y-126926448D01*
X157099000Y-126926448D02*
X157099000Y-116078000D01*
%TO.N,/PD0*%
X161718600Y-110236000D02*
X162078400Y-110236000D01*
X162341900Y-110499500D02*
X162078400Y-110236000D01*
X162341900Y-120606580D02*
X162341900Y-110499500D01*
X161036000Y-121912480D02*
X162341900Y-120606580D01*
X161036000Y-132207000D02*
X161036000Y-121912480D01*
%TO.N,/BD2*%
X176022000Y-124460000D02*
X181610000Y-124460000D01*
X167432800Y-133049200D02*
X176022000Y-124460000D01*
X162393900Y-133049200D02*
X167432800Y-133049200D01*
X162179000Y-132834300D02*
X162393900Y-133049200D01*
%TO.N,/BD7*%
X192795800Y-120894200D02*
X196850000Y-116840000D01*
X170517114Y-120894200D02*
X192795800Y-120894200D01*
X163375450Y-123458700D02*
X167952615Y-123458700D01*
X162306000Y-127685650D02*
X162306000Y-124528150D01*
X162306000Y-124528150D02*
X163375450Y-123458700D01*
X167952615Y-123458700D02*
X170517114Y-120894200D01*
X162341994Y-127721644D02*
X162306000Y-127685650D01*
%TO.N,/PD7*%
X156579300Y-113399300D02*
X156718000Y-113538000D01*
X156579300Y-109977820D02*
X156579300Y-113399300D01*
X156337000Y-109735520D02*
X156579300Y-109977820D01*
X156337000Y-91821000D02*
X156337000Y-109735520D01*
X156718000Y-91440000D02*
X156337000Y-91821000D01*
%TO.N,/F_SEL-*%
X181149300Y-100330000D02*
X183388000Y-100330000D01*
X179498300Y-101981000D02*
X181149300Y-100330000D01*
X161305444Y-101981000D02*
X179498300Y-101981000D01*
X161276300Y-102010144D02*
X161305444Y-101981000D01*
%TO.N,/PD6*%
X161671000Y-101206300D02*
X161671000Y-92718900D01*
X161683700Y-101219000D02*
X161671000Y-101206300D01*
%TO.N,/ADM_LD-*%
X161036000Y-101226520D02*
X160401000Y-101861520D01*
X160401000Y-101861520D02*
X160401000Y-105156000D01*
X161036000Y-95885000D02*
X161036000Y-101226520D01*
%TO.N,/ACLK*%
X158750000Y-108331000D02*
X158750000Y-98679000D01*
X159385000Y-108966000D02*
X158750000Y-108331000D01*
X160147000Y-108966000D02*
X159385000Y-108966000D01*
X158750000Y-98679000D02*
X159639000Y-97790000D01*
X159639000Y-97790000D02*
X160147000Y-97790000D01*
X160147000Y-130937000D02*
X160147000Y-119888000D01*
X160147000Y-119888000D02*
X160147000Y-108966000D01*
X160147000Y-86868000D02*
X160147000Y-97790000D01*
%TO.N,Net-(U8-~{RC})*%
X162306000Y-93345000D02*
X162306000Y-85598000D01*
%TO.N,/PD0*%
X155194000Y-109474000D02*
X155956000Y-110236000D01*
X155194000Y-91440000D02*
X155194000Y-109474000D01*
%TO.N,/PD2*%
X153416000Y-90932000D02*
X150749000Y-90932000D01*
X154559000Y-92075000D02*
X153416000Y-90932000D01*
X154559000Y-103881126D02*
X154559000Y-92075000D01*
X154559000Y-125857000D02*
X154559000Y-103881126D01*
%TO.N,/PD1*%
X167132000Y-122428000D02*
X167132000Y-111506000D01*
X167132000Y-132334000D02*
X167132000Y-124333000D01*
X167132000Y-111506000D02*
X167132000Y-102743000D01*
X167132000Y-99682300D02*
X167132000Y-89408000D01*
%TO.N,/BA10*%
X169181320Y-112785800D02*
X195824200Y-112785800D01*
X195824200Y-112785800D02*
X196850000Y-111760000D01*
X168402000Y-112006480D02*
X169181320Y-112785800D01*
X168402000Y-105156000D02*
X168402000Y-112006480D01*
%TO.N,/BA9*%
X190744200Y-110245800D02*
X196850000Y-104140000D01*
X181393500Y-110245800D02*
X190744200Y-110245800D01*
X179625300Y-112014000D02*
X181393500Y-110245800D01*
X169291000Y-112014000D02*
X179625300Y-112014000D01*
X169037000Y-110109000D02*
X169037000Y-111760000D01*
X169037000Y-111760000D02*
X169291000Y-112014000D01*
%TO.N,/BA8*%
X193167000Y-105283000D02*
X196850000Y-101600000D01*
X170968800Y-105283000D02*
X193167000Y-105283000D01*
X169037000Y-108966000D02*
X169037000Y-107214800D01*
X169037000Y-107214800D02*
X170968800Y-105283000D01*
%TO.N,/BA11*%
X169413996Y-102870000D02*
X193040000Y-102870000D01*
X168407079Y-103876917D02*
X169413996Y-102870000D01*
%TO.N,/BD0*%
X181610000Y-119380000D02*
X172974000Y-119380000D01*
%TO.N,/BD1*%
X181737000Y-121920000D02*
X171958000Y-121920000D01*
%TO.N,/BA4*%
X178562000Y-106680000D02*
X181610000Y-106680000D01*
%TO.N,/BA0*%
X176530000Y-116967000D02*
X181483000Y-116967000D01*
%TO.N,/BA15*%
X180348900Y-92718900D02*
X181610000Y-93980000D01*
X168275000Y-92718900D02*
X180348900Y-92718900D01*
%TO.N,/BA14*%
X168529000Y-93980000D02*
X179879300Y-93980000D01*
X179879300Y-93980000D02*
X181393500Y-95494200D01*
X181393500Y-95494200D02*
X195824200Y-95494200D01*
X195824200Y-95494200D02*
X196850000Y-96520000D01*
%TO.N,/PD3*%
X96520000Y-120650000D02*
X97028000Y-120142000D01*
X96520000Y-125349000D02*
X96520000Y-120650000D01*
X97028000Y-120142000D02*
X101600000Y-120142000D01*
X94234000Y-126238000D02*
X95631000Y-126238000D01*
X95631000Y-126238000D02*
X96520000Y-125349000D01*
%TO.N,/PD2*%
X94742000Y-117602000D02*
X101600000Y-117602000D01*
X94234000Y-118110000D02*
X94742000Y-117602000D01*
X94234000Y-123698000D02*
X94234000Y-118110000D01*
%TO.N,/RE_SW-*%
X88225000Y-107482000D02*
X88225000Y-118375000D01*
X101600000Y-104902000D02*
X90805000Y-104902000D01*
X90805000Y-104902000D02*
X88225000Y-107482000D01*
%TO.N,/RE_B*%
X85373000Y-101727000D02*
X83225000Y-103875000D01*
X91059000Y-98171000D02*
X87503000Y-101727000D01*
X87503000Y-101727000D02*
X85373000Y-101727000D01*
%TO.N,/RE_A*%
X93599000Y-98171000D02*
X88225000Y-103545000D01*
X84074000Y-96901000D02*
X92329000Y-96901000D01*
X83693000Y-96139000D02*
X83693000Y-96520000D01*
X85217000Y-94615000D02*
X83693000Y-96139000D01*
X85217000Y-80264000D02*
X85217000Y-94615000D01*
X92329000Y-96901000D02*
X93599000Y-98171000D01*
X85979000Y-79502000D02*
X85217000Y-80264000D01*
X101600000Y-79502000D02*
X85979000Y-79502000D01*
X83693000Y-96520000D02*
X84074000Y-96901000D01*
%TO.N,/SPIMI*%
X90721000Y-92202000D02*
X101600000Y-92202000D01*
%TO.N,/SPIMO*%
X86360000Y-89662000D02*
X101600000Y-89662000D01*
%TO.N,/SPICK*%
X88519000Y-87122000D02*
X101600000Y-87122000D01*
%TD*%
M02*
