%TF.GenerationSoftware,KiCad,Pcbnew,9.0.6*%
%TF.CreationDate,2025-11-05T23:56:09-08:00*%
%TF.ProjectId,SD-PGMR,53442d50-474d-4522-9e6b-696361645f70,v2.0*%
%TF.SameCoordinates,Original*%
%TF.FileFunction,Paste,Top*%
%TF.FilePolarity,Positive*%
%FSLAX46Y46*%
G04 Gerber Fmt 4.6, Leading zero omitted, Abs format (unit mm)*
G04 Created by KiCad (PCBNEW 9.0.6) date 2025-11-05 23:56:09*
%MOMM*%
%LPD*%
G01*
G04 APERTURE LIST*
G04 Aperture macros list*
%AMRoundRect*
0 Rectangle with rounded corners*
0 $1 Rounding radius*
0 $2 $3 $4 $5 $6 $7 $8 $9 X,Y pos of 4 corners*
0 Add a 4 corners polygon primitive as box body*
4,1,4,$2,$3,$4,$5,$6,$7,$8,$9,$2,$3,0*
0 Add four circle primitives for the rounded corners*
1,1,$1+$1,$2,$3*
1,1,$1+$1,$4,$5*
1,1,$1+$1,$6,$7*
1,1,$1+$1,$8,$9*
0 Add four rect primitives between the rounded corners*
20,1,$1+$1,$2,$3,$4,$5,0*
20,1,$1+$1,$4,$5,$6,$7,0*
20,1,$1+$1,$6,$7,$8,$9,0*
20,1,$1+$1,$8,$9,$2,$3,0*%
G04 Aperture macros list end*
%ADD10RoundRect,0.250000X-0.350000X-0.450000X0.350000X-0.450000X0.350000X0.450000X-0.350000X0.450000X0*%
%ADD11RoundRect,0.237500X0.300000X0.237500X-0.300000X0.237500X-0.300000X-0.237500X0.300000X-0.237500X0*%
%ADD12RoundRect,0.150000X0.875000X0.150000X-0.875000X0.150000X-0.875000X-0.150000X0.875000X-0.150000X0*%
%ADD13RoundRect,0.237500X-0.300000X-0.237500X0.300000X-0.237500X0.300000X0.237500X-0.300000X0.237500X0*%
%ADD14RoundRect,0.250000X-0.600000X0.400000X-0.600000X-0.400000X0.600000X-0.400000X0.600000X0.400000X0*%
%ADD15R,0.620000X1.400000*%
%ADD16R,1.100000X2.400000*%
%ADD17RoundRect,0.250000X0.350000X0.450000X-0.350000X0.450000X-0.350000X-0.450000X0.350000X-0.450000X0*%
%ADD18RoundRect,0.250000X-0.450000X0.350000X-0.450000X-0.350000X0.450000X-0.350000X0.450000X0.350000X0*%
%ADD19RoundRect,0.150000X-0.825000X-0.150000X0.825000X-0.150000X0.825000X0.150000X-0.825000X0.150000X0*%
%ADD20RoundRect,0.150000X-0.875000X-0.150000X0.875000X-0.150000X0.875000X0.150000X-0.875000X0.150000X0*%
%ADD21RoundRect,0.237500X0.237500X-0.300000X0.237500X0.300000X-0.237500X0.300000X-0.237500X-0.300000X0*%
%ADD22RoundRect,0.250000X0.450000X-0.350000X0.450000X0.350000X-0.450000X0.350000X-0.450000X-0.350000X0*%
%ADD23R,1.310000X0.650000*%
%ADD24R,1.310000X0.600000*%
%ADD25R,0.795000X0.900000*%
%ADD26R,1.600000X1.000000*%
%ADD27RoundRect,0.162500X-0.617500X-0.162500X0.617500X-0.162500X0.617500X0.162500X-0.617500X0.162500X0*%
G04 APERTURE END LIST*
D10*
%TO.C,R9*%
X145304000Y-87249000D03*
X147304000Y-87249000D03*
%TD*%
D11*
%TO.C,C9*%
X137006501Y-92837000D03*
X135281499Y-92837000D03*
%TD*%
%TO.C,C1*%
X86587500Y-120900000D03*
X84862500Y-120900000D03*
%TD*%
D12*
%TO.C,U5*%
X147320000Y-124206000D03*
X147320000Y-122936000D03*
X147320000Y-121666000D03*
X147320000Y-120396000D03*
X147320000Y-119126000D03*
X147320000Y-117856000D03*
X147320000Y-116586000D03*
X147320000Y-115316000D03*
X147320000Y-114046000D03*
X147320000Y-112776000D03*
X138020000Y-112776000D03*
X138020000Y-114046000D03*
X138020000Y-115316000D03*
X138020000Y-116586000D03*
X138020000Y-117856000D03*
X138020000Y-119126000D03*
X138020000Y-120396000D03*
X138020000Y-121666000D03*
X138020000Y-122936000D03*
X138020000Y-124206000D03*
%TD*%
%TO.C,U9*%
X161290000Y-124206000D03*
X161290000Y-122936000D03*
X161290000Y-121666000D03*
X161290000Y-120396000D03*
X161290000Y-119126000D03*
X161290000Y-117856000D03*
X161290000Y-116586000D03*
X161290000Y-115316000D03*
X161290000Y-114046000D03*
X161290000Y-112776000D03*
X151990000Y-112776000D03*
X151990000Y-114046000D03*
X151990000Y-115316000D03*
X151990000Y-116586000D03*
X151990000Y-117856000D03*
X151990000Y-119126000D03*
X151990000Y-120396000D03*
X151990000Y-121666000D03*
X151990000Y-122936000D03*
X151990000Y-124206000D03*
%TD*%
D13*
%TO.C,C8*%
X150267499Y-110236000D03*
X151992501Y-110236000D03*
%TD*%
D14*
%TO.C,D1*%
X131318000Y-125758000D03*
X131318000Y-129258000D03*
%TD*%
D10*
%TO.C,R5*%
X131334000Y-92710000D03*
X133334000Y-92710000D03*
%TD*%
D15*
%TO.C,SD1*%
X84121000Y-93600000D03*
X85221000Y-93600000D03*
X86321000Y-93600000D03*
X87421000Y-93600000D03*
X88521000Y-93600000D03*
X89621000Y-93600000D03*
X90721000Y-93600000D03*
X91821000Y-93600000D03*
X92921000Y-93600000D03*
D16*
X94301000Y-91600000D03*
X94301000Y-82600000D03*
X78151000Y-91600000D03*
X78151000Y-82600000D03*
%TD*%
D17*
%TO.C,R7*%
X137398000Y-87122000D03*
X135398000Y-87122000D03*
%TD*%
D18*
%TO.C,R8*%
X126238000Y-125746000D03*
X126238000Y-127746000D03*
%TD*%
D10*
%TO.C,R12*%
X170500800Y-89911000D03*
X172500800Y-89911000D03*
%TD*%
D12*
%TO.C,U8*%
X147320000Y-107086400D03*
X147320000Y-105816400D03*
X147320000Y-104546400D03*
X147320000Y-103276400D03*
X147320000Y-102006400D03*
X147320000Y-100736400D03*
X147320000Y-99466400D03*
X147320000Y-98196400D03*
X147320000Y-96926400D03*
X147320000Y-95656400D03*
X138020000Y-95656400D03*
X138020000Y-96926400D03*
X138020000Y-98196400D03*
X138020000Y-99466400D03*
X138020000Y-100736400D03*
X138020000Y-102006400D03*
X138020000Y-103276400D03*
X138020000Y-104546400D03*
X138020000Y-105816400D03*
X138020000Y-107086400D03*
%TD*%
D19*
%TO.C,U2*%
X128400000Y-94742000D03*
X128400000Y-96012000D03*
X128400000Y-97282000D03*
X128400000Y-98552000D03*
X128400000Y-99822000D03*
X128400000Y-101092000D03*
X128400000Y-102362000D03*
X128400000Y-103632000D03*
X133350000Y-103632000D03*
X133350000Y-102362000D03*
X133350000Y-101092000D03*
X133350000Y-99822000D03*
X133350000Y-98552000D03*
X133350000Y-97282000D03*
X133350000Y-96012000D03*
X133350000Y-94742000D03*
%TD*%
D13*
%TO.C,C10*%
X171095500Y-87376000D03*
X172820500Y-87376000D03*
%TD*%
%TO.C,C7*%
X164364499Y-127381000D03*
X166089501Y-127381000D03*
%TD*%
%TO.C,C4*%
X150267499Y-127381000D03*
X151992501Y-127381000D03*
%TD*%
%TO.C,C6*%
X130201499Y-132334000D03*
X131926501Y-132334000D03*
%TD*%
D20*
%TO.C,U7*%
X151990000Y-95656400D03*
X151990000Y-96926400D03*
X151990000Y-98196400D03*
X151990000Y-99466400D03*
X151990000Y-100736400D03*
X151990000Y-102006400D03*
X151990000Y-103276400D03*
X151990000Y-104546400D03*
X151990000Y-105816400D03*
X151990000Y-107086400D03*
X161290000Y-107086400D03*
X161290000Y-105816400D03*
X161290000Y-104546400D03*
X161290000Y-103276400D03*
X161290000Y-102006400D03*
X161290000Y-100736400D03*
X161290000Y-99466400D03*
X161290000Y-98196400D03*
X161290000Y-96926400D03*
X161290000Y-95656400D03*
%TD*%
D21*
%TO.C,C3*%
X137668000Y-128878501D03*
X137668000Y-127153499D03*
%TD*%
D22*
%TO.C,R1*%
X125603000Y-107299000D03*
X125603000Y-105299000D03*
%TD*%
D18*
%TO.C,R2*%
X125603000Y-109363000D03*
X125603000Y-111363000D03*
%TD*%
D23*
%TO.C,U3*%
X127965000Y-111391000D03*
X127965000Y-112661000D03*
X127965000Y-113931000D03*
D24*
X127965000Y-115201000D03*
D23*
X127963884Y-116471911D03*
X127963884Y-117741911D03*
D24*
X127963884Y-119011911D03*
D23*
X133653884Y-119011911D03*
X133653884Y-117741911D03*
X133653884Y-116471911D03*
X133655000Y-115201000D03*
X133655000Y-113931000D03*
X133655000Y-112661000D03*
X133655000Y-111391000D03*
D25*
X130147500Y-112546000D03*
X130147500Y-114046000D03*
X130147778Y-118518449D03*
X130147778Y-120018449D03*
X130148787Y-109564011D03*
X130148787Y-111064011D03*
X130149795Y-115541408D03*
X130149795Y-117041408D03*
X131472500Y-112546000D03*
X131472500Y-114046000D03*
X131472778Y-118518449D03*
X131472778Y-120018449D03*
X131473787Y-109564011D03*
X131473787Y-111064011D03*
X131474795Y-115541408D03*
X131474795Y-117041408D03*
%TD*%
D13*
%TO.C,C2*%
X136805499Y-110109000D03*
X138530501Y-110109000D03*
%TD*%
D26*
%TO.C,SW1*%
X82973000Y-125654000D03*
X88223000Y-125654000D03*
X82973000Y-128854000D03*
X88223000Y-128854000D03*
%TD*%
%TO.C,SW2*%
X127423000Y-80950000D03*
X132673000Y-80950000D03*
X127423000Y-84150000D03*
X132673000Y-84150000D03*
%TD*%
D22*
%TO.C,R10*%
X128778000Y-127746000D03*
X128778000Y-125746000D03*
%TD*%
D18*
%TO.C,R11*%
X134112000Y-125762000D03*
X134112000Y-127762000D03*
%TD*%
D21*
%TO.C,C5*%
X135382000Y-82142501D03*
X135382000Y-80417499D03*
%TD*%
D27*
%TO.C,U10*%
X161384000Y-90048000D03*
X161384000Y-90998000D03*
X161384000Y-91948000D03*
X164084000Y-91948000D03*
X164084000Y-90048000D03*
%TD*%
D12*
%TO.C,U6*%
X175416000Y-124206000D03*
X175416000Y-122936000D03*
X175416000Y-121666000D03*
X175416000Y-120396000D03*
X175416000Y-119126000D03*
X175416000Y-117856000D03*
X175416000Y-116586000D03*
X175416000Y-115316000D03*
X175416000Y-114046000D03*
X175416000Y-112776000D03*
X166116000Y-112776000D03*
X166116000Y-114046000D03*
X166116000Y-115316000D03*
X166116000Y-116586000D03*
X166116000Y-117856000D03*
X166116000Y-119126000D03*
X166116000Y-120396000D03*
X166116000Y-121666000D03*
X166116000Y-122936000D03*
X166116000Y-124206000D03*
%TD*%
D10*
%TO.C,R13*%
X171101000Y-100203000D03*
X173101000Y-100203000D03*
%TD*%
M02*
