%TF.GenerationSoftware,KiCad,Pcbnew,9.0.6*%
%TF.CreationDate,2025-11-05T23:56:09-08:00*%
%TF.ProjectId,SD-PGMR,53442d50-474d-4522-9e6b-696361645f70,v2.0*%
%TF.SameCoordinates,Original*%
%TF.FileFunction,Copper,L4,Bot*%
%TF.FilePolarity,Positive*%
%FSLAX46Y46*%
G04 Gerber Fmt 4.6, Leading zero omitted, Abs format (unit mm)*
G04 Created by KiCad (PCBNEW 9.0.6) date 2025-11-05 23:56:09*
%MOMM*%
%LPD*%
G01*
G04 APERTURE LIST*
%ADD10C,0.127000*%
%TA.AperFunction,NonConductor*%
%ADD11C,0.127000*%
%TD*%
%TA.AperFunction,ComponentPad*%
%ADD12R,1.800000X1.800000*%
%TD*%
%TA.AperFunction,ComponentPad*%
%ADD13C,1.800000*%
%TD*%
%TA.AperFunction,ComponentPad*%
%ADD14R,2.000000X1.440000*%
%TD*%
%TA.AperFunction,ComponentPad*%
%ADD15O,2.000000X1.440000*%
%TD*%
%TA.AperFunction,ComponentPad*%
%ADD16R,1.700000X1.700000*%
%TD*%
%TA.AperFunction,ComponentPad*%
%ADD17C,1.700000*%
%TD*%
%TA.AperFunction,ComponentPad*%
%ADD18O,1.700000X1.700000*%
%TD*%
%TA.AperFunction,ComponentPad*%
%ADD19R,2.000000X2.000000*%
%TD*%
%TA.AperFunction,ComponentPad*%
%ADD20C,2.000000*%
%TD*%
%TA.AperFunction,ComponentPad*%
%ADD21R,2.000000X3.200000*%
%TD*%
%TA.AperFunction,ComponentPad*%
%ADD22C,0.800000*%
%TD*%
%TA.AperFunction,ViaPad*%
%ADD23C,0.889000*%
%TD*%
%TA.AperFunction,ViaPad*%
%ADD24C,0.508000*%
%TD*%
%TA.AperFunction,Conductor*%
%ADD25C,0.190500*%
%TD*%
%TA.AperFunction,Conductor*%
%ADD26C,0.508000*%
%TD*%
G04 APERTURE END LIST*
D10*
D11*
X201623676Y-79144075D02*
X201672056Y-79289218D01*
X201672056Y-79289218D02*
X201672056Y-79531123D01*
X201672056Y-79531123D02*
X201623676Y-79627885D01*
X201623676Y-79627885D02*
X201575295Y-79676266D01*
X201575295Y-79676266D02*
X201478533Y-79724647D01*
X201478533Y-79724647D02*
X201381771Y-79724647D01*
X201381771Y-79724647D02*
X201285009Y-79676266D01*
X201285009Y-79676266D02*
X201236628Y-79627885D01*
X201236628Y-79627885D02*
X201188247Y-79531123D01*
X201188247Y-79531123D02*
X201139866Y-79337599D01*
X201139866Y-79337599D02*
X201091485Y-79240837D01*
X201091485Y-79240837D02*
X201043104Y-79192456D01*
X201043104Y-79192456D02*
X200946342Y-79144075D01*
X200946342Y-79144075D02*
X200849580Y-79144075D01*
X200849580Y-79144075D02*
X200752818Y-79192456D01*
X200752818Y-79192456D02*
X200704437Y-79240837D01*
X200704437Y-79240837D02*
X200656056Y-79337599D01*
X200656056Y-79337599D02*
X200656056Y-79579504D01*
X200656056Y-79579504D02*
X200704437Y-79724647D01*
X201672056Y-80160075D02*
X200656056Y-80160075D01*
X200656056Y-80160075D02*
X200656056Y-80401980D01*
X200656056Y-80401980D02*
X200704437Y-80547123D01*
X200704437Y-80547123D02*
X200801199Y-80643885D01*
X200801199Y-80643885D02*
X200897961Y-80692266D01*
X200897961Y-80692266D02*
X201091485Y-80740647D01*
X201091485Y-80740647D02*
X201236628Y-80740647D01*
X201236628Y-80740647D02*
X201430152Y-80692266D01*
X201430152Y-80692266D02*
X201526914Y-80643885D01*
X201526914Y-80643885D02*
X201623676Y-80547123D01*
X201623676Y-80547123D02*
X201672056Y-80401980D01*
X201672056Y-80401980D02*
X201672056Y-80160075D01*
X201285009Y-81176075D02*
X201285009Y-81950171D01*
X201672056Y-82433980D02*
X200656056Y-82433980D01*
X200656056Y-82433980D02*
X200656056Y-82821028D01*
X200656056Y-82821028D02*
X200704437Y-82917790D01*
X200704437Y-82917790D02*
X200752818Y-82966171D01*
X200752818Y-82966171D02*
X200849580Y-83014552D01*
X200849580Y-83014552D02*
X200994723Y-83014552D01*
X200994723Y-83014552D02*
X201091485Y-82966171D01*
X201091485Y-82966171D02*
X201139866Y-82917790D01*
X201139866Y-82917790D02*
X201188247Y-82821028D01*
X201188247Y-82821028D02*
X201188247Y-82433980D01*
X200704437Y-83982171D02*
X200656056Y-83885409D01*
X200656056Y-83885409D02*
X200656056Y-83740266D01*
X200656056Y-83740266D02*
X200704437Y-83595123D01*
X200704437Y-83595123D02*
X200801199Y-83498361D01*
X200801199Y-83498361D02*
X200897961Y-83449980D01*
X200897961Y-83449980D02*
X201091485Y-83401599D01*
X201091485Y-83401599D02*
X201236628Y-83401599D01*
X201236628Y-83401599D02*
X201430152Y-83449980D01*
X201430152Y-83449980D02*
X201526914Y-83498361D01*
X201526914Y-83498361D02*
X201623676Y-83595123D01*
X201623676Y-83595123D02*
X201672056Y-83740266D01*
X201672056Y-83740266D02*
X201672056Y-83837028D01*
X201672056Y-83837028D02*
X201623676Y-83982171D01*
X201623676Y-83982171D02*
X201575295Y-84030552D01*
X201575295Y-84030552D02*
X201236628Y-84030552D01*
X201236628Y-84030552D02*
X201236628Y-83837028D01*
X201672056Y-84465980D02*
X200656056Y-84465980D01*
X200656056Y-84465980D02*
X201381771Y-84804647D01*
X201381771Y-84804647D02*
X200656056Y-85143314D01*
X200656056Y-85143314D02*
X201672056Y-85143314D01*
X201672056Y-86207695D02*
X201188247Y-85869028D01*
X201672056Y-85627123D02*
X200656056Y-85627123D01*
X200656056Y-85627123D02*
X200656056Y-86014171D01*
X200656056Y-86014171D02*
X200704437Y-86110933D01*
X200704437Y-86110933D02*
X200752818Y-86159314D01*
X200752818Y-86159314D02*
X200849580Y-86207695D01*
X200849580Y-86207695D02*
X200994723Y-86207695D01*
X200994723Y-86207695D02*
X201091485Y-86159314D01*
X201091485Y-86159314D02*
X201139866Y-86110933D01*
X201139866Y-86110933D02*
X201188247Y-86014171D01*
X201188247Y-86014171D02*
X201188247Y-85627123D01*
X200994723Y-87320456D02*
X201672056Y-87562361D01*
X201672056Y-87562361D02*
X200994723Y-87804266D01*
X200752818Y-88142932D02*
X200704437Y-88191313D01*
X200704437Y-88191313D02*
X200656056Y-88288075D01*
X200656056Y-88288075D02*
X200656056Y-88529980D01*
X200656056Y-88529980D02*
X200704437Y-88626742D01*
X200704437Y-88626742D02*
X200752818Y-88675123D01*
X200752818Y-88675123D02*
X200849580Y-88723504D01*
X200849580Y-88723504D02*
X200946342Y-88723504D01*
X200946342Y-88723504D02*
X201091485Y-88675123D01*
X201091485Y-88675123D02*
X201672056Y-88094551D01*
X201672056Y-88094551D02*
X201672056Y-88723504D01*
X201575295Y-89158932D02*
X201623676Y-89207313D01*
X201623676Y-89207313D02*
X201672056Y-89158932D01*
X201672056Y-89158932D02*
X201623676Y-89110551D01*
X201623676Y-89110551D02*
X201575295Y-89158932D01*
X201575295Y-89158932D02*
X201672056Y-89158932D01*
X200656056Y-89836266D02*
X200656056Y-89933028D01*
X200656056Y-89933028D02*
X200704437Y-90029790D01*
X200704437Y-90029790D02*
X200752818Y-90078171D01*
X200752818Y-90078171D02*
X200849580Y-90126552D01*
X200849580Y-90126552D02*
X201043104Y-90174933D01*
X201043104Y-90174933D02*
X201285009Y-90174933D01*
X201285009Y-90174933D02*
X201478533Y-90126552D01*
X201478533Y-90126552D02*
X201575295Y-90078171D01*
X201575295Y-90078171D02*
X201623676Y-90029790D01*
X201623676Y-90029790D02*
X201672056Y-89933028D01*
X201672056Y-89933028D02*
X201672056Y-89836266D01*
X201672056Y-89836266D02*
X201623676Y-89739504D01*
X201623676Y-89739504D02*
X201575295Y-89691123D01*
X201575295Y-89691123D02*
X201478533Y-89642742D01*
X201478533Y-89642742D02*
X201285009Y-89594361D01*
X201285009Y-89594361D02*
X201043104Y-89594361D01*
X201043104Y-89594361D02*
X200849580Y-89642742D01*
X200849580Y-89642742D02*
X200752818Y-89691123D01*
X200752818Y-89691123D02*
X200704437Y-89739504D01*
X200704437Y-89739504D02*
X200656056Y-89836266D01*
X201575295Y-91965028D02*
X201623676Y-91916647D01*
X201623676Y-91916647D02*
X201672056Y-91771504D01*
X201672056Y-91771504D02*
X201672056Y-91674742D01*
X201672056Y-91674742D02*
X201623676Y-91529599D01*
X201623676Y-91529599D02*
X201526914Y-91432837D01*
X201526914Y-91432837D02*
X201430152Y-91384456D01*
X201430152Y-91384456D02*
X201236628Y-91336075D01*
X201236628Y-91336075D02*
X201091485Y-91336075D01*
X201091485Y-91336075D02*
X200897961Y-91384456D01*
X200897961Y-91384456D02*
X200801199Y-91432837D01*
X200801199Y-91432837D02*
X200704437Y-91529599D01*
X200704437Y-91529599D02*
X200656056Y-91674742D01*
X200656056Y-91674742D02*
X200656056Y-91771504D01*
X200656056Y-91771504D02*
X200704437Y-91916647D01*
X200704437Y-91916647D02*
X200752818Y-91965028D01*
X201672056Y-92545599D02*
X201623676Y-92448837D01*
X201623676Y-92448837D02*
X201575295Y-92400456D01*
X201575295Y-92400456D02*
X201478533Y-92352075D01*
X201478533Y-92352075D02*
X201188247Y-92352075D01*
X201188247Y-92352075D02*
X201091485Y-92400456D01*
X201091485Y-92400456D02*
X201043104Y-92448837D01*
X201043104Y-92448837D02*
X200994723Y-92545599D01*
X200994723Y-92545599D02*
X200994723Y-92690742D01*
X200994723Y-92690742D02*
X201043104Y-92787504D01*
X201043104Y-92787504D02*
X201091485Y-92835885D01*
X201091485Y-92835885D02*
X201188247Y-92884266D01*
X201188247Y-92884266D02*
X201478533Y-92884266D01*
X201478533Y-92884266D02*
X201575295Y-92835885D01*
X201575295Y-92835885D02*
X201623676Y-92787504D01*
X201623676Y-92787504D02*
X201672056Y-92690742D01*
X201672056Y-92690742D02*
X201672056Y-92545599D01*
X200994723Y-93319694D02*
X202010723Y-93319694D01*
X201043104Y-93319694D02*
X200994723Y-93416456D01*
X200994723Y-93416456D02*
X200994723Y-93609980D01*
X200994723Y-93609980D02*
X201043104Y-93706742D01*
X201043104Y-93706742D02*
X201091485Y-93755123D01*
X201091485Y-93755123D02*
X201188247Y-93803504D01*
X201188247Y-93803504D02*
X201478533Y-93803504D01*
X201478533Y-93803504D02*
X201575295Y-93755123D01*
X201575295Y-93755123D02*
X201623676Y-93706742D01*
X201623676Y-93706742D02*
X201672056Y-93609980D01*
X201672056Y-93609980D02*
X201672056Y-93416456D01*
X201672056Y-93416456D02*
X201623676Y-93319694D01*
X200994723Y-94142170D02*
X201672056Y-94384075D01*
X200994723Y-94625980D02*
X201672056Y-94384075D01*
X201672056Y-94384075D02*
X201913961Y-94287313D01*
X201913961Y-94287313D02*
X201962342Y-94238932D01*
X201962342Y-94238932D02*
X202010723Y-94142170D01*
X201672056Y-95013027D02*
X200994723Y-95013027D01*
X201188247Y-95013027D02*
X201091485Y-95061408D01*
X201091485Y-95061408D02*
X201043104Y-95109789D01*
X201043104Y-95109789D02*
X200994723Y-95206551D01*
X200994723Y-95206551D02*
X200994723Y-95303313D01*
X201672056Y-95641979D02*
X200994723Y-95641979D01*
X200656056Y-95641979D02*
X200704437Y-95593598D01*
X200704437Y-95593598D02*
X200752818Y-95641979D01*
X200752818Y-95641979D02*
X200704437Y-95690360D01*
X200704437Y-95690360D02*
X200656056Y-95641979D01*
X200656056Y-95641979D02*
X200752818Y-95641979D01*
X200994723Y-96561218D02*
X201817199Y-96561218D01*
X201817199Y-96561218D02*
X201913961Y-96512837D01*
X201913961Y-96512837D02*
X201962342Y-96464456D01*
X201962342Y-96464456D02*
X202010723Y-96367694D01*
X202010723Y-96367694D02*
X202010723Y-96222551D01*
X202010723Y-96222551D02*
X201962342Y-96125789D01*
X201623676Y-96561218D02*
X201672056Y-96464456D01*
X201672056Y-96464456D02*
X201672056Y-96270932D01*
X201672056Y-96270932D02*
X201623676Y-96174170D01*
X201623676Y-96174170D02*
X201575295Y-96125789D01*
X201575295Y-96125789D02*
X201478533Y-96077408D01*
X201478533Y-96077408D02*
X201188247Y-96077408D01*
X201188247Y-96077408D02*
X201091485Y-96125789D01*
X201091485Y-96125789D02*
X201043104Y-96174170D01*
X201043104Y-96174170D02*
X200994723Y-96270932D01*
X200994723Y-96270932D02*
X200994723Y-96464456D01*
X200994723Y-96464456D02*
X201043104Y-96561218D01*
X201672056Y-97045027D02*
X200656056Y-97045027D01*
X201672056Y-97480456D02*
X201139866Y-97480456D01*
X201139866Y-97480456D02*
X201043104Y-97432075D01*
X201043104Y-97432075D02*
X200994723Y-97335313D01*
X200994723Y-97335313D02*
X200994723Y-97190170D01*
X200994723Y-97190170D02*
X201043104Y-97093408D01*
X201043104Y-97093408D02*
X201091485Y-97045027D01*
X200994723Y-97819122D02*
X200994723Y-98206170D01*
X200656056Y-97964265D02*
X201526914Y-97964265D01*
X201526914Y-97964265D02*
X201623676Y-98012646D01*
X201623676Y-98012646D02*
X201672056Y-98109408D01*
X201672056Y-98109408D02*
X201672056Y-98206170D01*
X200752818Y-99270550D02*
X200704437Y-99318931D01*
X200704437Y-99318931D02*
X200656056Y-99415693D01*
X200656056Y-99415693D02*
X200656056Y-99657598D01*
X200656056Y-99657598D02*
X200704437Y-99754360D01*
X200704437Y-99754360D02*
X200752818Y-99802741D01*
X200752818Y-99802741D02*
X200849580Y-99851122D01*
X200849580Y-99851122D02*
X200946342Y-99851122D01*
X200946342Y-99851122D02*
X201091485Y-99802741D01*
X201091485Y-99802741D02*
X201672056Y-99222169D01*
X201672056Y-99222169D02*
X201672056Y-99851122D01*
X200656056Y-100480074D02*
X200656056Y-100576836D01*
X200656056Y-100576836D02*
X200704437Y-100673598D01*
X200704437Y-100673598D02*
X200752818Y-100721979D01*
X200752818Y-100721979D02*
X200849580Y-100770360D01*
X200849580Y-100770360D02*
X201043104Y-100818741D01*
X201043104Y-100818741D02*
X201285009Y-100818741D01*
X201285009Y-100818741D02*
X201478533Y-100770360D01*
X201478533Y-100770360D02*
X201575295Y-100721979D01*
X201575295Y-100721979D02*
X201623676Y-100673598D01*
X201623676Y-100673598D02*
X201672056Y-100576836D01*
X201672056Y-100576836D02*
X201672056Y-100480074D01*
X201672056Y-100480074D02*
X201623676Y-100383312D01*
X201623676Y-100383312D02*
X201575295Y-100334931D01*
X201575295Y-100334931D02*
X201478533Y-100286550D01*
X201478533Y-100286550D02*
X201285009Y-100238169D01*
X201285009Y-100238169D02*
X201043104Y-100238169D01*
X201043104Y-100238169D02*
X200849580Y-100286550D01*
X200849580Y-100286550D02*
X200752818Y-100334931D01*
X200752818Y-100334931D02*
X200704437Y-100383312D01*
X200704437Y-100383312D02*
X200656056Y-100480074D01*
X200752818Y-101205788D02*
X200704437Y-101254169D01*
X200704437Y-101254169D02*
X200656056Y-101350931D01*
X200656056Y-101350931D02*
X200656056Y-101592836D01*
X200656056Y-101592836D02*
X200704437Y-101689598D01*
X200704437Y-101689598D02*
X200752818Y-101737979D01*
X200752818Y-101737979D02*
X200849580Y-101786360D01*
X200849580Y-101786360D02*
X200946342Y-101786360D01*
X200946342Y-101786360D02*
X201091485Y-101737979D01*
X201091485Y-101737979D02*
X201672056Y-101157407D01*
X201672056Y-101157407D02*
X201672056Y-101786360D01*
X200656056Y-102705598D02*
X200656056Y-102221788D01*
X200656056Y-102221788D02*
X201139866Y-102173407D01*
X201139866Y-102173407D02*
X201091485Y-102221788D01*
X201091485Y-102221788D02*
X201043104Y-102318550D01*
X201043104Y-102318550D02*
X201043104Y-102560455D01*
X201043104Y-102560455D02*
X201091485Y-102657217D01*
X201091485Y-102657217D02*
X201139866Y-102705598D01*
X201139866Y-102705598D02*
X201236628Y-102753979D01*
X201236628Y-102753979D02*
X201478533Y-102753979D01*
X201478533Y-102753979D02*
X201575295Y-102705598D01*
X201575295Y-102705598D02*
X201623676Y-102657217D01*
X201623676Y-102657217D02*
X201672056Y-102560455D01*
X201672056Y-102560455D02*
X201672056Y-102318550D01*
X201672056Y-102318550D02*
X201623676Y-102221788D01*
X201623676Y-102221788D02*
X201575295Y-102173407D01*
X201381771Y-103915121D02*
X201381771Y-104398931D01*
X201672056Y-103818359D02*
X200656056Y-104157026D01*
X200656056Y-104157026D02*
X201672056Y-104495693D01*
X201139866Y-104834359D02*
X201139866Y-105173026D01*
X201672056Y-105318169D02*
X201672056Y-104834359D01*
X201672056Y-104834359D02*
X200656056Y-104834359D01*
X200656056Y-104834359D02*
X200656056Y-105318169D01*
X201623676Y-105705216D02*
X201672056Y-105850359D01*
X201672056Y-105850359D02*
X201672056Y-106092264D01*
X201672056Y-106092264D02*
X201623676Y-106189026D01*
X201623676Y-106189026D02*
X201575295Y-106237407D01*
X201575295Y-106237407D02*
X201478533Y-106285788D01*
X201478533Y-106285788D02*
X201381771Y-106285788D01*
X201381771Y-106285788D02*
X201285009Y-106237407D01*
X201285009Y-106237407D02*
X201236628Y-106189026D01*
X201236628Y-106189026D02*
X201188247Y-106092264D01*
X201188247Y-106092264D02*
X201139866Y-105898740D01*
X201139866Y-105898740D02*
X201091485Y-105801978D01*
X201091485Y-105801978D02*
X201043104Y-105753597D01*
X201043104Y-105753597D02*
X200946342Y-105705216D01*
X200946342Y-105705216D02*
X200849580Y-105705216D01*
X200849580Y-105705216D02*
X200752818Y-105753597D01*
X200752818Y-105753597D02*
X200704437Y-105801978D01*
X200704437Y-105801978D02*
X200656056Y-105898740D01*
X200656056Y-105898740D02*
X200656056Y-106140645D01*
X200656056Y-106140645D02*
X200704437Y-106285788D01*
X201672056Y-106721216D02*
X200994723Y-106721216D01*
X200656056Y-106721216D02*
X200704437Y-106672835D01*
X200704437Y-106672835D02*
X200752818Y-106721216D01*
X200752818Y-106721216D02*
X200704437Y-106769597D01*
X200704437Y-106769597D02*
X200656056Y-106721216D01*
X200656056Y-106721216D02*
X200752818Y-106721216D01*
X201672056Y-107350169D02*
X201623676Y-107253407D01*
X201623676Y-107253407D02*
X201526914Y-107205026D01*
X201526914Y-107205026D02*
X200656056Y-107205026D01*
X201672056Y-107737216D02*
X200656056Y-107737216D01*
X201285009Y-107833978D02*
X201672056Y-108124264D01*
X200994723Y-108124264D02*
X201381771Y-107737216D01*
X200994723Y-108462930D02*
X201672056Y-108704835D01*
X200994723Y-108946740D02*
X201672056Y-108704835D01*
X201672056Y-108704835D02*
X201913961Y-108608073D01*
X201913961Y-108608073D02*
X201962342Y-108559692D01*
X201962342Y-108559692D02*
X202010723Y-108462930D01*
D12*
%TO.P,LED2,1,K*%
%TO.N,Net-(LED2-K)*%
X171500800Y-92959000D03*
D13*
%TO.P,LED2,2,A*%
%TO.N,Net-(LED2-A)*%
X171500800Y-95499000D03*
%TD*%
D14*
%TO.P,U4,1,A18*%
%TO.N,/BA18*%
X182880000Y-89154000D03*
D15*
%TO.P,U4,2,A16*%
%TO.N,/BA16*%
X182880000Y-91694000D03*
%TO.P,U4,3,A15*%
%TO.N,/BA15*%
X182880000Y-94234000D03*
%TO.P,U4,4,A12*%
%TO.N,/BA12*%
X182880000Y-96774000D03*
%TO.P,U4,5,A7*%
%TO.N,/BA7*%
X182880000Y-99314000D03*
%TO.P,U4,6,A6*%
%TO.N,/BA6*%
X182880000Y-101854000D03*
%TO.P,U4,7,A5*%
%TO.N,/BA5*%
X182880000Y-104394000D03*
%TO.P,U4,8,A4*%
%TO.N,/BA4*%
X182880000Y-106934000D03*
%TO.P,U4,9,A3*%
%TO.N,/BA3*%
X182880000Y-109474000D03*
%TO.P,U4,10,A2*%
%TO.N,/BA2*%
X182880000Y-112014000D03*
%TO.P,U4,11,A1*%
%TO.N,/BA1*%
X182880000Y-114554000D03*
%TO.P,U4,12,A0*%
%TO.N,/BA0*%
X182880000Y-117094000D03*
%TO.P,U4,13,D0*%
%TO.N,/BD0*%
X182880000Y-119634000D03*
%TO.P,U4,14,D1*%
%TO.N,/BD1*%
X182880000Y-122174000D03*
%TO.P,U4,15,D2*%
%TO.N,/BD2*%
X182880000Y-124714000D03*
%TO.P,U4,16,GND*%
%TO.N,GND*%
X182880000Y-127254000D03*
%TO.P,U4,17,D3*%
%TO.N,/BD3*%
X198120000Y-127254000D03*
%TO.P,U4,18,D4*%
%TO.N,/BD4*%
X198120000Y-124714000D03*
%TO.P,U4,19,D5*%
%TO.N,/BD5*%
X198120000Y-122174000D03*
%TO.P,U4,20,D6*%
%TO.N,/BD6*%
X198120000Y-119634000D03*
%TO.P,U4,21,D7*%
%TO.N,/BD7*%
X198120000Y-117094000D03*
%TO.P,U4,22,CE*%
%TO.N,/F_SEL-*%
X198120000Y-114554000D03*
%TO.P,U4,23,A10*%
%TO.N,/BA10*%
X198120000Y-112014000D03*
%TO.P,U4,24,OE*%
%TO.N,/FRD-*%
X198120000Y-109474000D03*
%TO.P,U4,25,A11*%
%TO.N,/BA11*%
X198120000Y-106934000D03*
%TO.P,U4,26,A9*%
%TO.N,/BA9*%
X198120000Y-104394000D03*
%TO.P,U4,27,A8*%
%TO.N,/BA8*%
X198120000Y-101854000D03*
%TO.P,U4,28,A13*%
%TO.N,/BA13*%
X198120000Y-99314000D03*
%TO.P,U4,29,A14*%
%TO.N,/BA14*%
X198120000Y-96774000D03*
%TO.P,U4,30,A17*%
%TO.N,/BA17*%
X198120000Y-94234000D03*
%TO.P,U4,31,PGM*%
%TO.N,/FWR-*%
X198120000Y-91694000D03*
%TO.P,U4,32,VCC*%
%TO.N,+5DP*%
X198120000Y-89154000D03*
%TD*%
D16*
%TO.P,J1,1,Pin_1*%
%TO.N,GND*%
X137434000Y-90145000D03*
D17*
%TO.P,J1,2,Pin_2*%
%TO.N,+3.3V*%
X139974000Y-90145000D03*
%TO.P,J1,3,Pin_3*%
%TO.N,/SPICK*%
X142514000Y-90145000D03*
%TO.P,J1,4,Pin_4*%
%TO.N,/SPIMO*%
X145054000Y-90145000D03*
%TO.P,J1,5,Pin_5*%
%TO.N,/DISPRST-*%
X147594000Y-90145000D03*
%TO.P,J1,6,Pin_6*%
%TO.N,/DISP_CD*%
X150134000Y-90145000D03*
%TO.P,J1,7,Pin_7*%
%TO.N,/DISP_CS-*%
X152674000Y-90145000D03*
%TD*%
D12*
%TO.P,LED3,1,K*%
%TO.N,GND*%
X171450000Y-103119000D03*
D13*
%TO.P,LED3,2,A*%
%TO.N,Net-(LED3-A)*%
X171450000Y-105659000D03*
%TD*%
D18*
%TO.P,U1,1,GPIO0*%
%TO.N,/RE_A*%
X101346001Y-79502000D03*
%TO.P,U1,2,GPIO1*%
%TO.N,/RE_B*%
X101346001Y-82042000D03*
D16*
%TO.P,U1,3,GND*%
%TO.N,GND*%
X101346001Y-84582000D03*
D18*
%TO.P,U1,4,GPIO2*%
%TO.N,/SPICK*%
X101346001Y-87122000D03*
%TO.P,U1,5,GPIO3*%
%TO.N,/SPIMO*%
X101346001Y-89662000D03*
%TO.P,U1,6,GPIO4*%
%TO.N,/SPIMI*%
X101346001Y-92202000D03*
%TO.P,U1,7,GPIO5*%
%TO.N,/CARD_CS-*%
X101346001Y-94742000D03*
D16*
%TO.P,U1,8,GND*%
%TO.N,GND*%
X101346001Y-97282000D03*
D18*
%TO.P,U1,9,GPIO6*%
%TO.N,/DISP_CS-*%
X101346001Y-99822000D03*
%TO.P,U1,10,GPIO7*%
%TO.N,/DISP_CD*%
X101346001Y-102362000D03*
%TO.P,U1,11,GPIO8*%
%TO.N,/RE_SW-*%
X101346001Y-104902000D03*
%TO.P,U1,12,GPIO9*%
%TO.N,/FPWR_ON*%
X101346001Y-107442000D03*
D16*
%TO.P,U1,13,GND*%
%TO.N,GND*%
X101346001Y-109982000D03*
D18*
%TO.P,U1,14,GPIO10*%
%TO.N,/PD0*%
X101346001Y-112522000D03*
%TO.P,U1,15,GPIO11*%
%TO.N,/PD1*%
X101346001Y-115062000D03*
%TO.P,U1,16,GPIO12*%
%TO.N,/PD2*%
X101346001Y-117602000D03*
%TO.P,U1,17,GPIO13*%
%TO.N,/PD3*%
X101346001Y-120142000D03*
D16*
%TO.P,U1,18,GND*%
%TO.N,GND*%
X101346001Y-122682000D03*
D18*
%TO.P,U1,19,GPIO14*%
%TO.N,/PD4*%
X101346001Y-125222000D03*
%TO.P,U1,20,GPIO15*%
%TO.N,/PD5*%
X101346001Y-127762000D03*
%TO.P,U1,21,GPIO16*%
%TO.N,/PD6*%
X119126001Y-127762000D03*
%TO.P,U1,22,GPIO17*%
%TO.N,/PD7*%
X119126001Y-125222000D03*
D16*
%TO.P,U1,23,GND*%
%TO.N,GND*%
X119126001Y-122682000D03*
D18*
%TO.P,U1,24,GPIO18*%
%TO.N,/A0*%
X119126001Y-120142000D03*
%TO.P,U1,25,GPIO19*%
%TO.N,/A1*%
X119126001Y-117602000D03*
%TO.P,U1,26,GPIO20*%
%TO.N,/A2*%
X119126001Y-115062000D03*
%TO.P,U1,27,GPIO21*%
%TO.N,/DLATCH*%
X119126001Y-112522000D03*
D16*
%TO.P,U1,28,GND*%
%TO.N,GND*%
X119126001Y-109982000D03*
D18*
%TO.P,U1,29,GPIO22*%
%TO.N,/ATTN-*%
X119126001Y-107442000D03*
%TO.P,U1,30,RUN*%
%TO.N,/RESET-*%
X119126001Y-104902000D03*
%TO.P,U1,31,GPIO26_ADC0*%
%TO.N,/PRD-*%
X119126001Y-102362000D03*
%TO.P,U1,32,GPIO27_ADC1*%
%TO.N,/PWR-*%
X119126001Y-99822000D03*
D16*
%TO.P,U1,33,AGND*%
%TO.N,GND*%
X119126001Y-97282000D03*
D18*
%TO.P,U1,34,GPIO28_ADC2*%
%TO.N,/DPSENS*%
X119126001Y-94742000D03*
%TO.P,U1,35,ADC_VREF*%
%TO.N,unconnected-(U1-ADC_VREF-Pad35)_1*%
X119126001Y-92202000D03*
%TO.P,U1,36,3V3*%
%TO.N,+3.3V*%
X119126001Y-89662000D03*
%TO.P,U1,37,3V3_EN*%
%TO.N,unconnected-(U1-3V3_EN-Pad37)_1*%
X119126001Y-87122000D03*
D16*
%TO.P,U1,38,GND*%
%TO.N,GND*%
X119126001Y-84582000D03*
D18*
%TO.P,U1,39,VSYS*%
%TO.N,+5V*%
X119126001Y-82042000D03*
%TO.P,U1,40,VBUS*%
X119126001Y-79502000D03*
%TO.P,U1,D1,SWCLK*%
%TO.N,unconnected-(U1-SWCLK-PadD1)_1*%
X107700001Y-127802000D03*
D16*
%TO.P,U1,D2,GND*%
%TO.N,unconnected-(U1-GND-PadD2)_1*%
X110240001Y-127802000D03*
D18*
%TO.P,U1,D3,SWDIO*%
%TO.N,unconnected-(U1-SWDIO-PadD3)_1*%
X112780001Y-127802000D03*
%TD*%
D12*
%TO.P,LED1,1,K*%
%TO.N,GND*%
X141478000Y-81026000D03*
D13*
%TO.P,LED1,2,A*%
%TO.N,Net-(LED1-A)*%
X141478000Y-83566000D03*
%TD*%
D16*
%TO.P,J2,1,Pin_1*%
%TO.N,GND*%
X88519000Y-98171000D03*
D17*
%TO.P,J2,2,Pin_2*%
%TO.N,/RE_B*%
X91059000Y-98171000D03*
%TO.P,J2,3,Pin_3*%
%TO.N,/RE_A*%
X93599000Y-98171000D03*
%TD*%
D19*
%TO.P,RE1,A,A*%
%TO.N,/RE_A*%
X88225000Y-103875000D03*
D20*
%TO.P,RE1,B,B*%
%TO.N,/RE_B*%
X83225000Y-103875000D03*
%TO.P,RE1,C,C*%
%TO.N,GND*%
X85725000Y-103875000D03*
D21*
%TO.P,RE1,MP*%
%TO.N,N/C*%
X91325000Y-111375000D03*
X80125000Y-111375000D03*
D20*
%TO.P,RE1,S1,S1*%
%TO.N,GND*%
X83225000Y-118375000D03*
%TO.P,RE1,S2,S2*%
%TO.N,/RE_SW-*%
X88225000Y-118375000D03*
%TD*%
D16*
%TO.P,J4,1,Pin_1*%
%TO.N,GND*%
X147579000Y-132080000D03*
D17*
%TO.P,J4,2,Pin_2*%
%TO.N,Net-(J4-Pin_2)*%
X145039000Y-132080000D03*
%TD*%
D22*
%TO.P,U3,CT,VS*%
%TO.N,+5V*%
X130810000Y-112546000D03*
X130810000Y-114046000D03*
X130810278Y-118518449D03*
X130810278Y-120018449D03*
X130811287Y-109564011D03*
X130811287Y-111064011D03*
X130812295Y-115541408D03*
X130812295Y-117041408D03*
%TD*%
D16*
%TO.P,J3,1,Pin_1*%
%TO.N,GND*%
X155199000Y-86360000D03*
D17*
%TO.P,J3,2,Pin_2*%
%TO.N,+3.3V*%
X152659000Y-86360000D03*
%TD*%
D16*
%TO.P,J5,1,Pin_1*%
%TO.N,/DPSENS*%
X134874000Y-132096000D03*
%TD*%
D23*
%TO.N,GND*%
X126492000Y-103632000D03*
X162560000Y-112776000D03*
X148717000Y-113157000D03*
X161290000Y-127381000D03*
X126492000Y-98552000D03*
X149733000Y-95377000D03*
X126238000Y-132334000D03*
X96520000Y-81026000D03*
X177038000Y-112776000D03*
X136779000Y-108966000D03*
X148971000Y-127381000D03*
X160020000Y-92202000D03*
X137668000Y-131191000D03*
X126492000Y-99822000D03*
X169926000Y-87376000D03*
X126365000Y-116459000D03*
X150241000Y-108458000D03*
X160020000Y-90043000D03*
X127889000Y-110236000D03*
D24*
%TO.N,+3.3V*%
X132588000Y-86741000D03*
X132588000Y-89789000D03*
D23*
X139827000Y-123952000D03*
D24*
X129032000Y-86741000D03*
X129032000Y-89789000D03*
D23*
X87884000Y-95250000D03*
D24*
%TO.N,/SPICK*%
X88519000Y-87122000D03*
%TO.N,/SPIMO*%
X86360000Y-89662000D03*
%TO.N,/DISP_CS-*%
X113919000Y-91694000D03*
X140843000Y-92710000D03*
%TO.N,Net-(LED3-A)*%
X168910000Y-100203000D03*
D23*
%TO.N,+5DP*%
X173990000Y-87376000D03*
X153162000Y-127381000D03*
X135255000Y-93980000D03*
X134747000Y-112661000D03*
X166116000Y-125857000D03*
X139573000Y-110109000D03*
X134747000Y-111391000D03*
X174133000Y-100208000D03*
X134747000Y-113931000D03*
X163322000Y-95250000D03*
X152019000Y-108966000D03*
D24*
%TO.N,/DPSENS*%
X114909600Y-94742000D03*
X114909600Y-127762000D03*
%TO.N,/DLATCH*%
X132842000Y-108331000D03*
%TO.N,/FPWR_ON*%
X157099000Y-89154000D03*
X125374400Y-80721200D03*
%TO.N,/SPIMI*%
X90721000Y-92202000D03*
%TO.N,/PD2*%
X124714000Y-118872000D03*
X144399000Y-103251000D03*
X156845000Y-124206000D03*
X144399000Y-120396000D03*
X145669000Y-122936000D03*
X162814000Y-120396000D03*
X156845000Y-120396000D03*
X168720161Y-120331839D03*
X155194000Y-124206000D03*
X133350000Y-120650000D03*
%TO.N,/BD1*%
X169278300Y-121666000D03*
X168021000Y-121666000D03*
%TO.N,/PD7*%
X162814000Y-114046000D03*
X141097000Y-97536000D03*
X136652000Y-114046000D03*
X158369000Y-114046000D03*
X158369000Y-96901000D03*
X173863000Y-114046000D03*
X141097000Y-114046000D03*
%TO.N,/PD1*%
X162814000Y-121666000D03*
X141605000Y-130302000D03*
X144272000Y-123571000D03*
X141605000Y-121666000D03*
X159004000Y-121666000D03*
X169192600Y-120972774D03*
X145034000Y-104521000D03*
%TO.N,/BD3*%
X170930300Y-119761000D03*
X170942000Y-129286000D03*
%TO.N,/PD4*%
X153924000Y-117856000D03*
X124809250Y-124079000D03*
X134969250Y-118518198D03*
X173863000Y-117856000D03*
X149479000Y-117856000D03*
X142875000Y-117221000D03*
X143002000Y-100711000D03*
X162814000Y-117856000D03*
%TO.N,/PWR-*%
X170307000Y-125349000D03*
X113284000Y-116205000D03*
X113284000Y-99822000D03*
X104394000Y-116205000D03*
%TO.N,/PD6*%
X136652000Y-115316000D03*
X141732000Y-115316000D03*
X157734000Y-115316000D03*
X141732000Y-98171000D03*
X162814000Y-115316000D03*
X157734000Y-98171000D03*
X173863000Y-115316000D03*
%TO.N,/PD0*%
X140970000Y-122936000D03*
X162814000Y-122936000D03*
X159639000Y-122936000D03*
X145669000Y-105791000D03*
X169818050Y-122936000D03*
X140970000Y-129413000D03*
%TO.N,/PD3*%
X134493000Y-119888000D03*
X153924000Y-119126000D03*
X149860000Y-119126000D03*
X143764000Y-119126000D03*
X143764000Y-101981000D03*
X173863000Y-119126000D03*
X162814000Y-119126000D03*
X124714000Y-121285000D03*
%TO.N,/PD5*%
X173863000Y-116586000D03*
X153924000Y-116586000D03*
X142367000Y-116586000D03*
X124841000Y-126492000D03*
X162814000Y-116586000D03*
X142367000Y-99441000D03*
X136112250Y-116586000D03*
X149860000Y-116586000D03*
%TO.N,/PRD-*%
X114173000Y-102362000D03*
X142240000Y-124206000D03*
%TO.N,/A0*%
X115722400Y-93624400D03*
%TO.N,/A2*%
X117144800Y-98653600D03*
%TO.N,/FWR-*%
X168275000Y-110871000D03*
X168275000Y-96901000D03*
X154178000Y-110617000D03*
X154178000Y-115316000D03*
%TO.N,/A1*%
X116484400Y-96062800D03*
%TO.N,/ADH_LD-*%
X136779000Y-111252000D03*
X134747000Y-101092000D03*
%TO.N,/ADL_LD-*%
X159131000Y-94488000D03*
X159131000Y-107061000D03*
%TO.N,/F_SEL-*%
X164846000Y-108585000D03*
X164846000Y-102616000D03*
%TO.N,/BA0*%
X163068000Y-105791000D03*
%TO.N,/BA2*%
X164211000Y-104013000D03*
X164211000Y-110236000D03*
%TO.N,/BA3*%
X165862000Y-101981000D03*
X165862000Y-107315000D03*
X169926000Y-107315000D03*
%TO.N,/BA1*%
X166497000Y-104521000D03*
%TO.N,/BA4*%
X166878000Y-100711000D03*
X167513000Y-104394000D03*
%TO.N,/BA6*%
X164338000Y-98171000D03*
X176149000Y-99441000D03*
%TO.N,/BA5*%
X169900600Y-99466400D03*
%TO.N,/BA7*%
X164338000Y-95631000D03*
%TO.N,/BA8*%
X154178000Y-106426000D03*
X164211000Y-103251000D03*
X154178000Y-103251000D03*
X159766000Y-103251000D03*
%TO.N,/BA9*%
X176149000Y-105791000D03*
%TO.N,/BA10*%
X146431000Y-109093000D03*
X139700000Y-103251000D03*
X152908000Y-112014000D03*
X169164000Y-110871000D03*
X139700000Y-109093000D03*
%TO.N,/BA11*%
X140462000Y-110617000D03*
X140081000Y-101981000D03*
X171069000Y-109474000D03*
%TO.N,/BA14*%
X167513000Y-101219000D03*
X167513000Y-98171000D03*
X140462000Y-101346000D03*
X140462000Y-98196400D03*
%TO.N,/BA15*%
X160147000Y-94234000D03*
%TO.N,/BA12*%
X176911000Y-101346000D03*
%TO.N,/BA18*%
X155448000Y-120396000D03*
%TO.N,/BA16*%
X156083000Y-122936000D03*
%TO.N,/BA17*%
X154813000Y-121666000D03*
X154813000Y-97536000D03*
%TO.N,/FRD-*%
X153543000Y-114046000D03*
X153543000Y-108204000D03*
%TO.N,Net-(J4-Pin_2)*%
X134747000Y-117856000D03*
%TD*%
D25*
%TO.N,/RE_SW-*%
X90805000Y-104902000D02*
X88225000Y-107482000D01*
X101600000Y-104902000D02*
X90805000Y-104902000D01*
X88225000Y-107482000D02*
X88225000Y-118375000D01*
D26*
%TO.N,+3.3V*%
X139974000Y-90145000D02*
X138348000Y-88519000D01*
X138348000Y-88519000D02*
X120269001Y-88519000D01*
X120269001Y-88519000D02*
X119126001Y-89662000D01*
D25*
%TO.N,/SPICK*%
X138271800Y-85902800D02*
X142514000Y-90145000D01*
X101346001Y-87122000D02*
X102565201Y-85902800D01*
X102565201Y-85902800D02*
X138271800Y-85902800D01*
X88519000Y-87122000D02*
X101600000Y-87122000D01*
%TO.N,/SPIMO*%
X143853750Y-91345250D02*
X145054000Y-90145000D01*
X139441160Y-87914750D02*
X141174250Y-89647840D01*
X141174250Y-89647840D02*
X141174250Y-90525600D01*
X132803250Y-87914750D02*
X139441160Y-87914750D01*
X119971609Y-87884000D02*
X132772500Y-87884000D01*
X102749250Y-88258750D02*
X119596859Y-88258750D01*
X141993900Y-91345250D02*
X143853750Y-91345250D01*
X101346000Y-89662000D02*
X102749250Y-88258750D01*
X119596859Y-88258750D02*
X119971609Y-87884000D01*
X86360000Y-89662000D02*
X101600000Y-89662000D01*
X141174250Y-90525600D02*
X141993900Y-91345250D01*
X132772500Y-87884000D02*
X132803250Y-87914750D01*
%TO.N,/DISP_CS-*%
X140843000Y-92710000D02*
X150109000Y-92710000D01*
X105664000Y-95504001D02*
X101346001Y-99822000D01*
X150109000Y-92710000D02*
X152674000Y-90145000D01*
X113919000Y-91694000D02*
X110108999Y-95504001D01*
X110108999Y-95504001D02*
X105664000Y-95504001D01*
%TO.N,/DISP_CD*%
X96977200Y-94716600D02*
X98088550Y-93605250D01*
X98088550Y-93605250D02*
X102533550Y-93605250D01*
X103784400Y-90982800D02*
X135639351Y-90982800D01*
X103073200Y-91694000D02*
X103784400Y-90982800D01*
X101346000Y-102362000D02*
X97967800Y-102362000D01*
X136383802Y-91727251D02*
X148551749Y-91727251D01*
X135639351Y-90982800D02*
X136383802Y-91727251D01*
X96977200Y-101371400D02*
X96977200Y-94716600D01*
X103073200Y-93065600D02*
X103073200Y-91694000D01*
X97967800Y-102362000D02*
X96977200Y-101371400D01*
X148551749Y-91727251D02*
X150134000Y-90145000D01*
X102533550Y-93605250D02*
X103073200Y-93065600D01*
%TO.N,/RE_A*%
X93599000Y-98171000D02*
X88225000Y-103545000D01*
%TO.N,/RE_B*%
X87503000Y-101727000D02*
X85373000Y-101727000D01*
X91059000Y-98171000D02*
X87503000Y-101727000D01*
X85373000Y-101727000D02*
X83225000Y-103875000D01*
%TO.N,Net-(LED3-A)*%
X169540000Y-105659000D02*
X171450000Y-105659000D01*
X168910000Y-105029000D02*
X169540000Y-105659000D01*
X168910000Y-100203000D02*
X168910000Y-105029000D01*
%TO.N,/DPSENS*%
X114909600Y-94742000D02*
X114909600Y-127762000D01*
%TO.N,/DLATCH*%
X119126001Y-112522000D02*
X123952000Y-112522000D01*
X132842000Y-108331000D02*
X128143000Y-108331000D01*
X123952000Y-112522000D02*
X128143000Y-108331000D01*
%TO.N,/FPWR_ON*%
X157099000Y-89154000D02*
X157099000Y-85859500D01*
X157099000Y-85859500D02*
X156075500Y-84836000D01*
X129489200Y-84836000D02*
X125374400Y-80721200D01*
X156075500Y-84836000D02*
X129489200Y-84836000D01*
%TO.N,/SPIMI*%
X90721000Y-92202000D02*
X101600000Y-92202000D01*
%TO.N,/PD2*%
X144399000Y-120396000D02*
X144399000Y-103251000D01*
X132588000Y-121412000D02*
X130175000Y-121412000D01*
X133350000Y-120650000D02*
X132588000Y-121412000D01*
X130175000Y-121412000D02*
X127635000Y-118872000D01*
X168720161Y-120331839D02*
X168656000Y-120396000D01*
X156845000Y-124206000D02*
X156845000Y-120396000D01*
X168656000Y-120396000D02*
X162814000Y-120396000D01*
X127635000Y-118872000D02*
X124714000Y-118872000D01*
X153924000Y-122936000D02*
X155194000Y-124206000D01*
X145669000Y-122936000D02*
X153924000Y-122936000D01*
%TO.N,/BD1*%
X169278300Y-121666000D02*
X168021000Y-121666000D01*
%TO.N,/PD7*%
X141097000Y-114046000D02*
X141097000Y-97536000D01*
X135128000Y-125222000D02*
X135509000Y-124841000D01*
X135509000Y-124841000D02*
X135509000Y-115189000D01*
X119126001Y-125222000D02*
X135128000Y-125222000D01*
X135509000Y-115189000D02*
X136652000Y-114046000D01*
X158369000Y-96901000D02*
X158369000Y-114046000D01*
X173863000Y-114046000D02*
X162814000Y-114046000D01*
%TO.N,/PD1*%
X144653000Y-121666000D02*
X145034000Y-121285000D01*
X163398200Y-121081800D02*
X162814000Y-121666000D01*
X141605000Y-130302000D02*
X106172000Y-130302000D01*
X145034000Y-121285000D02*
X145034000Y-104521000D01*
X105156000Y-115570000D02*
X104648000Y-115062000D01*
X169192600Y-120972774D02*
X169083574Y-121081800D01*
X104648000Y-115062000D02*
X101346000Y-115062000D01*
X146685000Y-125984000D02*
X158496000Y-125984000D01*
X159004000Y-125476000D02*
X159004000Y-121666000D01*
X106172000Y-130302000D02*
X105156000Y-129286000D01*
X169083574Y-121081800D02*
X163398200Y-121081800D01*
X141605000Y-121666000D02*
X144653000Y-121666000D01*
X144272000Y-123571000D02*
X146685000Y-125984000D01*
X158496000Y-125984000D02*
X159004000Y-125476000D01*
X105156000Y-129286000D02*
X105156000Y-115570000D01*
%TO.N,/BD3*%
X170930300Y-126757700D02*
X170930300Y-119761000D01*
X170942000Y-129286000D02*
X170942000Y-126769400D01*
X170942000Y-126769400D02*
X170930300Y-126757700D01*
%TO.N,/PD4*%
X142875000Y-117221000D02*
X143002000Y-117094000D01*
X135128000Y-118676948D02*
X134969250Y-118518198D01*
X124809250Y-124079000D02*
X134874000Y-124079000D01*
X134874000Y-124079000D02*
X135128000Y-123825000D01*
X153924000Y-117856000D02*
X149479000Y-117856000D01*
X143002000Y-117094000D02*
X143002000Y-100711000D01*
X173863000Y-117856000D02*
X162814000Y-117856000D01*
X135128000Y-123825000D02*
X135128000Y-118676948D01*
%TO.N,/PWR-*%
X105029000Y-133604000D02*
X162052000Y-133604000D01*
X105029000Y-133604000D02*
X104394000Y-132969000D01*
X170307000Y-125349000D02*
X162052000Y-133604000D01*
X113284000Y-116205000D02*
X113284000Y-99822000D01*
X104394000Y-132969000D02*
X104394000Y-116205000D01*
%TO.N,/PD6*%
X173863000Y-115316000D02*
X162814000Y-115316000D01*
X141732000Y-115316000D02*
X141732000Y-98171000D01*
X119126001Y-127762000D02*
X136144000Y-127762000D01*
X157734000Y-98171000D02*
X157734000Y-115316000D01*
X136652000Y-127254000D02*
X136652000Y-115316000D01*
X136144000Y-127762000D02*
X136652000Y-127254000D01*
%TO.N,/PD0*%
X105791000Y-113284000D02*
X105791000Y-128524000D01*
X145669000Y-121793000D02*
X144526000Y-122936000D01*
X169818050Y-122936000D02*
X162814000Y-122936000D01*
X140970000Y-122936000D02*
X144526000Y-122936000D01*
X159639000Y-125476000D02*
X158750000Y-126365000D01*
X106680000Y-129413000D02*
X105791000Y-128524000D01*
X145669000Y-105791000D02*
X145669000Y-121793000D01*
X158750000Y-126365000D02*
X145288000Y-126365000D01*
X105029000Y-112522000D02*
X105791000Y-113284000D01*
X106680000Y-129413000D02*
X140970000Y-129413000D01*
X145288000Y-126365000D02*
X141859000Y-122936000D01*
X159639000Y-122936000D02*
X159639000Y-125476000D01*
X101346000Y-112522000D02*
X105029000Y-112522000D01*
X141859000Y-122936000D02*
X140970000Y-122936000D01*
%TO.N,/PD3*%
X134493000Y-121285000D02*
X134493000Y-119888000D01*
X153924000Y-119126000D02*
X149860000Y-119126000D01*
X125349000Y-121920000D02*
X133858000Y-121920000D01*
X143764000Y-119126000D02*
X143764000Y-101981000D01*
X124714000Y-121285000D02*
X125349000Y-121920000D01*
X133858000Y-121920000D02*
X134493000Y-121285000D01*
X173863000Y-119126000D02*
X162814000Y-119126000D01*
%TO.N,/PD5*%
X142367000Y-116586000D02*
X142367000Y-99441000D01*
X173863000Y-116586000D02*
X162814000Y-116586000D01*
X153924000Y-116586000D02*
X149860000Y-116586000D01*
X124841000Y-126492000D02*
X135636000Y-126492000D01*
X136144000Y-125984000D02*
X136144000Y-116617750D01*
X136144000Y-116617750D02*
X136112250Y-116586000D01*
X135636000Y-126492000D02*
X136144000Y-125984000D01*
%TO.N,/PRD-*%
X114298751Y-102487751D02*
X114173000Y-102362000D01*
X141478000Y-124206000D02*
X136652000Y-129032000D01*
X115062000Y-129032000D02*
X114298751Y-128268751D01*
X136652000Y-129032000D02*
X115062000Y-129032000D01*
X142240000Y-124206000D02*
X141478000Y-124206000D01*
X114298751Y-128268751D02*
X114298751Y-102487751D01*
%TO.N,/A0*%
X115722400Y-93624400D02*
X115722400Y-119278400D01*
X116586000Y-120142000D02*
X119126000Y-120142000D01*
X115722400Y-119278400D02*
X116586000Y-120142000D01*
%TO.N,/A2*%
X117144800Y-114401600D02*
X117144800Y-98653600D01*
X117805200Y-115062000D02*
X117144800Y-114401600D01*
X119126001Y-115062000D02*
X117805200Y-115062000D01*
%TO.N,/FWR-*%
X154178000Y-115316000D02*
X154178000Y-110617000D01*
X168275000Y-96901000D02*
X168275000Y-110871000D01*
%TO.N,/A1*%
X116484400Y-96062800D02*
X116484400Y-116789200D01*
X117297200Y-117602000D02*
X119126001Y-117602000D01*
X116484400Y-116789200D02*
X117297200Y-117602000D01*
%TO.N,/ADH_LD-*%
X136525000Y-111252000D02*
X134747000Y-109474000D01*
X134747000Y-109474000D02*
X134747000Y-101092000D01*
X136779000Y-111252000D02*
X136525000Y-111252000D01*
%TO.N,/ADL_LD-*%
X159131000Y-94488000D02*
X159131000Y-107061000D01*
%TO.N,/F_SEL-*%
X164846000Y-102616000D02*
X164846000Y-108585000D01*
%TO.N,/BA2*%
X164211000Y-110236000D02*
X164211000Y-104013000D01*
%TO.N,/BA3*%
X165862000Y-101981000D02*
X165862000Y-107315000D01*
%TO.N,/BA4*%
X166878000Y-103759000D02*
X167513000Y-104394000D01*
X166878000Y-100711000D02*
X166878000Y-103759000D01*
%TO.N,/BA6*%
X176149000Y-99314000D02*
X175641000Y-98806000D01*
X176149000Y-99441000D02*
X176149000Y-99314000D01*
X172085000Y-98806000D02*
X169545000Y-96266000D01*
X169545000Y-96266000D02*
X164592000Y-96266000D01*
X175641000Y-98806000D02*
X172085000Y-98806000D01*
X164338000Y-96520000D02*
X164338000Y-98171000D01*
X164592000Y-96266000D02*
X164338000Y-96520000D01*
%TO.N,/BA5*%
X170434000Y-101600000D02*
X172593000Y-101600000D01*
X169900600Y-99466400D02*
X169926000Y-99491800D01*
X169926000Y-99491800D02*
X169926000Y-101092000D01*
X172593000Y-101600000D02*
X173990000Y-102997000D01*
X169926000Y-101092000D02*
X170434000Y-101600000D01*
X173990000Y-102997000D02*
X181483000Y-102997000D01*
X181483000Y-102997000D02*
X182880000Y-104394000D01*
%TO.N,/BA7*%
X174117000Y-95504000D02*
X184912000Y-95504000D01*
X185547000Y-96139000D02*
X185547000Y-98552000D01*
X184912000Y-95504000D02*
X185547000Y-96139000D01*
X170815000Y-96774000D02*
X172847000Y-96774000D01*
X169672000Y-95631000D02*
X170815000Y-96774000D01*
X172847000Y-96774000D02*
X174117000Y-95504000D01*
X185547000Y-98552000D02*
X184785000Y-99314000D01*
X184785000Y-99314000D02*
X182880000Y-99314000D01*
X164338000Y-95631000D02*
X169672000Y-95631000D01*
%TO.N,/BA8*%
X154178000Y-103251000D02*
X154178000Y-106426000D01*
X164211000Y-103251000D02*
X159766000Y-103251000D01*
%TO.N,/BA9*%
X176149000Y-105791000D02*
X195453000Y-105791000D01*
X196850000Y-104394000D02*
X198120000Y-104394000D01*
X195453000Y-105791000D02*
X196850000Y-104394000D01*
%TO.N,/BA10*%
X146939000Y-112014000D02*
X146431000Y-111506000D01*
X139700000Y-109093000D02*
X139700000Y-103251000D01*
X196977000Y-110871000D02*
X198120000Y-112014000D01*
X146431000Y-111506000D02*
X146431000Y-109093000D01*
X152908000Y-112014000D02*
X146939000Y-112014000D01*
X169164000Y-110871000D02*
X196977000Y-110871000D01*
%TO.N,/BA11*%
X171069000Y-109474000D02*
X176911000Y-109474000D01*
X194945000Y-108204000D02*
X196215000Y-106934000D01*
X196215000Y-106934000D02*
X198120000Y-106934000D01*
X140462000Y-102362000D02*
X140462000Y-110617000D01*
X176911000Y-109474000D02*
X178181000Y-108204000D01*
X178181000Y-108204000D02*
X194945000Y-108204000D01*
X140081000Y-101981000D02*
X140462000Y-102362000D01*
%TO.N,/BA14*%
X167513000Y-101219000D02*
X167513000Y-98171000D01*
X140462000Y-98196400D02*
X140462000Y-101346000D01*
%TO.N,/BA15*%
X160147000Y-94234000D02*
X182879999Y-94234000D01*
%TO.N,/BA12*%
X176911000Y-97155000D02*
X177292000Y-96774000D01*
X177292000Y-96774000D02*
X182880000Y-96774000D01*
X176911000Y-101346000D02*
X176911000Y-97155000D01*
%TO.N,/BA18*%
X181102000Y-90932000D02*
X182880000Y-89154000D01*
X156337000Y-90932000D02*
X181102000Y-90932000D01*
X155448000Y-91821000D02*
X156337000Y-90932000D01*
X155448000Y-120269000D02*
X155448000Y-91821000D01*
%TO.N,/BA16*%
X156718000Y-91313000D02*
X182499000Y-91313000D01*
X156083000Y-91948000D02*
X156718000Y-91313000D01*
X156083000Y-122936000D02*
X156083000Y-91948000D01*
%TO.N,/BA17*%
X154813000Y-97536000D02*
X154813000Y-121666000D01*
%TO.N,/FRD-*%
X153543000Y-114046000D02*
X153543000Y-108204000D01*
%TD*%
M02*
