%TF.GenerationSoftware,KiCad,Pcbnew,9.0.4*%
%TF.CreationDate,2025-09-26T12:58:40-07:00*%
%TF.ProjectId,SD-PGMR,53442d50-474d-4522-9e6b-696361645f70,v1.0*%
%TF.SameCoordinates,Original*%
%TF.FileFunction,Soldermask,Bot*%
%TF.FilePolarity,Negative*%
%FSLAX46Y46*%
G04 Gerber Fmt 4.6, Leading zero omitted, Abs format (unit mm)*
G04 Created by KiCad (PCBNEW 9.0.4) date 2025-09-26 12:58:40*
%MOMM*%
%LPD*%
G01*
G04 APERTURE LIST*
%ADD10C,2.200000*%
%ADD11R,1.700000X1.700000*%
%ADD12C,1.700000*%
%ADD13R,2.000000X1.440000*%
%ADD14O,2.000000X1.440000*%
%ADD15O,1.800000X1.800000*%
%ADD16O,1.500000X1.500000*%
%ADD17O,1.700000X1.700000*%
%ADD18C,0.950000*%
%ADD19O,1.600000X2.200000*%
%ADD20C,2.100000*%
%ADD21R,2.000000X2.000000*%
%ADD22C,2.000000*%
%ADD23R,2.000000X3.200000*%
%ADD24R,1.800000X1.800000*%
%ADD25C,1.800000*%
G04 APERTURE END LIST*
D10*
%TO.C,H4*%
X171450000Y-81280000D03*
%TD*%
%TO.C,H3*%
X171450000Y-132080000D03*
%TD*%
%TO.C,H2*%
X80010000Y-132080000D03*
%TD*%
%TO.C,H1*%
X80010000Y-97790000D03*
%TD*%
D11*
%TO.C,J4*%
X94234000Y-128778000D03*
D12*
X94234000Y-126238000D03*
X94234000Y-123698000D03*
%TD*%
D13*
%TO.C,U10*%
X181610000Y-88900000D03*
D14*
X181610000Y-91440000D03*
X181610000Y-93980000D03*
X181610000Y-96520000D03*
X181610000Y-99060000D03*
X181610000Y-101600000D03*
X181610000Y-104140000D03*
X181610000Y-106680000D03*
X181610000Y-109220000D03*
X181610000Y-111760000D03*
X181610000Y-114300000D03*
X181610000Y-116840000D03*
X181610000Y-119380000D03*
X181610000Y-121920000D03*
X181610000Y-124460000D03*
X181610000Y-127000000D03*
X196850000Y-127000000D03*
X196850000Y-124460000D03*
X196850000Y-121920000D03*
X196850000Y-119380000D03*
X196850000Y-116840000D03*
X196850000Y-114300000D03*
X196850000Y-111760000D03*
X196850000Y-109220000D03*
X196850000Y-106680000D03*
X196850000Y-104140000D03*
X196850000Y-101600000D03*
X196850000Y-99060000D03*
X196850000Y-96520000D03*
X196850000Y-93980000D03*
X196850000Y-91440000D03*
X196850000Y-88900000D03*
%TD*%
D15*
%TO.C,U3*%
X107765000Y-79632000D03*
D16*
X108065000Y-82662000D03*
X112915000Y-82662000D03*
D15*
X113215000Y-79632000D03*
D17*
X101600000Y-79502000D03*
X101600000Y-82042000D03*
D11*
X101600000Y-84582000D03*
D17*
X101600000Y-87122000D03*
X101600000Y-89662000D03*
X101600000Y-92202000D03*
X101600000Y-94742000D03*
D11*
X101600000Y-97282000D03*
D17*
X101600000Y-99822000D03*
X101600000Y-102362000D03*
X101600000Y-104902000D03*
X101600000Y-107442000D03*
D11*
X101600000Y-109982000D03*
D17*
X101600000Y-112522000D03*
X101600000Y-115062000D03*
X101600000Y-117602000D03*
X101600000Y-120142000D03*
D11*
X101600000Y-122682000D03*
D17*
X101600000Y-125222000D03*
X101600000Y-127762000D03*
X119380000Y-127762000D03*
X119380000Y-125222000D03*
D11*
X119380000Y-122682000D03*
D17*
X119380000Y-120142000D03*
X119380000Y-117602000D03*
X119380000Y-115062000D03*
X119380000Y-112522000D03*
D11*
X119380000Y-109982000D03*
D17*
X119380000Y-107442000D03*
X119380000Y-104902000D03*
X119380000Y-102362000D03*
X119380000Y-99822000D03*
D11*
X119380000Y-97282000D03*
D17*
X119380000Y-94742000D03*
X119380000Y-92202000D03*
X119380000Y-89662000D03*
X119380000Y-87122000D03*
D11*
X119380000Y-84582000D03*
D17*
X119380000Y-82042000D03*
X119380000Y-79502000D03*
X107954000Y-127802000D03*
D11*
X110494000Y-127802000D03*
D17*
X113034000Y-127802000D03*
%TD*%
D18*
%TO.C,SD1*%
X90101000Y-82180000D03*
X83301000Y-82180000D03*
%TD*%
D19*
%TO.C,RE1*%
X85725000Y-106875000D03*
D20*
X85725000Y-111375000D03*
D21*
X88225000Y-103875000D03*
D22*
X83225000Y-103875000D03*
X85725000Y-103875000D03*
D23*
X91325000Y-111375000D03*
X80125000Y-111375000D03*
D22*
X83225000Y-118375000D03*
X88225000Y-118375000D03*
%TD*%
D24*
%TO.C,LED3*%
X170815000Y-107950000D03*
D25*
X170815000Y-110490000D03*
%TD*%
D24*
%TO.C,LED2*%
X139700000Y-81026000D03*
D25*
X139700000Y-83566000D03*
%TD*%
D24*
%TO.C,LED1*%
X170815000Y-95250000D03*
D25*
X170815000Y-97790000D03*
%TD*%
D11*
%TO.C,J3*%
X149992000Y-81915000D03*
D12*
X147452000Y-81915000D03*
%TD*%
D11*
%TO.C,J2*%
X88519000Y-98171000D03*
D12*
X91059000Y-98171000D03*
X93599000Y-98171000D03*
%TD*%
D11*
%TO.C,J1*%
X138083500Y-94488000D03*
D12*
X140623500Y-94488000D03*
X143163500Y-94488000D03*
X145703500Y-94488000D03*
X148243500Y-94488000D03*
X150783500Y-94488000D03*
X153323500Y-94488000D03*
%TD*%
M02*
