%TF.GenerationSoftware,KiCad,Pcbnew,9.0.6*%
%TF.CreationDate,2025-11-05T23:56:09-08:00*%
%TF.ProjectId,SD-PGMR,53442d50-474d-4522-9e6b-696361645f70,v2.0*%
%TF.SameCoordinates,Original*%
%TF.FileFunction,Legend,Bot*%
%TF.FilePolarity,Positive*%
%FSLAX46Y46*%
G04 Gerber Fmt 4.6, Leading zero omitted, Abs format (unit mm)*
G04 Created by KiCad (PCBNEW 9.0.6) date 2025-11-05 23:56:09*
%MOMM*%
%LPD*%
G01*
G04 APERTURE LIST*
%ADD10C,0.150000*%
G04 APERTURE END LIST*
D10*
X112034762Y-126526200D02*
X112149048Y-126564295D01*
X112149048Y-126564295D02*
X112339524Y-126564295D01*
X112339524Y-126564295D02*
X112415715Y-126526200D01*
X112415715Y-126526200D02*
X112453810Y-126488104D01*
X112453810Y-126488104D02*
X112491905Y-126411914D01*
X112491905Y-126411914D02*
X112491905Y-126335723D01*
X112491905Y-126335723D02*
X112453810Y-126259533D01*
X112453810Y-126259533D02*
X112415715Y-126221438D01*
X112415715Y-126221438D02*
X112339524Y-126183342D01*
X112339524Y-126183342D02*
X112187143Y-126145247D01*
X112187143Y-126145247D02*
X112110953Y-126107152D01*
X112110953Y-126107152D02*
X112072858Y-126069057D01*
X112072858Y-126069057D02*
X112034762Y-125992866D01*
X112034762Y-125992866D02*
X112034762Y-125916676D01*
X112034762Y-125916676D02*
X112072858Y-125840485D01*
X112072858Y-125840485D02*
X112110953Y-125802390D01*
X112110953Y-125802390D02*
X112187143Y-125764295D01*
X112187143Y-125764295D02*
X112377620Y-125764295D01*
X112377620Y-125764295D02*
X112491905Y-125802390D01*
X112758572Y-125764295D02*
X112949048Y-126564295D01*
X112949048Y-126564295D02*
X113101429Y-125992866D01*
X113101429Y-125992866D02*
X113253810Y-126564295D01*
X113253810Y-126564295D02*
X113444287Y-125764295D01*
X113749049Y-126564295D02*
X113749049Y-125764295D01*
X113749049Y-125764295D02*
X113939525Y-125764295D01*
X113939525Y-125764295D02*
X114053811Y-125802390D01*
X114053811Y-125802390D02*
X114130001Y-125878580D01*
X114130001Y-125878580D02*
X114168096Y-125954771D01*
X114168096Y-125954771D02*
X114206192Y-126107152D01*
X114206192Y-126107152D02*
X114206192Y-126221438D01*
X114206192Y-126221438D02*
X114168096Y-126373819D01*
X114168096Y-126373819D02*
X114130001Y-126450009D01*
X114130001Y-126450009D02*
X114053811Y-126526200D01*
X114053811Y-126526200D02*
X113939525Y-126564295D01*
X113939525Y-126564295D02*
X113749049Y-126564295D01*
X114549049Y-126564295D02*
X114549049Y-125764295D01*
X115082382Y-125764295D02*
X115234763Y-125764295D01*
X115234763Y-125764295D02*
X115310953Y-125802390D01*
X115310953Y-125802390D02*
X115387144Y-125878580D01*
X115387144Y-125878580D02*
X115425239Y-126030961D01*
X115425239Y-126030961D02*
X115425239Y-126297628D01*
X115425239Y-126297628D02*
X115387144Y-126450009D01*
X115387144Y-126450009D02*
X115310953Y-126526200D01*
X115310953Y-126526200D02*
X115234763Y-126564295D01*
X115234763Y-126564295D02*
X115082382Y-126564295D01*
X115082382Y-126564295D02*
X115006191Y-126526200D01*
X115006191Y-126526200D02*
X114930001Y-126450009D01*
X114930001Y-126450009D02*
X114891905Y-126297628D01*
X114891905Y-126297628D02*
X114891905Y-126030961D01*
X114891905Y-126030961D02*
X114930001Y-125878580D01*
X114930001Y-125878580D02*
X115006191Y-125802390D01*
X115006191Y-125802390D02*
X115082382Y-125764295D01*
X104260476Y-126546200D02*
X104374762Y-126584295D01*
X104374762Y-126584295D02*
X104565238Y-126584295D01*
X104565238Y-126584295D02*
X104641429Y-126546200D01*
X104641429Y-126546200D02*
X104679524Y-126508104D01*
X104679524Y-126508104D02*
X104717619Y-126431914D01*
X104717619Y-126431914D02*
X104717619Y-126355723D01*
X104717619Y-126355723D02*
X104679524Y-126279533D01*
X104679524Y-126279533D02*
X104641429Y-126241438D01*
X104641429Y-126241438D02*
X104565238Y-126203342D01*
X104565238Y-126203342D02*
X104412857Y-126165247D01*
X104412857Y-126165247D02*
X104336667Y-126127152D01*
X104336667Y-126127152D02*
X104298572Y-126089057D01*
X104298572Y-126089057D02*
X104260476Y-126012866D01*
X104260476Y-126012866D02*
X104260476Y-125936676D01*
X104260476Y-125936676D02*
X104298572Y-125860485D01*
X104298572Y-125860485D02*
X104336667Y-125822390D01*
X104336667Y-125822390D02*
X104412857Y-125784295D01*
X104412857Y-125784295D02*
X104603334Y-125784295D01*
X104603334Y-125784295D02*
X104717619Y-125822390D01*
X104984286Y-125784295D02*
X105174762Y-126584295D01*
X105174762Y-126584295D02*
X105327143Y-126012866D01*
X105327143Y-126012866D02*
X105479524Y-126584295D01*
X105479524Y-126584295D02*
X105670001Y-125784295D01*
X106431906Y-126508104D02*
X106393810Y-126546200D01*
X106393810Y-126546200D02*
X106279525Y-126584295D01*
X106279525Y-126584295D02*
X106203334Y-126584295D01*
X106203334Y-126584295D02*
X106089048Y-126546200D01*
X106089048Y-126546200D02*
X106012858Y-126470009D01*
X106012858Y-126470009D02*
X105974763Y-126393819D01*
X105974763Y-126393819D02*
X105936667Y-126241438D01*
X105936667Y-126241438D02*
X105936667Y-126127152D01*
X105936667Y-126127152D02*
X105974763Y-125974771D01*
X105974763Y-125974771D02*
X106012858Y-125898580D01*
X106012858Y-125898580D02*
X106089048Y-125822390D01*
X106089048Y-125822390D02*
X106203334Y-125784295D01*
X106203334Y-125784295D02*
X106279525Y-125784295D01*
X106279525Y-125784295D02*
X106393810Y-125822390D01*
X106393810Y-125822390D02*
X106431906Y-125860485D01*
X107155715Y-126584295D02*
X106774763Y-126584295D01*
X106774763Y-126584295D02*
X106774763Y-125784295D01*
X107422382Y-126584295D02*
X107422382Y-125784295D01*
X107879525Y-126584295D02*
X107536667Y-126127152D01*
X107879525Y-125784295D02*
X107422382Y-126241438D01*
M02*
