%TF.GenerationSoftware,KiCad,Pcbnew,9.0.6*%
%TF.CreationDate,2025-11-05T23:56:09-08:00*%
%TF.ProjectId,SD-PGMR,53442d50-474d-4522-9e6b-696361645f70,v2.0*%
%TF.SameCoordinates,Original*%
%TF.FileFunction,Soldermask,Top*%
%TF.FilePolarity,Negative*%
%FSLAX46Y46*%
G04 Gerber Fmt 4.6, Leading zero omitted, Abs format (unit mm)*
G04 Created by KiCad (PCBNEW 9.0.6) date 2025-11-05 23:56:09*
%MOMM*%
%LPD*%
G01*
G04 APERTURE LIST*
G04 Aperture macros list*
%AMRoundRect*
0 Rectangle with rounded corners*
0 $1 Rounding radius*
0 $2 $3 $4 $5 $6 $7 $8 $9 X,Y pos of 4 corners*
0 Add a 4 corners polygon primitive as box body*
4,1,4,$2,$3,$4,$5,$6,$7,$8,$9,$2,$3,0*
0 Add four circle primitives for the rounded corners*
1,1,$1+$1,$2,$3*
1,1,$1+$1,$4,$5*
1,1,$1+$1,$6,$7*
1,1,$1+$1,$8,$9*
0 Add four rect primitives between the rounded corners*
20,1,$1+$1,$2,$3,$4,$5,0*
20,1,$1+$1,$4,$5,$6,$7,0*
20,1,$1+$1,$6,$7,$8,$9,0*
20,1,$1+$1,$8,$9,$2,$3,0*%
G04 Aperture macros list end*
%ADD10RoundRect,0.250000X-0.350000X-0.450000X0.350000X-0.450000X0.350000X0.450000X-0.350000X0.450000X0*%
%ADD11RoundRect,0.237500X0.300000X0.237500X-0.300000X0.237500X-0.300000X-0.237500X0.300000X-0.237500X0*%
%ADD12R,1.800000X1.800000*%
%ADD13C,1.800000*%
%ADD14C,2.200000*%
%ADD15RoundRect,0.150000X0.875000X0.150000X-0.875000X0.150000X-0.875000X-0.150000X0.875000X-0.150000X0*%
%ADD16RoundRect,0.237500X-0.300000X-0.237500X0.300000X-0.237500X0.300000X0.237500X-0.300000X0.237500X0*%
%ADD17R,2.000000X1.440000*%
%ADD18O,2.000000X1.440000*%
%ADD19R,1.700000X1.700000*%
%ADD20C,1.700000*%
%ADD21RoundRect,0.250000X-0.600000X0.400000X-0.600000X-0.400000X0.600000X-0.400000X0.600000X0.400000X0*%
%ADD22O,1.800000X1.800000*%
%ADD23O,1.500000X1.500000*%
%ADD24O,1.700000X1.700000*%
%ADD25R,3.500000X1.700000*%
%ADD26R,1.700000X3.500000*%
%ADD27C,0.950000*%
%ADD28R,0.620000X1.400000*%
%ADD29R,1.100000X2.400000*%
%ADD30RoundRect,0.250000X0.350000X0.450000X-0.350000X0.450000X-0.350000X-0.450000X0.350000X-0.450000X0*%
%ADD31RoundRect,0.250000X-0.450000X0.350000X-0.450000X-0.350000X0.450000X-0.350000X0.450000X0.350000X0*%
%ADD32RoundRect,0.150000X-0.825000X-0.150000X0.825000X-0.150000X0.825000X0.150000X-0.825000X0.150000X0*%
%ADD33RoundRect,0.150000X-0.875000X-0.150000X0.875000X-0.150000X0.875000X0.150000X-0.875000X0.150000X0*%
%ADD34RoundRect,0.237500X0.237500X-0.300000X0.237500X0.300000X-0.237500X0.300000X-0.237500X-0.300000X0*%
%ADD35RoundRect,0.250000X0.450000X-0.350000X0.450000X0.350000X-0.450000X0.350000X-0.450000X-0.350000X0*%
%ADD36O,1.600000X2.200000*%
%ADD37C,2.100000*%
%ADD38R,2.000000X2.000000*%
%ADD39C,2.000000*%
%ADD40R,2.000000X3.200000*%
%ADD41R,1.310000X0.650000*%
%ADD42R,1.310000X0.600000*%
%ADD43R,1.325000X1.500000*%
%ADD44C,0.800000*%
%ADD45R,1.600000X1.000000*%
%ADD46RoundRect,0.162500X-0.617500X-0.162500X0.617500X-0.162500X0.617500X0.162500X-0.617500X0.162500X0*%
G04 APERTURE END LIST*
D10*
%TO.C,R9*%
X145304000Y-87249000D03*
X147304000Y-87249000D03*
%TD*%
D11*
%TO.C,C9*%
X137006501Y-92837000D03*
X135281499Y-92837000D03*
%TD*%
D12*
%TO.C,LED2*%
X171500800Y-92959000D03*
D13*
X171500800Y-95499000D03*
%TD*%
D14*
%TO.C,H3*%
X171450000Y-132080000D03*
%TD*%
D11*
%TO.C,C1*%
X86587500Y-120900000D03*
X84862500Y-120900000D03*
%TD*%
D15*
%TO.C,U5*%
X147320000Y-124206000D03*
X147320000Y-122936000D03*
X147320000Y-121666000D03*
X147320000Y-120396000D03*
X147320000Y-119126000D03*
X147320000Y-117856000D03*
X147320000Y-116586000D03*
X147320000Y-115316000D03*
X147320000Y-114046000D03*
X147320000Y-112776000D03*
X138020000Y-112776000D03*
X138020000Y-114046000D03*
X138020000Y-115316000D03*
X138020000Y-116586000D03*
X138020000Y-117856000D03*
X138020000Y-119126000D03*
X138020000Y-120396000D03*
X138020000Y-121666000D03*
X138020000Y-122936000D03*
X138020000Y-124206000D03*
%TD*%
%TO.C,U9*%
X161290000Y-124206000D03*
X161290000Y-122936000D03*
X161290000Y-121666000D03*
X161290000Y-120396000D03*
X161290000Y-119126000D03*
X161290000Y-117856000D03*
X161290000Y-116586000D03*
X161290000Y-115316000D03*
X161290000Y-114046000D03*
X161290000Y-112776000D03*
X151990000Y-112776000D03*
X151990000Y-114046000D03*
X151990000Y-115316000D03*
X151990000Y-116586000D03*
X151990000Y-117856000D03*
X151990000Y-119126000D03*
X151990000Y-120396000D03*
X151990000Y-121666000D03*
X151990000Y-122936000D03*
X151990000Y-124206000D03*
%TD*%
D16*
%TO.C,C8*%
X150267499Y-110236000D03*
X151992501Y-110236000D03*
%TD*%
D17*
%TO.C,U4*%
X182880000Y-89154000D03*
D18*
X182880000Y-91694000D03*
X182880000Y-94234000D03*
X182880000Y-96774000D03*
X182880000Y-99314000D03*
X182880000Y-101854000D03*
X182880000Y-104394000D03*
X182880000Y-106934000D03*
X182880000Y-109474000D03*
X182880000Y-112014000D03*
X182880000Y-114554000D03*
X182880000Y-117094000D03*
X182880000Y-119634000D03*
X182880000Y-122174000D03*
X182880000Y-124714000D03*
X182880000Y-127254000D03*
X198120000Y-127254000D03*
X198120000Y-124714000D03*
X198120000Y-122174000D03*
X198120000Y-119634000D03*
X198120000Y-117094000D03*
X198120000Y-114554000D03*
X198120000Y-112014000D03*
X198120000Y-109474000D03*
X198120000Y-106934000D03*
X198120000Y-104394000D03*
X198120000Y-101854000D03*
X198120000Y-99314000D03*
X198120000Y-96774000D03*
X198120000Y-94234000D03*
X198120000Y-91694000D03*
X198120000Y-89154000D03*
%TD*%
D19*
%TO.C,J1*%
X137434000Y-90145000D03*
D20*
X139974000Y-90145000D03*
X142514000Y-90145000D03*
X145054000Y-90145000D03*
X147594000Y-90145000D03*
X150134000Y-90145000D03*
X152674000Y-90145000D03*
%TD*%
D21*
%TO.C,D1*%
X131318000Y-125758000D03*
X131318000Y-129258000D03*
%TD*%
D12*
%TO.C,LED3*%
X171450000Y-103119000D03*
D13*
X171450000Y-105659000D03*
%TD*%
D10*
%TO.C,R5*%
X131334000Y-92710000D03*
X133334000Y-92710000D03*
%TD*%
D22*
%TO.C,U1*%
X107511001Y-79632000D03*
D23*
X107811001Y-82662000D03*
X112661001Y-82662000D03*
D22*
X112961001Y-79632000D03*
D24*
X101346001Y-79502000D03*
D25*
X100446001Y-79502000D03*
D24*
X101346001Y-82042000D03*
D25*
X100446001Y-82042000D03*
D19*
X101346001Y-84582000D03*
D25*
X100446001Y-84582000D03*
D24*
X101346001Y-87122000D03*
D25*
X100446001Y-87122000D03*
D24*
X101346001Y-89662000D03*
D25*
X100446001Y-89662000D03*
D24*
X101346001Y-92202000D03*
D25*
X100446001Y-92202000D03*
D24*
X101346001Y-94742000D03*
D25*
X100446001Y-94742000D03*
D19*
X101346001Y-97282000D03*
D25*
X100446001Y-97282000D03*
D24*
X101346001Y-99822000D03*
D25*
X100446001Y-99822000D03*
D24*
X101346001Y-102362000D03*
D25*
X100446001Y-102362000D03*
D24*
X101346001Y-104902000D03*
D25*
X100446001Y-104902000D03*
D24*
X101346001Y-107442000D03*
D25*
X100446001Y-107442000D03*
D19*
X101346001Y-109982000D03*
D25*
X100446001Y-109982000D03*
D24*
X101346001Y-112522000D03*
D25*
X100446001Y-112522000D03*
D24*
X101346001Y-115062000D03*
D25*
X100446001Y-115062000D03*
D24*
X101346001Y-117602000D03*
D25*
X100446001Y-117602000D03*
D24*
X101346001Y-120142000D03*
D25*
X100446001Y-120142000D03*
D19*
X101346001Y-122682000D03*
D25*
X100446001Y-122682000D03*
D24*
X101346001Y-125222000D03*
D25*
X100446001Y-125222000D03*
D24*
X101346001Y-127762000D03*
D25*
X100446001Y-127762000D03*
D24*
X119126001Y-127762000D03*
D25*
X120026001Y-127762000D03*
D24*
X119126001Y-125222000D03*
D25*
X120026001Y-125222000D03*
D19*
X119126001Y-122682000D03*
D25*
X120026001Y-122682000D03*
D24*
X119126001Y-120142000D03*
D25*
X120026001Y-120142000D03*
D24*
X119126001Y-117602000D03*
D25*
X120026001Y-117602000D03*
D24*
X119126001Y-115062000D03*
D25*
X120026001Y-115062000D03*
D24*
X119126001Y-112522000D03*
D25*
X120026001Y-112522000D03*
D19*
X119126001Y-109982000D03*
D25*
X120026001Y-109982000D03*
D24*
X119126001Y-107442000D03*
D25*
X120026001Y-107442000D03*
D24*
X119126001Y-104902000D03*
D25*
X120026001Y-104902000D03*
D24*
X119126001Y-102362000D03*
D25*
X120026001Y-102362000D03*
D24*
X119126001Y-99822000D03*
D25*
X120026001Y-99822000D03*
D19*
X119126001Y-97282000D03*
D25*
X120026001Y-97282000D03*
D24*
X119126001Y-94742000D03*
D25*
X120026001Y-94742000D03*
D24*
X119126001Y-92202000D03*
D25*
X120026001Y-92202000D03*
D24*
X119126001Y-89662000D03*
D25*
X120026001Y-89662000D03*
D24*
X119126001Y-87122000D03*
D25*
X120026001Y-87122000D03*
D19*
X119126001Y-84582000D03*
D25*
X120026001Y-84582000D03*
D24*
X119126001Y-82042000D03*
D25*
X120026001Y-82042000D03*
D24*
X119126001Y-79502000D03*
D25*
X120026001Y-79502000D03*
D24*
X107700001Y-127802000D03*
D26*
X107700001Y-128702000D03*
D19*
X110240001Y-127802000D03*
D26*
X110240001Y-128702000D03*
D24*
X112780001Y-127802000D03*
D26*
X112780001Y-128702000D03*
%TD*%
D14*
%TO.C,H2*%
X80010000Y-132080000D03*
%TD*%
D27*
%TO.C,SD1*%
X90101000Y-82180000D03*
X83301000Y-82180000D03*
D28*
X84121000Y-93600000D03*
X85221000Y-93600000D03*
X86321000Y-93600000D03*
X87421000Y-93600000D03*
X88521000Y-93600000D03*
X89621000Y-93600000D03*
X90721000Y-93600000D03*
X91821000Y-93600000D03*
X92921000Y-93600000D03*
D29*
X94301000Y-91600000D03*
X94301000Y-82600000D03*
X78151000Y-91600000D03*
X78151000Y-82600000D03*
%TD*%
D30*
%TO.C,R7*%
X137398000Y-87122000D03*
X135398000Y-87122000D03*
%TD*%
D31*
%TO.C,R8*%
X126238000Y-125746000D03*
X126238000Y-127746000D03*
%TD*%
D10*
%TO.C,R12*%
X170500800Y-89911000D03*
X172500800Y-89911000D03*
%TD*%
D15*
%TO.C,U8*%
X147320000Y-107086400D03*
X147320000Y-105816400D03*
X147320000Y-104546400D03*
X147320000Y-103276400D03*
X147320000Y-102006400D03*
X147320000Y-100736400D03*
X147320000Y-99466400D03*
X147320000Y-98196400D03*
X147320000Y-96926400D03*
X147320000Y-95656400D03*
X138020000Y-95656400D03*
X138020000Y-96926400D03*
X138020000Y-98196400D03*
X138020000Y-99466400D03*
X138020000Y-100736400D03*
X138020000Y-102006400D03*
X138020000Y-103276400D03*
X138020000Y-104546400D03*
X138020000Y-105816400D03*
X138020000Y-107086400D03*
%TD*%
D14*
%TO.C,H4*%
X171450000Y-81280000D03*
%TD*%
D32*
%TO.C,U2*%
X128400000Y-94742000D03*
X128400000Y-96012000D03*
X128400000Y-97282000D03*
X128400000Y-98552000D03*
X128400000Y-99822000D03*
X128400000Y-101092000D03*
X128400000Y-102362000D03*
X128400000Y-103632000D03*
X133350000Y-103632000D03*
X133350000Y-102362000D03*
X133350000Y-101092000D03*
X133350000Y-99822000D03*
X133350000Y-98552000D03*
X133350000Y-97282000D03*
X133350000Y-96012000D03*
X133350000Y-94742000D03*
%TD*%
D12*
%TO.C,LED1*%
X141478000Y-81026000D03*
D13*
X141478000Y-83566000D03*
%TD*%
D16*
%TO.C,C10*%
X171095500Y-87376000D03*
X172820500Y-87376000D03*
%TD*%
D19*
%TO.C,J2*%
X88519000Y-98171000D03*
D20*
X91059000Y-98171000D03*
X93599000Y-98171000D03*
%TD*%
D16*
%TO.C,C7*%
X164364499Y-127381000D03*
X166089501Y-127381000D03*
%TD*%
%TO.C,C4*%
X150267499Y-127381000D03*
X151992501Y-127381000D03*
%TD*%
%TO.C,C6*%
X130201499Y-132334000D03*
X131926501Y-132334000D03*
%TD*%
D33*
%TO.C,U7*%
X151990000Y-95656400D03*
X151990000Y-96926400D03*
X151990000Y-98196400D03*
X151990000Y-99466400D03*
X151990000Y-100736400D03*
X151990000Y-102006400D03*
X151990000Y-103276400D03*
X151990000Y-104546400D03*
X151990000Y-105816400D03*
X151990000Y-107086400D03*
X161290000Y-107086400D03*
X161290000Y-105816400D03*
X161290000Y-104546400D03*
X161290000Y-103276400D03*
X161290000Y-102006400D03*
X161290000Y-100736400D03*
X161290000Y-99466400D03*
X161290000Y-98196400D03*
X161290000Y-96926400D03*
X161290000Y-95656400D03*
%TD*%
D34*
%TO.C,C3*%
X137668000Y-128878501D03*
X137668000Y-127153499D03*
%TD*%
D35*
%TO.C,R1*%
X125603000Y-107299000D03*
X125603000Y-105299000D03*
%TD*%
D36*
%TO.C,RE1*%
X85725000Y-106875000D03*
D37*
X85725000Y-111375000D03*
D38*
X88225000Y-103875000D03*
D39*
X83225000Y-103875000D03*
X85725000Y-103875000D03*
D40*
X91325000Y-111375000D03*
X80125000Y-111375000D03*
D39*
X83225000Y-118375000D03*
X88225000Y-118375000D03*
%TD*%
D31*
%TO.C,R2*%
X125603000Y-109363000D03*
X125603000Y-111363000D03*
%TD*%
D19*
%TO.C,J4*%
X147579000Y-132080000D03*
D20*
X145039000Y-132080000D03*
%TD*%
D41*
%TO.C,U3*%
X127965000Y-111391000D03*
X127965000Y-112661000D03*
X127965000Y-113931000D03*
D42*
X127965000Y-115201000D03*
D41*
X127963884Y-116471911D03*
X127963884Y-117741911D03*
D42*
X127963884Y-119011911D03*
D41*
X133653884Y-119011911D03*
X133653884Y-117741911D03*
X133653884Y-116471911D03*
X133655000Y-115201000D03*
X133655000Y-113931000D03*
X133655000Y-112661000D03*
X133655000Y-111391000D03*
D43*
X130147500Y-112546000D03*
X130147500Y-114046000D03*
X130147778Y-118518449D03*
X130147778Y-120018449D03*
X130148787Y-109564011D03*
X130148787Y-111064011D03*
X130149795Y-115541408D03*
X130149795Y-117041408D03*
D44*
X130810000Y-112546000D03*
X130810000Y-114046000D03*
X130810278Y-118518449D03*
X130810278Y-120018449D03*
X130811287Y-109564011D03*
X130811287Y-111064011D03*
X130812295Y-115541408D03*
X130812295Y-117041408D03*
D43*
X131472500Y-112546000D03*
X131472500Y-114046000D03*
X131472778Y-118518449D03*
X131472778Y-120018449D03*
X131473787Y-109564011D03*
X131473787Y-111064011D03*
X131474795Y-115541408D03*
X131474795Y-117041408D03*
%TD*%
D16*
%TO.C,C2*%
X136805499Y-110109000D03*
X138530501Y-110109000D03*
%TD*%
D45*
%TO.C,SW1*%
X82973000Y-125654000D03*
X88223000Y-125654000D03*
X82973000Y-128854000D03*
X88223000Y-128854000D03*
%TD*%
D19*
%TO.C,J3*%
X155199000Y-86360000D03*
D20*
X152659000Y-86360000D03*
%TD*%
D19*
%TO.C,J5*%
X134874000Y-132096000D03*
%TD*%
D45*
%TO.C,SW2*%
X127423000Y-80950000D03*
X132673000Y-80950000D03*
X127423000Y-84150000D03*
X132673000Y-84150000D03*
%TD*%
D35*
%TO.C,R10*%
X128778000Y-127746000D03*
X128778000Y-125746000D03*
%TD*%
D14*
%TO.C,H1*%
X80010000Y-97790000D03*
%TD*%
D31*
%TO.C,R11*%
X134112000Y-125762000D03*
X134112000Y-127762000D03*
%TD*%
D34*
%TO.C,C5*%
X135382000Y-82142501D03*
X135382000Y-80417499D03*
%TD*%
D46*
%TO.C,U10*%
X161384000Y-90048000D03*
X161384000Y-90998000D03*
X161384000Y-91948000D03*
X164084000Y-91948000D03*
X164084000Y-90048000D03*
%TD*%
D15*
%TO.C,U6*%
X175416000Y-124206000D03*
X175416000Y-122936000D03*
X175416000Y-121666000D03*
X175416000Y-120396000D03*
X175416000Y-119126000D03*
X175416000Y-117856000D03*
X175416000Y-116586000D03*
X175416000Y-115316000D03*
X175416000Y-114046000D03*
X175416000Y-112776000D03*
X166116000Y-112776000D03*
X166116000Y-114046000D03*
X166116000Y-115316000D03*
X166116000Y-116586000D03*
X166116000Y-117856000D03*
X166116000Y-119126000D03*
X166116000Y-120396000D03*
X166116000Y-121666000D03*
X166116000Y-122936000D03*
X166116000Y-124206000D03*
%TD*%
D10*
%TO.C,R13*%
X171101000Y-100203000D03*
X173101000Y-100203000D03*
%TD*%
M02*
