%TF.GenerationSoftware,KiCad,Pcbnew,9.0.6*%
%TF.CreationDate,2025-11-05T23:56:09-08:00*%
%TF.ProjectId,SD-PGMR,53442d50-474d-4522-9e6b-696361645f70,v2.0*%
%TF.SameCoordinates,Original*%
%TF.FileFunction,Copper,L1,Top*%
%TF.FilePolarity,Positive*%
%FSLAX46Y46*%
G04 Gerber Fmt 4.6, Leading zero omitted, Abs format (unit mm)*
G04 Created by KiCad (PCBNEW 9.0.6) date 2025-11-05 23:56:09*
%MOMM*%
%LPD*%
G01*
G04 APERTURE LIST*
G04 Aperture macros list*
%AMRoundRect*
0 Rectangle with rounded corners*
0 $1 Rounding radius*
0 $2 $3 $4 $5 $6 $7 $8 $9 X,Y pos of 4 corners*
0 Add a 4 corners polygon primitive as box body*
4,1,4,$2,$3,$4,$5,$6,$7,$8,$9,$2,$3,0*
0 Add four circle primitives for the rounded corners*
1,1,$1+$1,$2,$3*
1,1,$1+$1,$4,$5*
1,1,$1+$1,$6,$7*
1,1,$1+$1,$8,$9*
0 Add four rect primitives between the rounded corners*
20,1,$1+$1,$2,$3,$4,$5,0*
20,1,$1+$1,$4,$5,$6,$7,0*
20,1,$1+$1,$6,$7,$8,$9,0*
20,1,$1+$1,$8,$9,$2,$3,0*%
G04 Aperture macros list end*
%TA.AperFunction,SMDPad,CuDef*%
%ADD10RoundRect,0.250000X-0.350000X-0.450000X0.350000X-0.450000X0.350000X0.450000X-0.350000X0.450000X0*%
%TD*%
%TA.AperFunction,SMDPad,CuDef*%
%ADD11RoundRect,0.237500X0.300000X0.237500X-0.300000X0.237500X-0.300000X-0.237500X0.300000X-0.237500X0*%
%TD*%
%TA.AperFunction,ComponentPad*%
%ADD12R,1.800000X1.800000*%
%TD*%
%TA.AperFunction,ComponentPad*%
%ADD13C,1.800000*%
%TD*%
%TA.AperFunction,SMDPad,CuDef*%
%ADD14RoundRect,0.150000X0.875000X0.150000X-0.875000X0.150000X-0.875000X-0.150000X0.875000X-0.150000X0*%
%TD*%
%TA.AperFunction,SMDPad,CuDef*%
%ADD15RoundRect,0.237500X-0.300000X-0.237500X0.300000X-0.237500X0.300000X0.237500X-0.300000X0.237500X0*%
%TD*%
%TA.AperFunction,ComponentPad*%
%ADD16R,2.000000X1.440000*%
%TD*%
%TA.AperFunction,ComponentPad*%
%ADD17O,2.000000X1.440000*%
%TD*%
%TA.AperFunction,ComponentPad*%
%ADD18R,1.700000X1.700000*%
%TD*%
%TA.AperFunction,ComponentPad*%
%ADD19C,1.700000*%
%TD*%
%TA.AperFunction,SMDPad,CuDef*%
%ADD20RoundRect,0.250000X-0.600000X0.400000X-0.600000X-0.400000X0.600000X-0.400000X0.600000X0.400000X0*%
%TD*%
%TA.AperFunction,ComponentPad*%
%ADD21O,1.700000X1.700000*%
%TD*%
%TA.AperFunction,SMDPad,CuDef*%
%ADD22R,3.500000X1.700000*%
%TD*%
%TA.AperFunction,SMDPad,CuDef*%
%ADD23R,1.700000X3.500000*%
%TD*%
%TA.AperFunction,SMDPad,CuDef*%
%ADD24R,0.620000X1.400000*%
%TD*%
%TA.AperFunction,SMDPad,CuDef*%
%ADD25R,1.100000X2.400000*%
%TD*%
%TA.AperFunction,SMDPad,CuDef*%
%ADD26RoundRect,0.250000X0.350000X0.450000X-0.350000X0.450000X-0.350000X-0.450000X0.350000X-0.450000X0*%
%TD*%
%TA.AperFunction,SMDPad,CuDef*%
%ADD27RoundRect,0.250000X-0.450000X0.350000X-0.450000X-0.350000X0.450000X-0.350000X0.450000X0.350000X0*%
%TD*%
%TA.AperFunction,SMDPad,CuDef*%
%ADD28RoundRect,0.150000X-0.825000X-0.150000X0.825000X-0.150000X0.825000X0.150000X-0.825000X0.150000X0*%
%TD*%
%TA.AperFunction,SMDPad,CuDef*%
%ADD29RoundRect,0.150000X-0.875000X-0.150000X0.875000X-0.150000X0.875000X0.150000X-0.875000X0.150000X0*%
%TD*%
%TA.AperFunction,SMDPad,CuDef*%
%ADD30RoundRect,0.237500X0.237500X-0.300000X0.237500X0.300000X-0.237500X0.300000X-0.237500X-0.300000X0*%
%TD*%
%TA.AperFunction,SMDPad,CuDef*%
%ADD31RoundRect,0.250000X0.450000X-0.350000X0.450000X0.350000X-0.450000X0.350000X-0.450000X-0.350000X0*%
%TD*%
%TA.AperFunction,ComponentPad*%
%ADD32R,2.000000X2.000000*%
%TD*%
%TA.AperFunction,ComponentPad*%
%ADD33C,2.000000*%
%TD*%
%TA.AperFunction,ComponentPad*%
%ADD34R,2.000000X3.200000*%
%TD*%
%TA.AperFunction,SMDPad,CuDef*%
%ADD35R,1.310000X0.650000*%
%TD*%
%TA.AperFunction,SMDPad,CuDef*%
%ADD36R,1.310000X0.600000*%
%TD*%
%TA.AperFunction,SMDPad,CuDef*%
%ADD37R,1.325000X1.500000*%
%TD*%
%TA.AperFunction,ComponentPad*%
%ADD38C,0.800000*%
%TD*%
%TA.AperFunction,SMDPad,CuDef*%
%ADD39R,1.600000X1.000000*%
%TD*%
%TA.AperFunction,SMDPad,CuDef*%
%ADD40RoundRect,0.162500X-0.617500X-0.162500X0.617500X-0.162500X0.617500X0.162500X-0.617500X0.162500X0*%
%TD*%
%TA.AperFunction,ViaPad*%
%ADD41C,0.889000*%
%TD*%
%TA.AperFunction,ViaPad*%
%ADD42C,0.508000*%
%TD*%
%TA.AperFunction,Conductor*%
%ADD43C,0.190500*%
%TD*%
%TA.AperFunction,Conductor*%
%ADD44C,0.508000*%
%TD*%
%TA.AperFunction,Conductor*%
%ADD45C,1.143000*%
%TD*%
G04 APERTURE END LIST*
D10*
%TO.P,R9,1*%
%TO.N,+3.3V*%
X145304000Y-87249000D03*
%TO.P,R9,2*%
%TO.N,Net-(LED1-A)*%
X147304000Y-87249000D03*
%TD*%
D11*
%TO.P,C9,1*%
%TO.N,GND*%
X137006501Y-92837000D03*
%TO.P,C9,2*%
%TO.N,+5DP*%
X135281499Y-92837000D03*
%TD*%
D12*
%TO.P,LED2,1,K*%
%TO.N,Net-(LED2-K)*%
X171500800Y-92959000D03*
D13*
%TO.P,LED2,2,A*%
%TO.N,Net-(LED2-A)*%
X171500800Y-95499000D03*
%TD*%
D11*
%TO.P,C1,1*%
%TO.N,/RE_SW-*%
X86587500Y-120900000D03*
%TO.P,C1,2*%
%TO.N,GND*%
X84862500Y-120900000D03*
%TD*%
D14*
%TO.P,U5,1,OE*%
%TO.N,/PRD-*%
X147320000Y-124206000D03*
%TO.P,U5,2,D0*%
%TO.N,/BD0*%
X147320000Y-122936000D03*
%TO.P,U5,3,D1*%
%TO.N,/BD1*%
X147320000Y-121666000D03*
%TO.P,U5,4,D2*%
%TO.N,/BD2*%
X147320000Y-120396000D03*
%TO.P,U5,5,D3*%
%TO.N,/BD3*%
X147320000Y-119126000D03*
%TO.P,U5,6,D4*%
%TO.N,/BD4*%
X147320000Y-117856000D03*
%TO.P,U5,7,D5*%
%TO.N,/BD5*%
X147320000Y-116586000D03*
%TO.P,U5,8,D6*%
%TO.N,/BD6*%
X147320000Y-115316000D03*
%TO.P,U5,9,D7*%
%TO.N,/BD7*%
X147320000Y-114046000D03*
%TO.P,U5,10,GND*%
%TO.N,GND*%
X147320000Y-112776000D03*
%TO.P,U5,11,Cp*%
%TO.N,/DLATCH*%
X138020000Y-112776000D03*
%TO.P,U5,12,Q7*%
%TO.N,/PD7*%
X138020000Y-114046000D03*
%TO.P,U5,13,Q6*%
%TO.N,/PD6*%
X138020000Y-115316000D03*
%TO.P,U5,14,Q5*%
%TO.N,/PD5*%
X138020000Y-116586000D03*
%TO.P,U5,15,Q4*%
%TO.N,/PD4*%
X138020000Y-117856000D03*
%TO.P,U5,16,Q3*%
%TO.N,/PD3*%
X138020000Y-119126000D03*
%TO.P,U5,17,Q2*%
%TO.N,/PD2*%
X138020000Y-120396000D03*
%TO.P,U5,18,Q1*%
%TO.N,/PD1*%
X138020000Y-121666000D03*
%TO.P,U5,19,Q0*%
%TO.N,/PD0*%
X138020000Y-122936000D03*
%TO.P,U5,20,VCC*%
%TO.N,+3.3V*%
X138020000Y-124206000D03*
%TD*%
%TO.P,U9,1,OE*%
%TO.N,GND*%
X161290000Y-124206000D03*
%TO.P,U9,2,D0*%
%TO.N,/PD0*%
X161290000Y-122936000D03*
%TO.P,U9,3,D1*%
%TO.N,/PD1*%
X161290000Y-121666000D03*
%TO.P,U9,4,D2*%
%TO.N,/PD2*%
X161290000Y-120396000D03*
%TO.P,U9,5,D3*%
%TO.N,/PD3*%
X161290000Y-119126000D03*
%TO.P,U9,6,D4*%
%TO.N,/PD4*%
X161290000Y-117856000D03*
%TO.P,U9,7,D5*%
%TO.N,/PD5*%
X161290000Y-116586000D03*
%TO.P,U9,8,D6*%
%TO.N,/PD6*%
X161290000Y-115316000D03*
%TO.P,U9,9,D7*%
%TO.N,/PD7*%
X161290000Y-114046000D03*
%TO.P,U9,10,GND*%
%TO.N,GND*%
X161290000Y-112776000D03*
%TO.P,U9,11,Cp*%
%TO.N,/ADH_LD-*%
X151990000Y-112776000D03*
%TO.P,U9,12,Q7*%
%TO.N,/FRD-*%
X151990000Y-114046000D03*
%TO.P,U9,13,Q6*%
%TO.N,/FWR-*%
X151990000Y-115316000D03*
%TO.P,U9,14,Q5*%
%TO.N,unconnected-(U9-Q5-Pad14)*%
X151990000Y-116586000D03*
%TO.P,U9,15,Q4*%
%TO.N,unconnected-(U9-Q4-Pad15)*%
X151990000Y-117856000D03*
%TO.P,U9,16,Q3*%
%TO.N,unconnected-(U9-Q3-Pad16)*%
X151990000Y-119126000D03*
%TO.P,U9,17,Q2*%
%TO.N,/BA18*%
X151990000Y-120396000D03*
%TO.P,U9,18,Q1*%
%TO.N,/BA17*%
X151990000Y-121666000D03*
%TO.P,U9,19,Q0*%
%TO.N,/BA16*%
X151990000Y-122936000D03*
%TO.P,U9,20,VCC*%
%TO.N,+5DP*%
X151990000Y-124206000D03*
%TD*%
D15*
%TO.P,C8,1*%
%TO.N,GND*%
X150267499Y-110236000D03*
%TO.P,C8,2*%
%TO.N,+5DP*%
X151992501Y-110236000D03*
%TD*%
D16*
%TO.P,U4,1,A18*%
%TO.N,/BA18*%
X182880000Y-89154000D03*
D17*
%TO.P,U4,2,A16*%
%TO.N,/BA16*%
X182880000Y-91694000D03*
%TO.P,U4,3,A15*%
%TO.N,/BA15*%
X182880000Y-94234000D03*
%TO.P,U4,4,A12*%
%TO.N,/BA12*%
X182880000Y-96774000D03*
%TO.P,U4,5,A7*%
%TO.N,/BA7*%
X182880000Y-99314000D03*
%TO.P,U4,6,A6*%
%TO.N,/BA6*%
X182880000Y-101854000D03*
%TO.P,U4,7,A5*%
%TO.N,/BA5*%
X182880000Y-104394000D03*
%TO.P,U4,8,A4*%
%TO.N,/BA4*%
X182880000Y-106934000D03*
%TO.P,U4,9,A3*%
%TO.N,/BA3*%
X182880000Y-109474000D03*
%TO.P,U4,10,A2*%
%TO.N,/BA2*%
X182880000Y-112014000D03*
%TO.P,U4,11,A1*%
%TO.N,/BA1*%
X182880000Y-114554000D03*
%TO.P,U4,12,A0*%
%TO.N,/BA0*%
X182880000Y-117094000D03*
%TO.P,U4,13,D0*%
%TO.N,/BD0*%
X182880000Y-119634000D03*
%TO.P,U4,14,D1*%
%TO.N,/BD1*%
X182880000Y-122174000D03*
%TO.P,U4,15,D2*%
%TO.N,/BD2*%
X182880000Y-124714000D03*
%TO.P,U4,16,GND*%
%TO.N,GND*%
X182880000Y-127254000D03*
%TO.P,U4,17,D3*%
%TO.N,/BD3*%
X198120000Y-127254000D03*
%TO.P,U4,18,D4*%
%TO.N,/BD4*%
X198120000Y-124714000D03*
%TO.P,U4,19,D5*%
%TO.N,/BD5*%
X198120000Y-122174000D03*
%TO.P,U4,20,D6*%
%TO.N,/BD6*%
X198120000Y-119634000D03*
%TO.P,U4,21,D7*%
%TO.N,/BD7*%
X198120000Y-117094000D03*
%TO.P,U4,22,CE*%
%TO.N,/F_SEL-*%
X198120000Y-114554000D03*
%TO.P,U4,23,A10*%
%TO.N,/BA10*%
X198120000Y-112014000D03*
%TO.P,U4,24,OE*%
%TO.N,/FRD-*%
X198120000Y-109474000D03*
%TO.P,U4,25,A11*%
%TO.N,/BA11*%
X198120000Y-106934000D03*
%TO.P,U4,26,A9*%
%TO.N,/BA9*%
X198120000Y-104394000D03*
%TO.P,U4,27,A8*%
%TO.N,/BA8*%
X198120000Y-101854000D03*
%TO.P,U4,28,A13*%
%TO.N,/BA13*%
X198120000Y-99314000D03*
%TO.P,U4,29,A14*%
%TO.N,/BA14*%
X198120000Y-96774000D03*
%TO.P,U4,30,A17*%
%TO.N,/BA17*%
X198120000Y-94234000D03*
%TO.P,U4,31,PGM*%
%TO.N,/FWR-*%
X198120000Y-91694000D03*
%TO.P,U4,32,VCC*%
%TO.N,+5DP*%
X198120000Y-89154000D03*
%TD*%
D18*
%TO.P,J1,1,Pin_1*%
%TO.N,GND*%
X137434000Y-90145000D03*
D19*
%TO.P,J1,2,Pin_2*%
%TO.N,+3.3V*%
X139974000Y-90145000D03*
%TO.P,J1,3,Pin_3*%
%TO.N,/SPICK*%
X142514000Y-90145000D03*
%TO.P,J1,4,Pin_4*%
%TO.N,/SPIMO*%
X145054000Y-90145000D03*
%TO.P,J1,5,Pin_5*%
%TO.N,/DISPRST-*%
X147594000Y-90145000D03*
%TO.P,J1,6,Pin_6*%
%TO.N,/DISP_CD*%
X150134000Y-90145000D03*
%TO.P,J1,7,Pin_7*%
%TO.N,/DISP_CS-*%
X152674000Y-90145000D03*
%TD*%
D20*
%TO.P,D1,1,K*%
%TO.N,Net-(D1-K)*%
X131318000Y-125758000D03*
%TO.P,D1,2,A*%
%TO.N,GND*%
X131318000Y-129258000D03*
%TD*%
D12*
%TO.P,LED3,1,K*%
%TO.N,GND*%
X171450000Y-103119000D03*
D13*
%TO.P,LED3,2,A*%
%TO.N,Net-(LED3-A)*%
X171450000Y-105659000D03*
%TD*%
D10*
%TO.P,R5,1*%
%TO.N,Net-(U2-E3)*%
X131334000Y-92710000D03*
%TO.P,R5,2*%
%TO.N,+5DP*%
X133334000Y-92710000D03*
%TD*%
D21*
%TO.P,U1,1,GPIO0*%
%TO.N,/RE_A*%
X101346001Y-79502000D03*
D22*
X100446001Y-79502000D03*
D21*
%TO.P,U1,2,GPIO1*%
%TO.N,/RE_B*%
X101346001Y-82042000D03*
D22*
X100446001Y-82042000D03*
D18*
%TO.P,U1,3,GND*%
%TO.N,GND*%
X101346001Y-84582000D03*
D22*
X100446001Y-84582000D03*
D21*
%TO.P,U1,4,GPIO2*%
%TO.N,/SPICK*%
X101346001Y-87122000D03*
D22*
X100446001Y-87122000D03*
D21*
%TO.P,U1,5,GPIO3*%
%TO.N,/SPIMO*%
X101346001Y-89662000D03*
D22*
X100446001Y-89662000D03*
D21*
%TO.P,U1,6,GPIO4*%
%TO.N,/SPIMI*%
X101346001Y-92202000D03*
D22*
X100446001Y-92202000D03*
D21*
%TO.P,U1,7,GPIO5*%
%TO.N,/CARD_CS-*%
X101346001Y-94742000D03*
D22*
X100446001Y-94742000D03*
D18*
%TO.P,U1,8,GND*%
%TO.N,GND*%
X101346001Y-97282000D03*
D22*
X100446001Y-97282000D03*
D21*
%TO.P,U1,9,GPIO6*%
%TO.N,/DISP_CS-*%
X101346001Y-99822000D03*
D22*
X100446001Y-99822000D03*
D21*
%TO.P,U1,10,GPIO7*%
%TO.N,/DISP_CD*%
X101346001Y-102362000D03*
D22*
X100446001Y-102362000D03*
D21*
%TO.P,U1,11,GPIO8*%
%TO.N,/RE_SW-*%
X101346001Y-104902000D03*
D22*
X100446001Y-104902000D03*
D21*
%TO.P,U1,12,GPIO9*%
%TO.N,/FPWR_ON*%
X101346001Y-107442000D03*
D22*
X100446001Y-107442000D03*
D18*
%TO.P,U1,13,GND*%
%TO.N,GND*%
X101346001Y-109982000D03*
D22*
X100446001Y-109982000D03*
D21*
%TO.P,U1,14,GPIO10*%
%TO.N,/PD0*%
X101346001Y-112522000D03*
D22*
X100446001Y-112522000D03*
D21*
%TO.P,U1,15,GPIO11*%
%TO.N,/PD1*%
X101346001Y-115062000D03*
D22*
X100446001Y-115062000D03*
D21*
%TO.P,U1,16,GPIO12*%
%TO.N,/PD2*%
X101346001Y-117602000D03*
D22*
X100446001Y-117602000D03*
D21*
%TO.P,U1,17,GPIO13*%
%TO.N,/PD3*%
X101346001Y-120142000D03*
D22*
X100446001Y-120142000D03*
D18*
%TO.P,U1,18,GND*%
%TO.N,GND*%
X101346001Y-122682000D03*
D22*
X100446001Y-122682000D03*
D21*
%TO.P,U1,19,GPIO14*%
%TO.N,/PD4*%
X101346001Y-125222000D03*
D22*
X100446001Y-125222000D03*
D21*
%TO.P,U1,20,GPIO15*%
%TO.N,/PD5*%
X101346001Y-127762000D03*
D22*
X100446001Y-127762000D03*
D21*
%TO.P,U1,21,GPIO16*%
%TO.N,/PD6*%
X119126001Y-127762000D03*
D22*
X120026001Y-127762000D03*
D21*
%TO.P,U1,22,GPIO17*%
%TO.N,/PD7*%
X119126001Y-125222000D03*
D22*
X120026001Y-125222000D03*
D18*
%TO.P,U1,23,GND*%
%TO.N,GND*%
X119126001Y-122682000D03*
D22*
X120026001Y-122682000D03*
D21*
%TO.P,U1,24,GPIO18*%
%TO.N,/A0*%
X119126001Y-120142000D03*
D22*
X120026001Y-120142000D03*
D21*
%TO.P,U1,25,GPIO19*%
%TO.N,/A1*%
X119126001Y-117602000D03*
D22*
X120026001Y-117602000D03*
D21*
%TO.P,U1,26,GPIO20*%
%TO.N,/A2*%
X119126001Y-115062000D03*
D22*
X120026001Y-115062000D03*
D21*
%TO.P,U1,27,GPIO21*%
%TO.N,/DLATCH*%
X119126001Y-112522000D03*
D22*
X120026001Y-112522000D03*
D18*
%TO.P,U1,28,GND*%
%TO.N,GND*%
X119126001Y-109982000D03*
D22*
X120026001Y-109982000D03*
D21*
%TO.P,U1,29,GPIO22*%
%TO.N,/ATTN-*%
X119126001Y-107442000D03*
D22*
X120026001Y-107442000D03*
D21*
%TO.P,U1,30,RUN*%
%TO.N,/RESET-*%
X119126001Y-104902000D03*
D22*
X120026001Y-104902000D03*
D21*
%TO.P,U1,31,GPIO26_ADC0*%
%TO.N,/PRD-*%
X119126001Y-102362000D03*
D22*
X120026001Y-102362000D03*
D21*
%TO.P,U1,32,GPIO27_ADC1*%
%TO.N,/PWR-*%
X119126001Y-99822000D03*
D22*
X120026001Y-99822000D03*
D18*
%TO.P,U1,33,AGND*%
%TO.N,GND*%
X119126001Y-97282000D03*
D22*
X120026001Y-97282000D03*
D21*
%TO.P,U1,34,GPIO28_ADC2*%
%TO.N,/DPSENS*%
X119126001Y-94742000D03*
D22*
X120026001Y-94742000D03*
D21*
%TO.P,U1,35,ADC_VREF*%
%TO.N,unconnected-(U1-ADC_VREF-Pad35)_1*%
X119126001Y-92202000D03*
D22*
%TO.N,unconnected-(U1-ADC_VREF-Pad35)*%
X120026001Y-92202000D03*
D21*
%TO.P,U1,36,3V3*%
%TO.N,+3.3V*%
X119126001Y-89662000D03*
D22*
X120026001Y-89662000D03*
D21*
%TO.P,U1,37,3V3_EN*%
%TO.N,unconnected-(U1-3V3_EN-Pad37)_1*%
X119126001Y-87122000D03*
D22*
%TO.N,unconnected-(U1-3V3_EN-Pad37)*%
X120026001Y-87122000D03*
D18*
%TO.P,U1,38,GND*%
%TO.N,GND*%
X119126001Y-84582000D03*
D22*
X120026001Y-84582000D03*
D21*
%TO.P,U1,39,VSYS*%
%TO.N,+5V*%
X119126001Y-82042000D03*
D22*
X120026001Y-82042000D03*
D21*
%TO.P,U1,40,VBUS*%
X119126001Y-79502000D03*
D22*
X120026001Y-79502000D03*
D21*
%TO.P,U1,D1,SWCLK*%
%TO.N,unconnected-(U1-SWCLK-PadD1)_1*%
X107700001Y-127802000D03*
D23*
%TO.N,unconnected-(U1-SWCLK-PadD1)*%
X107700001Y-128702000D03*
D18*
%TO.P,U1,D2,GND*%
%TO.N,unconnected-(U1-GND-PadD2)_1*%
X110240001Y-127802000D03*
D23*
%TO.N,unconnected-(U1-GND-PadD2)*%
X110240001Y-128702000D03*
D21*
%TO.P,U1,D3,SWDIO*%
%TO.N,unconnected-(U1-SWDIO-PadD3)_1*%
X112780001Y-127802000D03*
D23*
%TO.N,unconnected-(U1-SWDIO-PadD3)*%
X112780001Y-128702000D03*
%TD*%
D24*
%TO.P,SD1,1,DAT2*%
%TO.N,unconnected-(SD1-DAT2-Pad1)*%
X84121000Y-93600000D03*
%TO.P,SD1,2,DAT3/CD*%
%TO.N,/CARD_CS-*%
X85221000Y-93600000D03*
%TO.P,SD1,3,CMD*%
%TO.N,/SPIMO*%
X86321000Y-93600000D03*
%TO.P,SD1,4,VDD*%
%TO.N,+3.3V*%
X87421000Y-93600000D03*
%TO.P,SD1,5,CLK*%
%TO.N,/SPICK*%
X88521000Y-93600000D03*
%TO.P,SD1,6,VSS*%
%TO.N,GND*%
X89621000Y-93600000D03*
%TO.P,SD1,7,DAT0*%
%TO.N,/SPIMI*%
X90721000Y-93600000D03*
%TO.P,SD1,8,DAT1*%
%TO.N,unconnected-(SD1-DAT1-Pad8)*%
X91821000Y-93600000D03*
%TO.P,SD1,9,DET*%
%TO.N,unconnected-(SD1-DET-Pad9)*%
X92921000Y-93600000D03*
D25*
%TO.P,SD1,10,SHIELD*%
%TO.N,GND*%
X94301000Y-91600000D03*
X94301000Y-82600000D03*
X78151000Y-91600000D03*
X78151000Y-82600000D03*
%TD*%
D26*
%TO.P,R7,1*%
%TO.N,+3.3V*%
X137398000Y-87122000D03*
%TO.P,R7,2*%
%TO.N,/RESET-*%
X135398000Y-87122000D03*
%TD*%
D27*
%TO.P,R8,1*%
%TO.N,Net-(U3-IS)*%
X126238000Y-125746000D03*
%TO.P,R8,2*%
%TO.N,GND*%
X126238000Y-127746000D03*
%TD*%
D10*
%TO.P,R12,1*%
%TO.N,+5V*%
X170500800Y-89911000D03*
%TO.P,R12,2*%
%TO.N,Net-(LED2-A)*%
X172500800Y-89911000D03*
%TD*%
D14*
%TO.P,U8,1,OE*%
%TO.N,GND*%
X147320000Y-107086400D03*
%TO.P,U8,2,D0*%
%TO.N,/PD0*%
X147320000Y-105816400D03*
%TO.P,U8,3,D1*%
%TO.N,/PD1*%
X147320000Y-104546400D03*
%TO.P,U8,4,D2*%
%TO.N,/PD2*%
X147320000Y-103276400D03*
%TO.P,U8,5,D3*%
%TO.N,/PD3*%
X147320000Y-102006400D03*
%TO.P,U8,6,D4*%
%TO.N,/PD4*%
X147320000Y-100736400D03*
%TO.P,U8,7,D5*%
%TO.N,/PD5*%
X147320000Y-99466400D03*
%TO.P,U8,8,D6*%
%TO.N,/PD6*%
X147320000Y-98196400D03*
%TO.P,U8,9,D7*%
%TO.N,/PD7*%
X147320000Y-96926400D03*
%TO.P,U8,10,GND*%
%TO.N,GND*%
X147320000Y-95656400D03*
%TO.P,U8,11,Cp*%
%TO.N,/ADM_LD-*%
X138020000Y-95656400D03*
%TO.P,U8,12,Q7*%
%TO.N,/BA15*%
X138020000Y-96926400D03*
%TO.P,U8,13,Q6*%
%TO.N,/BA14*%
X138020000Y-98196400D03*
%TO.P,U8,14,Q5*%
%TO.N,/BA13*%
X138020000Y-99466400D03*
%TO.P,U8,15,Q4*%
%TO.N,/BA12*%
X138020000Y-100736400D03*
%TO.P,U8,16,Q3*%
%TO.N,/BA11*%
X138020000Y-102006400D03*
%TO.P,U8,17,Q2*%
%TO.N,/BA10*%
X138020000Y-103276400D03*
%TO.P,U8,18,Q1*%
%TO.N,/BA9*%
X138020000Y-104546400D03*
%TO.P,U8,19,Q0*%
%TO.N,/BA8*%
X138020000Y-105816400D03*
%TO.P,U8,20,VCC*%
%TO.N,+5DP*%
X138020000Y-107086400D03*
%TD*%
D28*
%TO.P,U2,1,A0*%
%TO.N,/A0*%
X128400000Y-94742000D03*
%TO.P,U2,2,A1*%
%TO.N,/A1*%
X128400000Y-96012000D03*
%TO.P,U2,3,A2*%
%TO.N,/A2*%
X128400000Y-97282000D03*
%TO.P,U2,4,E1*%
%TO.N,GND*%
X128400000Y-98552000D03*
%TO.P,U2,5,E2*%
X128400000Y-99822000D03*
%TO.P,U2,6,E3*%
%TO.N,Net-(U2-E3)*%
X128400000Y-101092000D03*
%TO.P,U2,7,O7*%
%TO.N,unconnected-(U2-O7-Pad7)*%
X128400000Y-102362000D03*
%TO.P,U2,8,GND*%
%TO.N,GND*%
X128400000Y-103632000D03*
%TO.P,U2,9,O6*%
%TO.N,unconnected-(U2-O6-Pad9)*%
X133350000Y-103632000D03*
%TO.P,U2,10,O5*%
%TO.N,/F_SEL-*%
X133350000Y-102362000D03*
%TO.P,U2,11,O4*%
%TO.N,/ADH_LD-*%
X133350000Y-101092000D03*
%TO.P,U2,12,O3*%
%TO.N,/ADM_LD-*%
X133350000Y-99822000D03*
%TO.P,U2,13,O2*%
%TO.N,/ADL_LD-*%
X133350000Y-98552000D03*
%TO.P,U2,14,O1*%
%TO.N,/DISPRST-*%
X133350000Y-97282000D03*
%TO.P,U2,15,O0*%
%TO.N,unconnected-(U2-O0-Pad15)*%
X133350000Y-96012000D03*
%TO.P,U2,16,VCC*%
%TO.N,+5DP*%
X133350000Y-94742000D03*
%TD*%
D12*
%TO.P,LED1,1,K*%
%TO.N,GND*%
X141478000Y-81026000D03*
D13*
%TO.P,LED1,2,A*%
%TO.N,Net-(LED1-A)*%
X141478000Y-83566000D03*
%TD*%
D15*
%TO.P,C10,1*%
%TO.N,GND*%
X171095500Y-87376000D03*
%TO.P,C10,2*%
%TO.N,+5DP*%
X172820500Y-87376000D03*
%TD*%
D18*
%TO.P,J2,1,Pin_1*%
%TO.N,GND*%
X88519000Y-98171000D03*
D19*
%TO.P,J2,2,Pin_2*%
%TO.N,/RE_B*%
X91059000Y-98171000D03*
%TO.P,J2,3,Pin_3*%
%TO.N,/RE_A*%
X93599000Y-98171000D03*
%TD*%
D15*
%TO.P,C7,1*%
%TO.N,GND*%
X164364499Y-127381000D03*
%TO.P,C7,2*%
%TO.N,+5DP*%
X166089501Y-127381000D03*
%TD*%
%TO.P,C4,1*%
%TO.N,GND*%
X150267499Y-127381000D03*
%TO.P,C4,2*%
%TO.N,+5DP*%
X151992501Y-127381000D03*
%TD*%
%TO.P,C6,1*%
%TO.N,GND*%
X130201499Y-132334000D03*
%TO.P,C6,2*%
%TO.N,/DPSENS*%
X131926501Y-132334000D03*
%TD*%
D29*
%TO.P,U7,1,OE*%
%TO.N,GND*%
X151990000Y-95656400D03*
%TO.P,U7,2,D0*%
%TO.N,/PD7*%
X151990000Y-96926400D03*
%TO.P,U7,3,D1*%
%TO.N,/PD6*%
X151990000Y-98196400D03*
%TO.P,U7,4,D2*%
%TO.N,/PD5*%
X151990000Y-99466400D03*
%TO.P,U7,5,D3*%
%TO.N,/PD4*%
X151990000Y-100736400D03*
%TO.P,U7,6,D4*%
%TO.N,/PD3*%
X151990000Y-102006400D03*
%TO.P,U7,7,D5*%
%TO.N,/PD2*%
X151990000Y-103276400D03*
%TO.P,U7,8,D6*%
%TO.N,/PD1*%
X151990000Y-104546400D03*
%TO.P,U7,9,D7*%
%TO.N,/PD0*%
X151990000Y-105816400D03*
%TO.P,U7,10,GND*%
%TO.N,GND*%
X151990000Y-107086400D03*
%TO.P,U7,11,Cp*%
%TO.N,/ADL_LD-*%
X161290000Y-107086400D03*
%TO.P,U7,12,Q7*%
%TO.N,/BA0*%
X161290000Y-105816400D03*
%TO.P,U7,13,Q6*%
%TO.N,/BA1*%
X161290000Y-104546400D03*
%TO.P,U7,14,Q5*%
%TO.N,/BA2*%
X161290000Y-103276400D03*
%TO.P,U7,15,Q4*%
%TO.N,/BA3*%
X161290000Y-102006400D03*
%TO.P,U7,16,Q3*%
%TO.N,/BA4*%
X161290000Y-100736400D03*
%TO.P,U7,17,Q2*%
%TO.N,/BA5*%
X161290000Y-99466400D03*
%TO.P,U7,18,Q1*%
%TO.N,/BA6*%
X161290000Y-98196400D03*
%TO.P,U7,19,Q0*%
%TO.N,/BA7*%
X161290000Y-96926400D03*
%TO.P,U7,20,VCC*%
%TO.N,+5DP*%
X161290000Y-95656400D03*
%TD*%
D30*
%TO.P,C3,1*%
%TO.N,GND*%
X137668000Y-128878501D03*
%TO.P,C3,2*%
%TO.N,+3.3V*%
X137668000Y-127153499D03*
%TD*%
D31*
%TO.P,R1,1*%
%TO.N,/FPWR_ON*%
X125603000Y-107299000D03*
%TO.P,R1,2*%
%TO.N,Net-(U3-IN0)*%
X125603000Y-105299000D03*
%TD*%
D32*
%TO.P,RE1,A,A*%
%TO.N,/RE_A*%
X88225000Y-103875000D03*
D33*
%TO.P,RE1,B,B*%
%TO.N,/RE_B*%
X83225000Y-103875000D03*
%TO.P,RE1,C,C*%
%TO.N,GND*%
X85725000Y-103875000D03*
D34*
%TO.P,RE1,MP*%
%TO.N,N/C*%
X91325000Y-111375000D03*
X80125000Y-111375000D03*
D33*
%TO.P,RE1,S1,S1*%
%TO.N,GND*%
X83225000Y-118375000D03*
%TO.P,RE1,S2,S2*%
%TO.N,/RE_SW-*%
X88225000Y-118375000D03*
%TD*%
D27*
%TO.P,R2,1*%
%TO.N,/FPWR_ON*%
X125603000Y-109363000D03*
%TO.P,R2,2*%
%TO.N,Net-(U3-DEN)*%
X125603000Y-111363000D03*
%TD*%
D18*
%TO.P,J4,1,Pin_1*%
%TO.N,GND*%
X147579000Y-132080000D03*
D19*
%TO.P,J4,2,Pin_2*%
%TO.N,Net-(J4-Pin_2)*%
X145039000Y-132080000D03*
%TD*%
D35*
%TO.P,U3,1,GND*%
%TO.N,GND*%
X127965000Y-111391000D03*
%TO.P,U3,2,IN0*%
%TO.N,Net-(U3-IN0)*%
X127965000Y-112661000D03*
%TO.P,U3,3,DEN*%
%TO.N,Net-(U3-DEN)*%
X127965000Y-113931000D03*
D36*
%TO.P,U3,4,IS*%
%TO.N,Net-(U3-IS)*%
X127965000Y-115201000D03*
D35*
%TO.P,U3,5,DS1*%
%TO.N,GND*%
X127963884Y-116471911D03*
%TO.P,U3,6,IN1*%
%TO.N,Net-(U3-IN0)*%
X127963884Y-117741911D03*
D36*
%TO.P,U3,7,NC*%
%TO.N,unconnected-(U3-NC-Pad7)*%
X127963884Y-119011911D03*
D35*
%TO.P,U3,8,OUT1a*%
%TO.N,Net-(J4-Pin_2)*%
X133653884Y-119011911D03*
%TO.P,U3,9,OUT1b*%
X133653884Y-117741911D03*
%TO.P,U3,10,OUT1c*%
X133653884Y-116471911D03*
%TO.P,U3,11,NC*%
%TO.N,unconnected-(U3-NC-Pad11)*%
X133655000Y-115201000D03*
%TO.P,U3,12,OUT0a*%
%TO.N,+5DP*%
X133655000Y-113931000D03*
%TO.P,U3,13,OUT0b*%
X133655000Y-112661000D03*
%TO.P,U3,14,OUT0c*%
X133655000Y-111391000D03*
D37*
%TO.P,U3,CT,VS*%
%TO.N,+5V*%
X130147500Y-112546000D03*
X130147500Y-114046000D03*
X130147778Y-118518449D03*
X130147778Y-120018449D03*
X130148787Y-109564011D03*
X130148787Y-111064011D03*
X130149795Y-115541408D03*
X130149795Y-117041408D03*
D38*
X130810000Y-112546000D03*
X130810000Y-114046000D03*
X130810278Y-118518449D03*
X130810278Y-120018449D03*
X130811287Y-109564011D03*
X130811287Y-111064011D03*
X130812295Y-115541408D03*
X130812295Y-117041408D03*
D37*
X131472500Y-112546000D03*
X131472500Y-114046000D03*
X131472778Y-118518449D03*
X131472778Y-120018449D03*
X131473787Y-109564011D03*
X131473787Y-111064011D03*
X131474795Y-115541408D03*
X131474795Y-117041408D03*
%TD*%
D15*
%TO.P,C2,1*%
%TO.N,GND*%
X136805499Y-110109000D03*
%TO.P,C2,2*%
%TO.N,+5DP*%
X138530501Y-110109000D03*
%TD*%
D39*
%TO.P,SW1,1,1*%
%TO.N,/ATTN-*%
X82973000Y-125654000D03*
X88223000Y-125654000D03*
%TO.P,SW1,2,2*%
%TO.N,GND*%
X82973000Y-128854000D03*
X88223000Y-128854000D03*
%TD*%
D18*
%TO.P,J3,1,Pin_1*%
%TO.N,GND*%
X155199000Y-86360000D03*
D19*
%TO.P,J3,2,Pin_2*%
%TO.N,+3.3V*%
X152659000Y-86360000D03*
%TD*%
D18*
%TO.P,J5,1,Pin_1*%
%TO.N,/DPSENS*%
X134874000Y-132096000D03*
%TD*%
D39*
%TO.P,SW2,1,1*%
%TO.N,/RESET-*%
X127423000Y-80950000D03*
X132673000Y-80950000D03*
%TO.P,SW2,2,2*%
%TO.N,GND*%
X127423000Y-84150000D03*
X132673000Y-84150000D03*
%TD*%
D31*
%TO.P,R10,1*%
%TO.N,Net-(U3-IS)*%
X128778000Y-127746000D03*
%TO.P,R10,2*%
%TO.N,Net-(D1-K)*%
X128778000Y-125746000D03*
%TD*%
D27*
%TO.P,R11,1*%
%TO.N,Net-(D1-K)*%
X134112000Y-125762000D03*
%TO.P,R11,2*%
%TO.N,/DPSENS*%
X134112000Y-127762000D03*
%TD*%
D30*
%TO.P,C5,1*%
%TO.N,/RESET-*%
X135382000Y-82142501D03*
%TO.P,C5,2*%
%TO.N,GND*%
X135382000Y-80417499D03*
%TD*%
D40*
%TO.P,U10,1*%
%TO.N,GND*%
X161384000Y-90048000D03*
%TO.P,U10,2*%
%TO.N,/FPWR_ON*%
X161384000Y-90998000D03*
%TO.P,U10,3,GND*%
%TO.N,GND*%
X161384000Y-91948000D03*
%TO.P,U10,4*%
%TO.N,Net-(LED2-K)*%
X164084000Y-91948000D03*
%TO.P,U10,5,VCC*%
%TO.N,+5V*%
X164084000Y-90048000D03*
%TD*%
D14*
%TO.P,U6,1,OE*%
%TO.N,/PWR-*%
X175416000Y-124206000D03*
%TO.P,U6,2,D0*%
%TO.N,/PD0*%
X175416000Y-122936000D03*
%TO.P,U6,3,D1*%
%TO.N,/PD1*%
X175416000Y-121666000D03*
%TO.P,U6,4,D2*%
%TO.N,/PD2*%
X175416000Y-120396000D03*
%TO.P,U6,5,D3*%
%TO.N,/PD3*%
X175416000Y-119126000D03*
%TO.P,U6,6,D4*%
%TO.N,/PD4*%
X175416000Y-117856000D03*
%TO.P,U6,7,D5*%
%TO.N,/PD5*%
X175416000Y-116586000D03*
%TO.P,U6,8,D6*%
%TO.N,/PD6*%
X175416000Y-115316000D03*
%TO.P,U6,9,D7*%
%TO.N,/PD7*%
X175416000Y-114046000D03*
%TO.P,U6,10,GND*%
%TO.N,GND*%
X175416000Y-112776000D03*
%TO.P,U6,11,Cp*%
%TO.N,/DLATCH*%
X166116000Y-112776000D03*
%TO.P,U6,12,Q7*%
%TO.N,/BD7*%
X166116000Y-114046000D03*
%TO.P,U6,13,Q6*%
%TO.N,/BD6*%
X166116000Y-115316000D03*
%TO.P,U6,14,Q5*%
%TO.N,/BD5*%
X166116000Y-116586000D03*
%TO.P,U6,15,Q4*%
%TO.N,/BD4*%
X166116000Y-117856000D03*
%TO.P,U6,16,Q3*%
%TO.N,/BD3*%
X166116000Y-119126000D03*
%TO.P,U6,17,Q2*%
%TO.N,/BD2*%
X166116000Y-120396000D03*
%TO.P,U6,18,Q1*%
%TO.N,/BD1*%
X166116000Y-121666000D03*
%TO.P,U6,19,Q0*%
%TO.N,/BD0*%
X166116000Y-122936000D03*
%TO.P,U6,20,VCC*%
%TO.N,+5DP*%
X166116000Y-124206000D03*
%TD*%
D10*
%TO.P,R13,1*%
%TO.N,Net-(LED3-A)*%
X171101000Y-100203000D03*
%TO.P,R13,2*%
%TO.N,+5DP*%
X173101000Y-100203000D03*
%TD*%
D41*
%TO.N,GND*%
X126492000Y-103632000D03*
X162560000Y-112776000D03*
X148717000Y-113157000D03*
X161290000Y-127381000D03*
X126492000Y-98552000D03*
X149733000Y-95377000D03*
X126238000Y-132334000D03*
X96520000Y-81026000D03*
X177038000Y-112776000D03*
X136779000Y-108966000D03*
X148971000Y-127381000D03*
X160020000Y-92202000D03*
X137668000Y-131191000D03*
X126492000Y-99822000D03*
X169926000Y-87376000D03*
X126365000Y-116459000D03*
X150241000Y-108458000D03*
X160020000Y-90043000D03*
X127889000Y-110236000D03*
D42*
%TO.N,+3.3V*%
X132588000Y-86741000D03*
X132588000Y-89789000D03*
D41*
X139827000Y-123952000D03*
D42*
X129032000Y-86741000D03*
X129032000Y-89789000D03*
D41*
X87884000Y-95250000D03*
D42*
%TO.N,/SPICK*%
X88519000Y-87122000D03*
%TO.N,/SPIMO*%
X86360000Y-89662000D03*
%TO.N,/DISP_CS-*%
X113919000Y-91694000D03*
X140843000Y-92710000D03*
%TO.N,Net-(LED3-A)*%
X168910000Y-100203000D03*
D41*
%TO.N,+5DP*%
X173990000Y-87376000D03*
X153162000Y-127381000D03*
X135255000Y-93980000D03*
X134747000Y-112661000D03*
X166116000Y-125857000D03*
X139573000Y-110109000D03*
X134747000Y-111391000D03*
X174133000Y-100208000D03*
X134747000Y-113931000D03*
X163322000Y-95250000D03*
X152019000Y-108966000D03*
D42*
%TO.N,/DPSENS*%
X114909600Y-94742000D03*
X114909600Y-127762000D03*
%TO.N,/DLATCH*%
X132842000Y-108331000D03*
%TO.N,/FPWR_ON*%
X157099000Y-89154000D03*
X125374400Y-80721200D03*
%TO.N,/SPIMI*%
X90721000Y-92202000D03*
%TO.N,/PD2*%
X124714000Y-118872000D03*
X144399000Y-103251000D03*
X156845000Y-124206000D03*
X144399000Y-120396000D03*
X145669000Y-122936000D03*
X162814000Y-120396000D03*
X156845000Y-120396000D03*
X168720161Y-120331839D03*
X155194000Y-124206000D03*
X133350000Y-120650000D03*
%TO.N,/BD1*%
X169278300Y-121666000D03*
X168021000Y-121666000D03*
%TO.N,/PD7*%
X162814000Y-114046000D03*
X141097000Y-97536000D03*
X136652000Y-114046000D03*
X158369000Y-114046000D03*
X158369000Y-96901000D03*
X173863000Y-114046000D03*
X141097000Y-114046000D03*
%TO.N,/PD1*%
X162814000Y-121666000D03*
X141605000Y-130302000D03*
X144272000Y-123571000D03*
X141605000Y-121666000D03*
X159004000Y-121666000D03*
X169192600Y-120972774D03*
X145034000Y-104521000D03*
%TO.N,/BD3*%
X170930300Y-119761000D03*
X170942000Y-129286000D03*
%TO.N,/PD4*%
X153924000Y-117856000D03*
X124809250Y-124079000D03*
X134969250Y-118518198D03*
X173863000Y-117856000D03*
X149479000Y-117856000D03*
X142875000Y-117221000D03*
X143002000Y-100711000D03*
X162814000Y-117856000D03*
%TO.N,/PWR-*%
X170307000Y-125349000D03*
X113284000Y-116205000D03*
X113284000Y-99822000D03*
X104394000Y-116205000D03*
%TO.N,/PD6*%
X136652000Y-115316000D03*
X141732000Y-115316000D03*
X157734000Y-115316000D03*
X141732000Y-98171000D03*
X162814000Y-115316000D03*
X157734000Y-98171000D03*
X173863000Y-115316000D03*
%TO.N,/PD0*%
X140970000Y-122936000D03*
X162814000Y-122936000D03*
X159639000Y-122936000D03*
X145669000Y-105791000D03*
X169818050Y-122936000D03*
X140970000Y-129413000D03*
%TO.N,/PD3*%
X134493000Y-119888000D03*
X153924000Y-119126000D03*
X149860000Y-119126000D03*
X143764000Y-119126000D03*
X143764000Y-101981000D03*
X173863000Y-119126000D03*
X162814000Y-119126000D03*
X124714000Y-121285000D03*
%TO.N,/PD5*%
X173863000Y-116586000D03*
X153924000Y-116586000D03*
X142367000Y-116586000D03*
X124841000Y-126492000D03*
X162814000Y-116586000D03*
X142367000Y-99441000D03*
X136112250Y-116586000D03*
X149860000Y-116586000D03*
%TO.N,/PRD-*%
X114173000Y-102362000D03*
X142240000Y-124206000D03*
%TO.N,/A0*%
X115722400Y-93624400D03*
%TO.N,/A2*%
X117144800Y-98653600D03*
%TO.N,/FWR-*%
X168275000Y-110871000D03*
X168275000Y-96901000D03*
X154178000Y-110617000D03*
X154178000Y-115316000D03*
%TO.N,/A1*%
X116484400Y-96062800D03*
%TO.N,/ADH_LD-*%
X136779000Y-111252000D03*
X134747000Y-101092000D03*
%TO.N,/ADL_LD-*%
X159131000Y-94488000D03*
X159131000Y-107061000D03*
%TO.N,/F_SEL-*%
X164846000Y-108585000D03*
X164846000Y-102616000D03*
%TO.N,/BA0*%
X163068000Y-105791000D03*
%TO.N,/BA2*%
X164211000Y-104013000D03*
X164211000Y-110236000D03*
%TO.N,/BA3*%
X165862000Y-101981000D03*
X165862000Y-107315000D03*
X169926000Y-107315000D03*
%TO.N,/BA1*%
X166497000Y-104521000D03*
%TO.N,/BA4*%
X166878000Y-100711000D03*
X167513000Y-104394000D03*
%TO.N,/BA6*%
X164338000Y-98171000D03*
X176149000Y-99441000D03*
%TO.N,/BA5*%
X169900600Y-99466400D03*
%TO.N,/BA7*%
X164338000Y-95631000D03*
%TO.N,/BA8*%
X154178000Y-106426000D03*
X164211000Y-103251000D03*
X154178000Y-103251000D03*
X159766000Y-103251000D03*
%TO.N,/BA9*%
X176149000Y-105791000D03*
%TO.N,/BA10*%
X146431000Y-109093000D03*
X139700000Y-103251000D03*
X152908000Y-112014000D03*
X169164000Y-110871000D03*
X139700000Y-109093000D03*
%TO.N,/BA11*%
X140462000Y-110617000D03*
X140081000Y-101981000D03*
X171069000Y-109474000D03*
%TO.N,/BA14*%
X167513000Y-101219000D03*
X167513000Y-98171000D03*
X140462000Y-101346000D03*
X140462000Y-98196400D03*
%TO.N,/BA15*%
X160147000Y-94234000D03*
%TO.N,/BA12*%
X176911000Y-101346000D03*
%TO.N,/BA18*%
X155448000Y-120396000D03*
%TO.N,/BA16*%
X156083000Y-122936000D03*
%TO.N,/BA17*%
X154813000Y-121666000D03*
X154813000Y-97536000D03*
%TO.N,/FRD-*%
X153543000Y-114046000D03*
X153543000Y-108204000D03*
%TO.N,Net-(J4-Pin_2)*%
X134747000Y-117856000D03*
%TD*%
D43*
%TO.N,/RE_SW-*%
X86587500Y-120012500D02*
X86587500Y-120900000D01*
X88225000Y-118375000D02*
X86587500Y-120012500D01*
D44*
%TO.N,GND*%
X80264000Y-128016000D02*
X80264000Y-119380000D01*
X126238000Y-132334000D02*
X126238000Y-127746000D01*
X81291000Y-118375000D02*
X83225000Y-118375000D01*
X137922000Y-81026000D02*
X137313499Y-80417499D01*
X149098000Y-108458000D02*
X147726400Y-107086400D01*
X128400000Y-98552000D02*
X126492000Y-98552000D01*
X137668000Y-128878501D02*
X137668000Y-131191000D01*
X151917400Y-95656400D02*
X151638000Y-95377000D01*
X128400000Y-99822000D02*
X126492000Y-99822000D01*
X80264000Y-119380000D02*
X81280000Y-118364000D01*
X89621000Y-93600000D02*
X89621000Y-92133152D01*
X93741000Y-83160000D02*
X78711000Y-83160000D01*
X81102000Y-128854000D02*
X80264000Y-128016000D01*
X150267499Y-127381000D02*
X148971000Y-127381000D01*
X171095500Y-87376000D02*
X169926000Y-87376000D01*
X84862500Y-120012500D02*
X83225000Y-118375000D01*
X161384000Y-90048000D02*
X160025000Y-90048000D01*
X151638000Y-95377000D02*
X149733000Y-95377000D01*
X78151000Y-91600000D02*
X78151000Y-82600000D01*
X122606000Y-84150000D02*
X127423000Y-84150000D01*
X126238000Y-132334000D02*
X130201499Y-132334000D01*
X148336000Y-95631000D02*
X147345400Y-95631000D01*
X94301000Y-91600000D02*
X94301000Y-82600000D01*
X137313499Y-80417499D02*
X135382000Y-80417499D01*
X164364499Y-127381000D02*
X161290000Y-127381000D01*
X160274000Y-91948000D02*
X160020000Y-92202000D01*
X127965000Y-111391000D02*
X127965000Y-110312000D01*
X83100000Y-128850000D02*
X88350000Y-128850000D01*
X84862500Y-120900000D02*
X84862500Y-120012500D01*
X78711000Y-83160000D02*
X78151000Y-82600000D01*
X94946000Y-82600000D02*
X96520000Y-81026000D01*
X127423000Y-84150000D02*
X132673000Y-84150000D01*
X141478000Y-81026000D02*
X137922000Y-81026000D01*
X119126000Y-84582000D02*
X122174000Y-84582000D01*
X151612600Y-107086400D02*
X150241000Y-108458000D01*
X131318000Y-129258000D02*
X131318000Y-131217499D01*
X149733000Y-95377000D02*
X148590000Y-95377000D01*
X162560000Y-112776000D02*
X161290000Y-112776000D01*
X90378652Y-91375500D02*
X94076500Y-91375500D01*
X126377911Y-116471911D02*
X126365000Y-116459000D01*
X89621000Y-92133152D02*
X90378652Y-91375500D01*
X136779000Y-108966000D02*
X136779000Y-110082501D01*
X161290000Y-124206000D02*
X161290000Y-127381000D01*
X148336000Y-112776000D02*
X148717000Y-113157000D01*
X127965000Y-110312000D02*
X127889000Y-110236000D01*
X131318000Y-131217499D02*
X130201499Y-132334000D01*
X94301000Y-82600000D02*
X94946000Y-82600000D01*
X137006501Y-92837000D02*
X137006501Y-90572499D01*
X128400000Y-103632000D02*
X126492000Y-103632000D01*
X161384000Y-91948000D02*
X160274000Y-91948000D01*
X150241000Y-108458000D02*
X149098000Y-108458000D01*
X122174000Y-84582000D02*
X122606000Y-84150000D01*
X81280000Y-118364000D02*
X81291000Y-118375000D01*
X82973000Y-128854000D02*
X81102000Y-128854000D01*
X94301000Y-82600000D02*
X93741000Y-83160000D01*
X160025000Y-90048000D02*
X160020000Y-90043000D01*
X147320000Y-112776000D02*
X148336000Y-112776000D01*
X175416000Y-112776000D02*
X177038000Y-112776000D01*
X127963884Y-116471911D02*
X126377911Y-116471911D01*
X150241000Y-108458000D02*
X150241000Y-110236000D01*
X148590000Y-95377000D02*
X148336000Y-95631000D01*
D45*
%TO.N,+5V*%
X164084000Y-90048000D02*
X170363800Y-90048000D01*
X164084000Y-90048000D02*
X164084000Y-80010000D01*
X163068000Y-78994000D02*
X119634001Y-78994000D01*
X164084000Y-80010000D02*
X163068000Y-78994000D01*
D44*
%TO.N,+3.3V*%
X87421000Y-93600000D02*
X87421000Y-94787000D01*
X137668000Y-124558000D02*
X138020000Y-124206000D01*
X87421000Y-94787000D02*
X87884000Y-95250000D01*
X140629000Y-87249000D02*
X139974000Y-87904000D01*
X137398000Y-87122000D02*
X139192000Y-87122000D01*
X139974000Y-87904000D02*
X139974000Y-90145000D01*
X139573000Y-124206000D02*
X139827000Y-123952000D01*
X137668000Y-127153499D02*
X137668000Y-124558000D01*
X139192000Y-87122000D02*
X139974000Y-87904000D01*
X145304000Y-87249000D02*
X140629000Y-87249000D01*
X132588000Y-89789000D02*
X129032000Y-89789000D01*
X132588000Y-86741000D02*
X129032000Y-86741000D01*
X138020000Y-124206000D02*
X139573000Y-124206000D01*
D43*
%TO.N,/RESET-*%
X115443000Y-85725000D02*
X117856000Y-83312000D01*
X117856000Y-83312000D02*
X124764800Y-83312000D01*
X110363000Y-104267000D02*
X110363000Y-86614000D01*
X110998000Y-104902000D02*
X110363000Y-104267000D01*
X111252000Y-85725000D02*
X115443000Y-85725000D01*
X127423000Y-80950000D02*
X132673000Y-80950000D01*
X110363000Y-86614000D02*
X111252000Y-85725000D01*
X135398000Y-87122000D02*
X135398000Y-82158501D01*
X134189499Y-80950000D02*
X135382000Y-82142501D01*
X132673000Y-80950000D02*
X134189499Y-80950000D01*
X119126001Y-104902000D02*
X110998000Y-104902000D01*
X124764800Y-83312000D02*
X127241400Y-80835400D01*
%TO.N,/SPICK*%
X88519000Y-87122000D02*
X88519000Y-93598000D01*
%TO.N,/SPIMO*%
X86360000Y-89662000D02*
X86360000Y-93561000D01*
%TO.N,/DISP_CS-*%
X117221000Y-88392000D02*
X138081500Y-88392000D01*
X138081500Y-88392000D02*
X138773750Y-89084250D01*
X138773750Y-90640750D02*
X140843000Y-92710000D01*
X138773750Y-89084250D02*
X138773750Y-90640750D01*
X113919000Y-91694000D02*
X117221000Y-88392000D01*
%TO.N,/RE_A*%
X103047800Y-79502000D02*
X101346000Y-79502000D01*
X96926400Y-84480400D02*
X98228050Y-83178750D01*
X103759000Y-80213200D02*
X103047800Y-79502000D01*
X98228050Y-83178750D02*
X102622250Y-83178750D01*
X96926400Y-94843600D02*
X96926400Y-84480400D01*
X93599000Y-98171000D02*
X96926400Y-94843600D01*
X102622250Y-83178750D02*
X103759000Y-82042000D01*
X103759000Y-82042000D02*
X103759000Y-80213200D01*
%TO.N,/RE_B*%
X94615000Y-95885000D02*
X93345000Y-95885000D01*
X97028000Y-82042000D02*
X95631000Y-83439000D01*
X101600000Y-82042000D02*
X97028000Y-82042000D01*
X95631000Y-94869000D02*
X94615000Y-95885000D01*
X95631000Y-83439000D02*
X95631000Y-94869000D01*
X93345000Y-95885000D02*
X91059000Y-98171000D01*
%TO.N,Net-(LED1-A)*%
X147304000Y-84344000D02*
X147304000Y-87249000D01*
X146558000Y-83566000D02*
X147320000Y-84328000D01*
X141478000Y-83566000D02*
X146558000Y-83566000D01*
X147320000Y-84328000D02*
X147304000Y-84344000D01*
%TO.N,Net-(LED2-A)*%
X172725000Y-95499000D02*
X173355000Y-94869000D01*
X173355000Y-90765200D02*
X172500800Y-89911000D01*
X171500800Y-95499000D02*
X172725000Y-95499000D01*
X173355000Y-94869000D02*
X173355000Y-90765200D01*
%TO.N,Net-(LED3-A)*%
X168915000Y-100208000D02*
X171096000Y-100208000D01*
X168910000Y-100203000D02*
X168915000Y-100208000D01*
D44*
%TO.N,+5DP*%
X133655000Y-111391000D02*
X133655000Y-112661000D01*
X135281499Y-92837000D02*
X135281499Y-93953501D01*
X134747000Y-111391000D02*
X133655000Y-111391000D01*
X138530501Y-110109000D02*
X138530501Y-107596901D01*
X138530501Y-110109000D02*
X139573000Y-110109000D01*
X134747000Y-112661000D02*
X133655000Y-112661000D01*
X151992501Y-108992499D02*
X152019000Y-108966000D01*
X173508000Y-100208000D02*
X173503000Y-100203000D01*
X162915600Y-95656400D02*
X163322000Y-95250000D01*
X135281499Y-92837000D02*
X133461000Y-92837000D01*
X166089501Y-125883499D02*
X166116000Y-125857000D01*
X133655000Y-112661000D02*
X133655000Y-113931000D01*
X133334000Y-92710000D02*
X133334000Y-94726000D01*
X166116000Y-124206000D02*
X166116000Y-127354501D01*
X135281499Y-93953501D02*
X135255000Y-93980000D01*
X161290000Y-95656400D02*
X162915600Y-95656400D01*
X151992501Y-127381000D02*
X153162000Y-127381000D01*
X172820500Y-87376000D02*
X173990000Y-87376000D01*
X134747000Y-113931000D02*
X133655000Y-113931000D01*
X174133000Y-100208000D02*
X173508000Y-100208000D01*
X166089501Y-127381000D02*
X166089501Y-125883499D01*
X138530501Y-107596901D02*
X138020000Y-107086400D01*
X151990000Y-124206000D02*
X151990000Y-127378499D01*
X151992501Y-110236000D02*
X151992501Y-108992499D01*
X173503000Y-100203000D02*
X173101000Y-100203000D01*
D43*
%TO.N,/DPSENS*%
X134874000Y-133223000D02*
X134874000Y-132096000D01*
X114909600Y-127762000D02*
X114909600Y-131572000D01*
X134112000Y-127889000D02*
X134874000Y-128651000D01*
X134239000Y-133858000D02*
X134874000Y-133223000D01*
X119126001Y-94742000D02*
X114909600Y-94742000D01*
X117195600Y-133858000D02*
X134239000Y-133858000D01*
X134874000Y-132096000D02*
X132164501Y-132096000D01*
X114909600Y-131572000D02*
X117195600Y-133858000D01*
X134874000Y-128651000D02*
X134874000Y-132096000D01*
%TO.N,/DLATCH*%
X140081000Y-112776000D02*
X140970000Y-111887000D01*
X137287000Y-112776000D02*
X132842000Y-108331000D01*
X158877000Y-113411000D02*
X160274000Y-112014000D01*
X140970000Y-111887000D02*
X148590000Y-111887000D01*
X160274000Y-112014000D02*
X163957000Y-112014000D01*
X150114000Y-113411000D02*
X158877000Y-113411000D01*
X164719000Y-112776000D02*
X166116000Y-112776000D01*
X138020000Y-112776000D02*
X140081000Y-112776000D01*
X163957000Y-112014000D02*
X164719000Y-112776000D01*
X148590000Y-111887000D02*
X150114000Y-113411000D01*
%TO.N,Net-(D1-K)*%
X128778000Y-125746000D02*
X134096000Y-125746000D01*
%TO.N,/FPWR_ON*%
X158943000Y-90998000D02*
X161384000Y-90998000D01*
X114185501Y-84582000D02*
X118046301Y-80721200D01*
X125603000Y-107299000D02*
X125603000Y-109363000D01*
X104546400Y-104241601D02*
X104546400Y-85445600D01*
X105410000Y-84582000D02*
X114185501Y-84582000D01*
X124476000Y-106172000D02*
X125603000Y-107299000D01*
X157099000Y-89154000D02*
X158943000Y-90998000D01*
X101346001Y-107442000D02*
X104546400Y-104241601D01*
X102616001Y-106172000D02*
X124476000Y-106172000D01*
X101346001Y-107442000D02*
X102616001Y-106172000D01*
X118046301Y-80721200D02*
X125374400Y-80721200D01*
X104546400Y-85445600D02*
X105410000Y-84582000D01*
%TO.N,/CARD_CS-*%
X87223600Y-100533200D02*
X93894301Y-100533200D01*
X93894301Y-100533200D02*
X99685501Y-94742000D01*
X85221000Y-98530600D02*
X87223600Y-100533200D01*
X85221000Y-93600000D02*
X85221000Y-98530600D01*
%TO.N,/SPIMI*%
X90721000Y-92202000D02*
X90721000Y-93600000D01*
%TO.N,/BD4*%
X191867800Y-118461800D02*
X167864800Y-118461800D01*
X164719000Y-117856000D02*
X164054800Y-118520200D01*
X164054800Y-118520200D02*
X149254200Y-118520200D01*
X198120000Y-124714000D02*
X191867800Y-118461800D01*
X148590000Y-117856000D02*
X147320000Y-117856000D01*
X149254200Y-118520200D02*
X148590000Y-117856000D01*
X167864800Y-118461800D02*
X167259000Y-117856000D01*
X167259000Y-117856000D02*
X166116000Y-117856000D01*
X166116000Y-117856000D02*
X164719000Y-117856000D01*
%TO.N,/PD2*%
X151990000Y-103276400D02*
X147320000Y-103276400D01*
X155194000Y-124206000D02*
X156845000Y-124206000D01*
X162814000Y-120396000D02*
X161290000Y-120396000D01*
X156845000Y-120396000D02*
X161290000Y-120396000D01*
X144399000Y-120396000D02*
X144399000Y-121666000D01*
X117729000Y-118872000D02*
X124714000Y-118872000D01*
X138020000Y-120396000D02*
X144399000Y-120396000D01*
X168784322Y-120396000D02*
X168720161Y-120331839D01*
X175416000Y-120396000D02*
X168784322Y-120396000D01*
X138020000Y-120396000D02*
X135509000Y-120396000D01*
X144399000Y-121666000D02*
X145669000Y-122936000D01*
X101346001Y-117602000D02*
X116459000Y-117602000D01*
X144399000Y-103251000D02*
X147294600Y-103251000D01*
X135509000Y-120396000D02*
X135255000Y-120650000D01*
X135255000Y-120650000D02*
X133350000Y-120650000D01*
X116459000Y-117602000D02*
X117729000Y-118872000D01*
%TO.N,/BD5*%
X167640000Y-116586000D02*
X166116000Y-116586000D01*
X166116000Y-116586000D02*
X164719000Y-116586000D01*
X149703800Y-117191800D02*
X149098000Y-116586000D01*
X198120000Y-122174000D02*
X191867800Y-115921800D01*
X168304200Y-115921800D02*
X167640000Y-116586000D01*
X164113200Y-117191800D02*
X149703800Y-117191800D01*
X164719000Y-116586000D02*
X164113200Y-117191800D01*
X149098000Y-116586000D02*
X147320000Y-116586000D01*
X191867800Y-115921800D02*
X168304200Y-115921800D01*
%TO.N,/BD1*%
X169278300Y-121666000D02*
X169278300Y-125271840D01*
X149352000Y-122301000D02*
X148717000Y-121666000D01*
X148717000Y-121666000D02*
X147320000Y-121666000D01*
X169278300Y-125271840D02*
X170625460Y-126619000D01*
X166116000Y-121666000D02*
X164719000Y-121666000D01*
X170625460Y-126619000D02*
X178435000Y-126619000D01*
X164084000Y-122301000D02*
X149352000Y-122301000D01*
X164719000Y-121666000D02*
X164084000Y-122301000D01*
X168021000Y-121666000D02*
X166116000Y-121666000D01*
X178435000Y-126619000D02*
X182880000Y-122174000D01*
%TO.N,/BD0*%
X167491250Y-124565250D02*
X171577000Y-128651000D01*
X166116000Y-122936000D02*
X164719000Y-122936000D01*
X164719000Y-122936000D02*
X164084000Y-123571000D01*
X149322800Y-123541800D02*
X148717000Y-122936000D01*
X171577000Y-128651000D02*
X185039000Y-128651000D01*
X148717000Y-122936000D02*
X147320000Y-122936000D01*
X186436000Y-120650000D02*
X185420000Y-119634000D01*
X164054800Y-123541800D02*
X149322800Y-123541800D01*
X167491250Y-123549250D02*
X167491250Y-124565250D01*
X166878000Y-122936000D02*
X167491250Y-123549250D01*
X185039000Y-128651000D02*
X186436000Y-127254000D01*
X186436000Y-127254000D02*
X186436000Y-120650000D01*
X164084000Y-123571000D02*
X164054800Y-123541800D01*
X185420000Y-119634000D02*
X182880000Y-119634000D01*
%TO.N,/PD7*%
X161290000Y-114046000D02*
X158369000Y-114046000D01*
X145415000Y-97536000D02*
X146024600Y-96926400D01*
X136652000Y-114046000D02*
X138020000Y-114046000D01*
X162814000Y-114046000D02*
X161290000Y-114046000D01*
X158369000Y-96901000D02*
X152015400Y-96901000D01*
X151990000Y-96926400D02*
X147320000Y-96926400D01*
X175416000Y-114046000D02*
X173863000Y-114046000D01*
X141097000Y-97536000D02*
X145415000Y-97536000D01*
X146024600Y-96926400D02*
X147320000Y-96926400D01*
X138020000Y-114046000D02*
X141097000Y-114046000D01*
%TO.N,/PD1*%
X169613774Y-120972774D02*
X170307000Y-121666000D01*
X151989999Y-104546400D02*
X147320000Y-104546400D01*
X145034000Y-104521000D02*
X147294600Y-104521000D01*
X162814000Y-121666000D02*
X161290000Y-121666000D01*
X143510000Y-123571000D02*
X141605000Y-121666000D01*
X141605000Y-130302000D02*
X141605000Y-121666000D01*
X144272000Y-123571000D02*
X143510000Y-123571000D01*
X169192600Y-120972774D02*
X169613774Y-120972774D01*
X141605000Y-121666000D02*
X138020000Y-121666000D01*
X161290000Y-121666000D02*
X159004000Y-121666000D01*
X170307000Y-121666000D02*
X175416000Y-121666000D01*
%TO.N,/BD3*%
X196088000Y-129286000D02*
X198120000Y-127254000D01*
X164084000Y-119761000D02*
X149098000Y-119761000D01*
X166116000Y-119126000D02*
X164719000Y-119126000D01*
X149098000Y-119761000D02*
X148463000Y-119126000D01*
X164719000Y-119126000D02*
X164084000Y-119761000D01*
X170942000Y-129286000D02*
X196088000Y-129286000D01*
X170295300Y-119126000D02*
X166116000Y-119126000D01*
X148463000Y-119126000D02*
X147320000Y-119126000D01*
X170930300Y-119761000D02*
X170295300Y-119126000D01*
%TO.N,/PD4*%
X135631448Y-117856000D02*
X138020000Y-117856000D01*
X151990000Y-100736400D02*
X147320000Y-100736400D01*
X101346000Y-125222000D02*
X102489000Y-124079000D01*
X143002000Y-100711000D02*
X147294600Y-100711000D01*
X162814000Y-117856000D02*
X161290000Y-117856000D01*
X161290000Y-117856000D02*
X153924000Y-117856000D01*
X142240000Y-117856000D02*
X138020000Y-117856000D01*
X102489000Y-124079000D02*
X124809250Y-124079000D01*
X142875000Y-117221000D02*
X142240000Y-117856000D01*
X175416000Y-117856000D02*
X173863000Y-117856000D01*
X149479000Y-117856000D02*
X148844000Y-117221000D01*
X148844000Y-117221000D02*
X142875000Y-117221000D01*
X134969250Y-118518198D02*
X135631448Y-117856000D01*
%TO.N,/BD2*%
X168021000Y-120396000D02*
X166116000Y-120396000D01*
X164719000Y-120396000D02*
X164084000Y-121031000D01*
X166116000Y-120396000D02*
X164719000Y-120396000D01*
X180213000Y-127381000D02*
X170847230Y-127381000D01*
X170847230Y-127381000D02*
X168656000Y-125189770D01*
X182880000Y-124714000D02*
X180213000Y-127381000D01*
X148463000Y-120396000D02*
X147320000Y-120396000D01*
X149098000Y-121031000D02*
X148463000Y-120396000D01*
X168656000Y-121031000D02*
X168021000Y-120396000D01*
X168656000Y-125189770D02*
X168656000Y-121031000D01*
X164084000Y-121031000D02*
X149098000Y-121031000D01*
%TO.N,/BD6*%
X164719000Y-115316000D02*
X164113200Y-115921800D01*
X164113200Y-115921800D02*
X149830800Y-115921800D01*
X168300400Y-114655600D02*
X167640000Y-115316000D01*
X167640000Y-115316000D02*
X166116000Y-115316000D01*
X166116000Y-115316000D02*
X164719000Y-115316000D01*
X177063400Y-114655600D02*
X168300400Y-114655600D01*
X149225000Y-115316000D02*
X147320000Y-115316000D01*
X198120000Y-119634000D02*
X192014200Y-113528200D01*
X149830800Y-115921800D02*
X149225000Y-115316000D01*
X178190800Y-113528200D02*
X177063400Y-114655600D01*
X192014200Y-113528200D02*
X178190800Y-113528200D01*
%TO.N,/PWR-*%
X170688000Y-124206000D02*
X175416000Y-124206000D01*
X119126001Y-99822000D02*
X113284000Y-99822000D01*
X170307000Y-125349000D02*
X170307000Y-124587000D01*
X104394000Y-116205000D02*
X113284000Y-116205000D01*
X170307000Y-124587000D02*
X170688000Y-124206000D01*
%TO.N,/BD7*%
X198120000Y-117094000D02*
X194146800Y-113120800D01*
X149479000Y-114681000D02*
X148844000Y-114046000D01*
X194146800Y-113120800D02*
X178652800Y-113120800D01*
X164084000Y-114681000D02*
X149479000Y-114681000D01*
X177292000Y-111760000D02*
X173609000Y-111760000D01*
X171323000Y-114046000D02*
X166116000Y-114046000D01*
X173609000Y-111760000D02*
X171323000Y-114046000D01*
X166116000Y-114046000D02*
X164719000Y-114046000D01*
X148844000Y-114046000D02*
X147320000Y-114046000D01*
X164719000Y-114046000D02*
X164084000Y-114681000D01*
X178652800Y-113120800D02*
X177292000Y-111760000D01*
%TO.N,/PD6*%
X157734000Y-115316000D02*
X161290000Y-115316000D01*
X151989999Y-98196400D02*
X147320000Y-98196400D01*
X136652000Y-115316000D02*
X138020000Y-115316000D01*
X141732000Y-98171000D02*
X147294600Y-98171000D01*
X157708600Y-98196400D02*
X157734000Y-98171000D01*
X151989999Y-98196400D02*
X157708600Y-98196400D01*
X162814000Y-115316000D02*
X161290000Y-115316000D01*
X138020000Y-115316000D02*
X141732000Y-115316000D01*
X175416000Y-115316000D02*
X173863000Y-115316000D01*
%TO.N,/PD0*%
X140970000Y-122936000D02*
X138020000Y-122936000D01*
X151990000Y-105816400D02*
X147320000Y-105816400D01*
X140970000Y-129413000D02*
X140970000Y-122936000D01*
X161290000Y-122936000D02*
X159639000Y-122936000D01*
X162814000Y-122936000D02*
X161290000Y-122936000D01*
X175416000Y-122936000D02*
X169818050Y-122936000D01*
X145669000Y-105791000D02*
X147294600Y-105791000D01*
%TO.N,/PD3*%
X151990000Y-102006400D02*
X147320000Y-102006400D01*
X136271000Y-119126000D02*
X138020000Y-119126000D01*
X101346001Y-120142000D02*
X116586000Y-120142000D01*
X149860000Y-119126000D02*
X149098000Y-119126000D01*
X162814000Y-119126000D02*
X161290000Y-119126000D01*
X116586000Y-120142000D02*
X117729000Y-121285000D01*
X175416000Y-119126000D02*
X173863000Y-119126000D01*
X134493000Y-119888000D02*
X135509000Y-119888000D01*
X161290000Y-119126000D02*
X153924000Y-119126000D01*
X135509000Y-119888000D02*
X136271000Y-119126000D01*
X143764000Y-101981000D02*
X147294600Y-101981000D01*
X148463000Y-118491000D02*
X144399000Y-118491000D01*
X149098000Y-119126000D02*
X148463000Y-118491000D01*
X138020000Y-119126000D02*
X143764000Y-119126000D01*
X117729000Y-121285000D02*
X124714000Y-121285000D01*
X144399000Y-118491000D02*
X143764000Y-119126000D01*
%TO.N,/PD5*%
X161290000Y-116586000D02*
X153924000Y-116586000D01*
X143002000Y-115951000D02*
X142367000Y-116586000D01*
X149225000Y-115951000D02*
X143002000Y-115951000D01*
X162814000Y-116586000D02*
X161290000Y-116586000D01*
X142367000Y-99441000D02*
X147294600Y-99441000D01*
X102616000Y-126492000D02*
X124841000Y-126492000D01*
X101346001Y-127762000D02*
X102616000Y-126492000D01*
X175416000Y-116586000D02*
X173863000Y-116586000D01*
X151990000Y-99466400D02*
X147320000Y-99466400D01*
X138020000Y-116586000D02*
X142367000Y-116586000D01*
X136112250Y-116586000D02*
X138020000Y-116586000D01*
X149860000Y-116586000D02*
X149225000Y-115951000D01*
%TO.N,/PRD-*%
X119126001Y-102362000D02*
X114173000Y-102362000D01*
X142240000Y-124206000D02*
X147320000Y-124206000D01*
%TO.N,/A0*%
X115741550Y-93605250D02*
X115722400Y-93624400D01*
X127263250Y-93605250D02*
X115741550Y-93605250D01*
X128400000Y-94742000D02*
X127263250Y-93605250D01*
%TO.N,/A2*%
X125526800Y-97282000D02*
X128400000Y-97282000D01*
X117144800Y-98653600D02*
X124155200Y-98653600D01*
X124155200Y-98653600D02*
X125526800Y-97282000D01*
%TO.N,/FWR-*%
X168275000Y-96901000D02*
X168402000Y-96774000D01*
X197113250Y-90687250D02*
X198120000Y-91694000D01*
X154432000Y-110871000D02*
X168275000Y-110871000D01*
X168402000Y-96774000D02*
X173101000Y-96774000D01*
X174498000Y-90687250D02*
X197113250Y-90687250D01*
X173990000Y-91186000D02*
X173999250Y-91186000D01*
X154178000Y-110617000D02*
X154432000Y-110871000D01*
X173990000Y-95885000D02*
X173990000Y-91186000D01*
X173999250Y-91186000D02*
X174498000Y-90687250D01*
X173101000Y-96774000D02*
X173990000Y-95885000D01*
X154178000Y-115316000D02*
X151990000Y-115316000D01*
%TO.N,/A1*%
X116535200Y-96012000D02*
X128400000Y-96012000D01*
X116484400Y-96062800D02*
X116535200Y-96012000D01*
%TO.N,/ADH_LD-*%
X133350000Y-101092000D02*
X134747000Y-101092000D01*
X136779000Y-111252000D02*
X137033000Y-111506000D01*
X137033000Y-111506000D02*
X148844000Y-111506000D01*
X148844000Y-111506000D02*
X150114000Y-112776000D01*
X150114000Y-112776000D02*
X151990000Y-112776000D01*
%TO.N,/ADM_LD-*%
X136321800Y-96215200D02*
X136880600Y-95656400D01*
X136880600Y-95656400D02*
X138020000Y-95656400D01*
X136296400Y-97673314D02*
X136296400Y-96215200D01*
X136296400Y-96215200D02*
X136321800Y-96215200D01*
X134147714Y-99822000D02*
X136296400Y-97673314D01*
%TO.N,/ADL_LD-*%
X134239000Y-98552000D02*
X135636000Y-97155000D01*
X135636000Y-97155000D02*
X135636000Y-96012000D01*
X159131000Y-107061000D02*
X161264600Y-107061000D01*
X137160000Y-94488000D02*
X159131000Y-94488000D01*
X133350000Y-98552000D02*
X134239000Y-98552000D01*
X135636000Y-96012000D02*
X137160000Y-94488000D01*
%TO.N,/F_SEL-*%
X178689000Y-108585000D02*
X180975000Y-110871000D01*
X192913000Y-110871000D02*
X196596000Y-114554000D01*
X164846000Y-108585000D02*
X178689000Y-108585000D01*
X134620000Y-102362000D02*
X133350000Y-102362000D01*
X164846000Y-102616000D02*
X134874000Y-102616000D01*
X196596000Y-114554000D02*
X198120000Y-114554000D01*
X134874000Y-102616000D02*
X134620000Y-102362000D01*
X180975000Y-110871000D02*
X192913000Y-110871000D01*
%TO.N,/BA0*%
X161290000Y-105816400D02*
X163042600Y-105816400D01*
X163042600Y-105816400D02*
X163068000Y-105791000D01*
%TO.N,/BA2*%
X161290000Y-103276400D02*
X163474400Y-103276400D01*
X163474400Y-103276400D02*
X164211000Y-104013000D01*
X178308000Y-110236000D02*
X180086000Y-112014000D01*
X164211000Y-110236000D02*
X178308000Y-110236000D01*
X180086000Y-112014000D02*
X182880000Y-112014000D01*
%TO.N,/BA3*%
X165862000Y-101981000D02*
X161315400Y-101981000D01*
X165862000Y-107315000D02*
X169926000Y-107315000D01*
%TO.N,/BA1*%
X161290001Y-104546400D02*
X166471600Y-104546400D01*
X166471600Y-104546400D02*
X166497000Y-104521000D01*
%TO.N,/BA4*%
X167513000Y-104394000D02*
X180339999Y-104394000D01*
X180339999Y-104394000D02*
X182880000Y-106934001D01*
X166878000Y-100711000D02*
X161315400Y-100711000D01*
%TO.N,/BA6*%
X181737000Y-101854000D02*
X182880000Y-101854000D01*
X161290001Y-98196400D02*
X164312600Y-98196400D01*
X164312600Y-98196400D02*
X164338000Y-98171000D01*
X176149000Y-99441000D02*
X179324000Y-99441000D01*
X179324000Y-99441000D02*
X181737000Y-101854000D01*
%TO.N,/BA5*%
X161290000Y-99466400D02*
X169900600Y-99466400D01*
%TO.N,/BA7*%
X164338000Y-95631000D02*
X163068000Y-96901000D01*
X163068000Y-96901000D02*
X161315400Y-96901000D01*
%TO.N,/BA8*%
X167005000Y-101854000D02*
X165608000Y-103251000D01*
X139344400Y-105816400D02*
X139954000Y-106426000D01*
X172974000Y-101854000D02*
X167005000Y-101854000D01*
X183642000Y-102997000D02*
X174117000Y-102997000D01*
X159766000Y-103251000D02*
X154178000Y-103251000D01*
X139344400Y-105816400D02*
X138020000Y-105816400D01*
X198120000Y-101854000D02*
X184785000Y-101854000D01*
X154178000Y-106426000D02*
X139954000Y-106426000D01*
X165608000Y-103251000D02*
X164211000Y-103251000D01*
X174117000Y-102997000D02*
X172974000Y-101854000D01*
X184785000Y-101854000D02*
X183642000Y-102997000D01*
%TO.N,/BA9*%
X176149000Y-105791000D02*
X173101000Y-105791000D01*
X173101000Y-105791000D02*
X171958000Y-106934000D01*
X170815000Y-106934000D02*
X169037000Y-105156000D01*
X144653000Y-105156000D02*
X144043400Y-104546400D01*
X171958000Y-106934000D02*
X170815000Y-106934000D01*
X144043400Y-104546400D02*
X138020000Y-104546400D01*
X169037000Y-105156000D02*
X144653000Y-105156000D01*
%TO.N,/BA10*%
X153416000Y-111506000D02*
X152908000Y-112014000D01*
X168529000Y-111506000D02*
X153416000Y-111506000D01*
X169164000Y-110871000D02*
X168529000Y-111506000D01*
X146431000Y-109093000D02*
X139700000Y-109093000D01*
X139700000Y-103251000D02*
X138045400Y-103251000D01*
%TO.N,/BA11*%
X153416000Y-109855000D02*
X153416000Y-110744000D01*
X149098000Y-111125000D02*
X148590000Y-110617000D01*
X148590000Y-110617000D02*
X140462000Y-110617000D01*
X153797000Y-109474000D02*
X153416000Y-109855000D01*
X153035000Y-111125000D02*
X149098000Y-111125000D01*
X153416000Y-110744000D02*
X153035000Y-111125000D01*
X171069000Y-109474000D02*
X153797000Y-109474000D01*
X138045400Y-101981000D02*
X140081000Y-101981000D01*
%TO.N,/BA14*%
X140462000Y-98196400D02*
X138020000Y-98196400D01*
X167386000Y-101346000D02*
X140462000Y-101346000D01*
X167513000Y-98171000D02*
X196723000Y-98171000D01*
X196723000Y-98171000D02*
X198120000Y-96774000D01*
X167513000Y-101219000D02*
X167386000Y-101346000D01*
%TO.N,/BA15*%
X158075350Y-96305650D02*
X160147000Y-94234000D01*
X145883350Y-96305650D02*
X158075350Y-96305650D01*
X145262600Y-96926400D02*
X145883350Y-96305650D01*
X138020000Y-96926400D02*
X145262600Y-96926400D01*
%TO.N,/BA13*%
X195453000Y-100457000D02*
X181483000Y-100457000D01*
X181483000Y-100457000D02*
X179832000Y-98806000D01*
X140081000Y-98806000D02*
X139446000Y-99441000D01*
X179832000Y-98806000D02*
X140081000Y-98806000D01*
X139446000Y-99441000D02*
X138045400Y-99441000D01*
X196596000Y-99314000D02*
X195453000Y-100457000D01*
X198120000Y-99314000D02*
X196596000Y-99314000D01*
%TO.N,/BA12*%
X176911000Y-101346000D02*
X169037000Y-101346000D01*
X167767000Y-100076000D02*
X139573000Y-100076000D01*
X169037000Y-101346000D02*
X167767000Y-100076000D01*
X139573000Y-100076000D02*
X138912600Y-100736400D01*
%TO.N,/BA18*%
X151990000Y-120396000D02*
X155448000Y-120396000D01*
%TO.N,/BA16*%
X151990000Y-122936000D02*
X156083000Y-122936000D01*
%TO.N,/BA17*%
X154813000Y-97536000D02*
X181483000Y-97536000D01*
X181737000Y-97790000D02*
X194564000Y-97790000D01*
X181483000Y-97536000D02*
X181737000Y-97790000D01*
X194564000Y-97790000D02*
X198120000Y-94234000D01*
X154813000Y-121666000D02*
X151990000Y-121666000D01*
%TO.N,/DISPRST-*%
X135178800Y-96428199D02*
X135178800Y-95250000D01*
X135204200Y-95250000D02*
X136550400Y-93903800D01*
X134324999Y-97282000D02*
X135178800Y-96428199D01*
X143835200Y-93903800D02*
X147594000Y-90145000D01*
X133350000Y-97282000D02*
X134324999Y-97282000D01*
X136550400Y-93903800D02*
X143835200Y-93903800D01*
X135178800Y-95250000D02*
X135204200Y-95250000D01*
%TO.N,Net-(LED2-K)*%
X171500800Y-92959000D02*
X170489800Y-91948000D01*
X170489800Y-91948000D02*
X164084000Y-91948000D01*
%TO.N,Net-(U3-IN0)*%
X125603000Y-105299000D02*
X126959750Y-106655750D01*
X128295000Y-112661000D02*
X128969134Y-113335134D01*
X128969134Y-117066661D02*
X128293884Y-117741911D01*
X128969134Y-113335134D02*
X128969134Y-117066661D01*
X126959750Y-106655750D02*
X126959750Y-112066250D01*
X126959750Y-112066250D02*
X127554500Y-112661000D01*
%TO.N,Net-(U3-DEN)*%
X125603000Y-111899000D02*
X125603000Y-111363000D01*
X127635000Y-113931000D02*
X125603000Y-111899000D01*
%TO.N,Net-(U2-E3)*%
X131334000Y-92710000D02*
X131334000Y-99132999D01*
X129374999Y-101092000D02*
X128400000Y-101092000D01*
X131334000Y-99132999D02*
X129374999Y-101092000D01*
%TO.N,Net-(U3-IS)*%
X126778000Y-125746000D02*
X128778000Y-127746000D01*
X125349000Y-116078000D02*
X125349000Y-124857000D01*
X127965000Y-115201000D02*
X126226000Y-115201000D01*
X125349000Y-124857000D02*
X126238000Y-125746000D01*
X126226000Y-115201000D02*
X125349000Y-116078000D01*
%TO.N,/ATTN-*%
X93167200Y-124866400D02*
X92379600Y-125654000D01*
X93167200Y-109677200D02*
X93167200Y-124866400D01*
X117786250Y-108781750D02*
X94062650Y-108781750D01*
X88223000Y-125654000D02*
X82973000Y-125654000D01*
X94062650Y-108781750D02*
X93167200Y-109677200D01*
X92379600Y-125654000D02*
X88223000Y-125654000D01*
X119126000Y-107442000D02*
X117786250Y-108781750D01*
%TO.N,/FRD-*%
X153543000Y-108204000D02*
X153797000Y-107950000D01*
X153543000Y-114046000D02*
X151990000Y-114046000D01*
X196596000Y-107950000D02*
X198120000Y-109474000D01*
X153797000Y-107950000D02*
X196596000Y-107950000D01*
%TO.N,Net-(J4-Pin_2)*%
X133653884Y-116471911D02*
X133653884Y-117741911D01*
X133653884Y-119011911D02*
X133653884Y-117741911D01*
X134747000Y-117856000D02*
X133767973Y-117856000D01*
%TD*%
M02*
