%TF.GenerationSoftware,KiCad,Pcbnew,9.0.6*%
%TF.CreationDate,2025-11-05T23:56:18-08:00*%
%TF.ProjectId,SD-PGMR,53442d50-474d-4522-9e6b-696361645f70,v2.0*%
%TF.SameCoordinates,Original*%
%TF.FileFunction,Plated,1,4,PTH,Mixed*%
%TF.FilePolarity,Positive*%
%FSLAX46Y46*%
G04 Gerber Fmt 4.6, Leading zero omitted, Abs format (unit mm)*
G04 Created by KiCad (PCBNEW 9.0.6) date 2025-11-05 23:56:18*
%MOMM*%
%LPD*%
G01*
G04 APERTURE LIST*
%TA.AperFunction,ViaDrill*%
%ADD10C,0.300990*%
%TD*%
%TA.AperFunction,ViaDrill*%
%ADD11C,0.508000*%
%TD*%
%TA.AperFunction,ComponentDrill*%
%ADD12C,0.600000*%
%TD*%
%TA.AperFunction,ComponentDrill*%
%ADD13C,0.900000*%
%TD*%
%TA.AperFunction,ComponentDrill*%
%ADD14C,1.000000*%
%TD*%
%TA.AperFunction,ComponentDrill*%
%ADD15C,1.020000*%
%TD*%
G04 aperture for slot hole*
%TA.AperFunction,ComponentDrill*%
%ADD16C,1.500000*%
%TD*%
G04 APERTURE END LIST*
D10*
X86360000Y-89662000D03*
X88519000Y-87122000D03*
X90721000Y-92202000D03*
X104394000Y-116205000D03*
X113284000Y-99822000D03*
X113284000Y-116205000D03*
X113919000Y-91694000D03*
X114173000Y-102362000D03*
X114909600Y-94742000D03*
X114909600Y-127762000D03*
X115722400Y-93624400D03*
X116484400Y-96062800D03*
X117144800Y-98653600D03*
X124714000Y-118872000D03*
X124714000Y-121285000D03*
X124809250Y-124079000D03*
X124841000Y-126492000D03*
X125374400Y-80721200D03*
X129032000Y-86741000D03*
X129032000Y-89789000D03*
X132588000Y-86741000D03*
X132588000Y-89789000D03*
X132842000Y-108331000D03*
X133350000Y-120650000D03*
X134493000Y-119888000D03*
X134747000Y-101092000D03*
X134747000Y-117856000D03*
X134969250Y-118518198D03*
X136112250Y-116586000D03*
X136652000Y-114046000D03*
X136652000Y-115316000D03*
X136779000Y-111252000D03*
X139700000Y-103251000D03*
X139700000Y-109093000D03*
X140081000Y-101981000D03*
X140462000Y-98196400D03*
X140462000Y-101346000D03*
X140462000Y-110617000D03*
X140843000Y-92710000D03*
X140970000Y-122936000D03*
X140970000Y-129413000D03*
X141097000Y-97536000D03*
X141097000Y-114046000D03*
X141605000Y-121666000D03*
X141605000Y-130302000D03*
X141732000Y-98171000D03*
X141732000Y-115316000D03*
X142240000Y-124206000D03*
X142367000Y-99441000D03*
X142367000Y-116586000D03*
X142875000Y-117221000D03*
X143002000Y-100711000D03*
X143764000Y-101981000D03*
X143764000Y-119126000D03*
X144272000Y-123571000D03*
X144399000Y-103251000D03*
X144399000Y-120396000D03*
X145034000Y-104521000D03*
X145669000Y-105791000D03*
X145669000Y-122936000D03*
X146431000Y-109093000D03*
X149479000Y-117856000D03*
X149860000Y-116586000D03*
X149860000Y-119126000D03*
X152908000Y-112014000D03*
X153543000Y-108204000D03*
X153543000Y-114046000D03*
X153924000Y-116586000D03*
X153924000Y-117856000D03*
X153924000Y-119126000D03*
X154178000Y-103251000D03*
X154178000Y-106426000D03*
X154178000Y-110617000D03*
X154178000Y-115316000D03*
X154813000Y-97536000D03*
X154813000Y-121666000D03*
X155194000Y-124206000D03*
X155448000Y-120396000D03*
X156083000Y-122936000D03*
X156845000Y-120396000D03*
X156845000Y-124206000D03*
X157099000Y-89154000D03*
X157734000Y-98171000D03*
X157734000Y-115316000D03*
X158369000Y-96901000D03*
X158369000Y-114046000D03*
X159004000Y-121666000D03*
X159131000Y-94488000D03*
X159131000Y-107061000D03*
X159639000Y-122936000D03*
X159766000Y-103251000D03*
X160147000Y-94234000D03*
X162814000Y-114046000D03*
X162814000Y-115316000D03*
X162814000Y-116586000D03*
X162814000Y-117856000D03*
X162814000Y-119126000D03*
X162814000Y-120396000D03*
X162814000Y-121666000D03*
X162814000Y-122936000D03*
X163068000Y-105791000D03*
X164211000Y-103251000D03*
X164211000Y-104013000D03*
X164211000Y-110236000D03*
X164338000Y-95631000D03*
X164338000Y-98171000D03*
X164846000Y-102616000D03*
X164846000Y-108585000D03*
X165862000Y-101981000D03*
X165862000Y-107315000D03*
X166497000Y-104521000D03*
X166878000Y-100711000D03*
X167513000Y-98171000D03*
X167513000Y-101219000D03*
X167513000Y-104394000D03*
X168021000Y-121666000D03*
X168275000Y-96901000D03*
X168275000Y-110871000D03*
X168720161Y-120331839D03*
X168910000Y-100203000D03*
X169164000Y-110871000D03*
X169192600Y-120972774D03*
X169278300Y-121666000D03*
X169818050Y-122936000D03*
X169900600Y-99466400D03*
X169926000Y-107315000D03*
X170307000Y-125349000D03*
X170930300Y-119761000D03*
X170942000Y-129286000D03*
X171069000Y-109474000D03*
X173863000Y-114046000D03*
X173863000Y-115316000D03*
X173863000Y-116586000D03*
X173863000Y-117856000D03*
X173863000Y-119126000D03*
X176149000Y-99441000D03*
X176149000Y-105791000D03*
X176911000Y-101346000D03*
D11*
X87884000Y-95250000D03*
X96520000Y-81026000D03*
X126238000Y-132334000D03*
X126365000Y-116459000D03*
X126492000Y-98552000D03*
X126492000Y-99822000D03*
X126492000Y-103632000D03*
X127889000Y-110236000D03*
X134747000Y-111391000D03*
X134747000Y-112661000D03*
X134747000Y-113931000D03*
X135255000Y-93980000D03*
X136779000Y-108966000D03*
X137668000Y-131191000D03*
X139573000Y-110109000D03*
X139827000Y-123952000D03*
X148717000Y-113157000D03*
X148971000Y-127381000D03*
X149733000Y-95377000D03*
X150241000Y-108458000D03*
X152019000Y-108966000D03*
X153162000Y-127381000D03*
X160020000Y-90043000D03*
X160020000Y-92202000D03*
X161290000Y-127381000D03*
X162560000Y-112776000D03*
X163322000Y-95250000D03*
X166116000Y-125857000D03*
X169926000Y-87376000D03*
X173990000Y-87376000D03*
X174133000Y-100208000D03*
X177038000Y-112776000D03*
D12*
%TO.C,U3*%
X130810000Y-112546000D03*
X130810000Y-114046000D03*
X130810278Y-118518449D03*
X130810278Y-120018449D03*
X130811287Y-109564011D03*
X130811287Y-111064011D03*
X130812295Y-115541408D03*
X130812295Y-117041408D03*
D13*
%TO.C,LED1*%
X141478000Y-81026000D03*
X141478000Y-83566000D03*
%TO.C,LED3*%
X171450000Y-103119000D03*
X171450000Y-105659000D03*
%TO.C,LED2*%
X171500800Y-92959000D03*
X171500800Y-95499000D03*
D14*
%TO.C,RE1*%
X83225000Y-103875000D03*
X83225000Y-118375000D03*
X85725000Y-103875000D03*
X88225000Y-103875000D03*
X88225000Y-118375000D03*
%TO.C,J2*%
X88519000Y-98171000D03*
X91059000Y-98171000D03*
X93599000Y-98171000D03*
%TO.C,J5*%
X134874000Y-132096000D03*
%TO.C,J1*%
X137434000Y-90145000D03*
X139974000Y-90145000D03*
X142514000Y-90145000D03*
%TO.C,J4*%
X145039000Y-132080000D03*
%TO.C,J1*%
X145054000Y-90145000D03*
%TO.C,J4*%
X147579000Y-132080000D03*
%TO.C,J1*%
X147594000Y-90145000D03*
X150134000Y-90145000D03*
%TO.C,J3*%
X152659000Y-86360000D03*
%TO.C,J1*%
X152674000Y-90145000D03*
%TO.C,J3*%
X155199000Y-86360000D03*
%TO.C,U4*%
X182880000Y-89154000D03*
X182880000Y-91694000D03*
X182880000Y-94234000D03*
X182880000Y-96774000D03*
X182880000Y-99314000D03*
X182880000Y-101854000D03*
X182880000Y-104394000D03*
X182880000Y-106934000D03*
X182880000Y-109474000D03*
X182880000Y-112014000D03*
X182880000Y-114554000D03*
X182880000Y-117094000D03*
X182880000Y-119634000D03*
X182880000Y-122174000D03*
X182880000Y-124714000D03*
X182880000Y-127254000D03*
X198120000Y-89154000D03*
X198120000Y-91694000D03*
X198120000Y-94234000D03*
X198120000Y-96774000D03*
X198120000Y-99314000D03*
X198120000Y-101854000D03*
X198120000Y-104394000D03*
X198120000Y-106934000D03*
X198120000Y-109474000D03*
X198120000Y-112014000D03*
X198120000Y-114554000D03*
X198120000Y-117094000D03*
X198120000Y-119634000D03*
X198120000Y-122174000D03*
X198120000Y-124714000D03*
X198120000Y-127254000D03*
D15*
%TO.C,U1*%
X101346001Y-79502000D03*
X101346001Y-82042000D03*
X101346001Y-84582000D03*
X101346001Y-87122000D03*
X101346001Y-89662000D03*
X101346001Y-92202000D03*
X101346001Y-94742000D03*
X101346001Y-97282000D03*
X101346001Y-99822000D03*
X101346001Y-102362000D03*
X101346001Y-104902000D03*
X101346001Y-107442000D03*
X101346001Y-109982000D03*
X101346001Y-112522000D03*
X101346001Y-115062000D03*
X101346001Y-117602000D03*
X101346001Y-120142000D03*
X101346001Y-122682000D03*
X101346001Y-125222000D03*
X101346001Y-127762000D03*
X107700001Y-127802000D03*
X110240001Y-127802000D03*
X112780001Y-127802000D03*
X119126001Y-79502000D03*
X119126001Y-82042000D03*
X119126001Y-84582000D03*
X119126001Y-87122000D03*
X119126001Y-89662000D03*
X119126001Y-92202000D03*
X119126001Y-94742000D03*
X119126001Y-97282000D03*
X119126001Y-99822000D03*
X119126001Y-102362000D03*
X119126001Y-104902000D03*
X119126001Y-107442000D03*
X119126001Y-109982000D03*
X119126001Y-112522000D03*
X119126001Y-115062000D03*
X119126001Y-117602000D03*
X119126001Y-120142000D03*
X119126001Y-122682000D03*
X119126001Y-125222000D03*
X119126001Y-127762000D03*
D16*
%TO.C,RE1*%
X80125000Y-112025000D02*
X80125000Y-110725000D01*
X91325000Y-112025000D02*
X91325000Y-110725000D01*
M02*
